<svg width="332" height="270" viewBox="0 0 332 270" fill="none" xmlns="http://www.w3.org/2000/svg">
<path opacity="0.2" fill-rule="evenodd" clip-rule="evenodd" d="M275 261C275 265.976 226.196 270 166 270C105.804 270 57 265.976 57 261C57 256.024 105.804 252 166 252C226.196 252 275 256.037 275 261Z" fill="#B7E5CA"/>
<path d="M251.338 230.059H98.2997C98.2202 230.059 98.144 230.003 98.0878 229.904C98.0316 229.804 98 229.67 98 229.529C98 229.389 98.0316 229.254 98.0878 229.155C98.144 229.056 98.2202 229 98.2997 229H251.338C251.417 229 251.493 229.056 251.55 229.155C251.606 229.254 251.638 229.389 251.638 229.529C251.638 229.67 251.606 229.804 251.55 229.904C251.493 230.003 251.417 230.059 251.338 230.059Z" fill="#C6E9C3"/>
<path d="M331.338 230.059H178.3C178.22 230.059 178.144 230.003 178.088 229.904C178.032 229.804 178 229.67 178 229.529C178 229.389 178.032 229.254 178.088 229.155C178.144 229.056 178.22 229 178.3 229H331.338C331.417 229 331.493 229.056 331.55 229.155C331.606 229.254 331.638 229.389 331.638 229.529C331.638 229.67 331.606 229.804 331.55 229.904C331.493 230.003 331.417 230.059 331.338 230.059Z" fill="#C6E9C3"/>
<path d="M153.338 230.059H0.299745C0.220248 230.059 0.144006 230.003 0.0877932 229.904C0.03158 229.804 0 229.67 0 229.529C0 229.389 0.03158 229.254 0.0877932 229.155C0.144006 229.056 0.220248 229 0.299745 229H153.338C153.417 229 153.493 229.056 153.55 229.155C153.606 229.254 153.638 229.389 153.638 229.529C153.638 229.67 153.606 229.804 153.55 229.904C153.493 230.003 153.417 230.059 153.338 230.059Z" fill="#C6E9C3"/>
<path d="M154.567 245.482C154.567 245.482 154.798 250.278 154.567 253.676C154.337 257.074 152.942 259.181 148.884 260.346C144.825 261.51 138.565 258.355 137.873 254.968C137.18 251.58 144.165 241.385 144.165 241.385L154.567 245.482Z" fill="white"/>
<path d="M147.017 261.193C144.852 261.142 142.739 260.514 140.893 259.372C140.054 258.938 139.308 258.34 138.7 257.613C138.091 256.886 137.632 256.045 137.348 255.137C136.625 251.612 142.959 242.2 143.693 241.141C143.762 241.041 143.862 240.966 143.978 240.93C144.094 240.893 144.219 240.897 144.332 240.94L154.819 245.037C154.917 245.075 155.001 245.142 155.061 245.229C155.121 245.316 155.153 245.419 155.155 245.524C155.155 245.524 155.385 250.394 155.155 253.782C154.892 257.646 153.057 259.785 149.083 260.939C148.41 261.122 147.714 261.207 147.017 261.193V261.193ZM144.343 242.137C142.308 245.175 137.893 252.448 138.407 254.936C138.66 255.698 139.06 256.402 139.584 257.007C140.108 257.612 140.745 258.106 141.459 258.461C143.628 259.864 146.257 260.351 148.779 259.816C152.355 258.758 153.833 257.053 154.022 253.634C154.221 250.839 154.085 247.028 154.022 245.863L144.343 242.137Z" fill="#231F20"/>
<path d="M191.869 245.482C191.869 245.482 191.638 250.278 191.869 253.676C192.099 257.074 193.494 259.181 197.552 260.346C201.611 261.51 207.871 258.355 208.564 254.968C209.256 251.58 202.271 241.385 202.271 241.385L191.869 245.482Z" fill="white"/>
<path d="M199.419 261.193C198.739 261.199 198.061 261.11 197.406 260.928C193.41 259.774 191.596 257.636 191.334 253.771C191.103 250.384 191.334 245.556 191.334 245.514C191.337 245.407 191.372 245.304 191.434 245.217C191.495 245.131 191.581 245.064 191.68 245.027L202.104 240.93C202.219 240.886 202.345 240.882 202.463 240.918C202.58 240.954 202.683 241.029 202.754 241.131C203.477 242.189 209.811 251.601 209.098 255.126C208.81 256.033 208.348 256.874 207.738 257.601C207.128 258.327 206.382 258.926 205.543 259.361C203.698 260.507 201.585 261.139 199.419 261.193V261.193ZM192.393 245.916C192.393 247.081 192.225 250.892 192.393 253.687C192.624 257.106 194.102 258.842 197.636 259.869C200.159 260.367 202.774 259.85 204.925 258.43C206.362 257.706 207.458 256.439 207.976 254.904C208.48 252.416 204.075 245.143 202.041 242.105L192.393 245.916Z" fill="#231F20"/>
<path d="M139.341 241.618C139.341 241.618 147.73 249.579 156.507 243.492L175.74 156.457L190.369 244.127C190.369 244.127 198.496 250.86 208.196 242.433L201.904 138.111L141.91 140.037L139.341 241.618Z" fill="#35338A"/>
<path d="M198.15 247.176C195.254 247.168 192.433 246.242 190.086 244.529C189.988 244.448 189.922 244.336 189.897 244.211L175.709 159.199L157.063 243.608C157.033 243.739 156.954 243.852 156.843 243.926C147.803 250.182 139.11 242.094 139.016 242.009C138.961 241.958 138.918 241.895 138.89 241.826C138.861 241.757 138.846 241.682 138.848 241.607L141.396 139.974C141.401 139.839 141.457 139.711 141.553 139.617C141.648 139.522 141.776 139.468 141.91 139.466L201.904 137.539C202.039 137.538 202.169 137.59 202.268 137.682C202.368 137.774 202.429 137.901 202.439 138.036L208.731 242.359C208.736 242.44 208.722 242.521 208.691 242.596C208.66 242.672 208.613 242.739 208.553 242.793C204.757 246.149 201.149 247.176 198.15 247.176ZM190.893 243.83C192.036 244.698 199.146 249.462 207.672 242.2L201.38 138.651L142.487 140.503L139.949 241.353C141.176 242.412 148.422 248.309 156.13 243.132L175.31 156.32C175.343 156.204 175.412 156.102 175.506 156.028C175.6 155.953 175.715 155.911 175.834 155.907C175.956 155.91 176.074 155.957 176.165 156.038C176.257 156.119 176.318 156.23 176.338 156.352L190.893 243.83Z" fill="#231F20"/>
<path d="M185.304 53.0985C185.304 53.0985 168.357 52.1139 158.814 53.0985C152.281 58.9848 141.931 140.037 141.931 140.037L198.003 142.313C198.003 142.313 197.552 66.1626 185.304 53.0985Z" fill="#1CACA3"/>
<path d="M198.003 142.843L141.931 140.556C141.859 140.554 141.788 140.538 141.723 140.507C141.658 140.476 141.6 140.431 141.553 140.376C141.507 140.319 141.472 140.253 141.452 140.182C141.432 140.111 141.428 140.036 141.438 139.963C141.857 136.65 151.925 58.6566 158.489 52.7068C158.571 52.6327 158.674 52.588 158.783 52.5798C168.221 51.6058 185.178 52.5798 185.356 52.5798C185.488 52.585 185.612 52.642 185.702 52.7386C190.862 58.2437 194.595 74.9709 196.787 102.56C198.412 123.014 198.549 142.123 198.549 142.313C198.55 142.385 198.536 142.455 198.509 142.521C198.482 142.586 198.442 142.645 198.391 142.695C198.286 142.794 198.147 142.847 198.003 142.843V142.843ZM142.487 139.529L197.448 141.763C197.374 134.871 196.325 66.205 185.031 53.6173C183.07 53.5114 167.864 52.728 159.014 53.6173C154.022 58.8366 146.105 111.622 142.487 139.529Z" fill="#231F20"/>
<path d="M166.407 115.264C165.474 113.337 162.296 114.333 162.296 111.876V95.7528H162.873V93.032H157.168V95.7528H157.734V111.919C157.734 114.375 154.588 113.38 153.624 115.307C152.659 117.233 153.298 131.346 153.298 131.346H166.753C166.753 131.346 167.33 117.212 166.407 115.264Z" fill="white"/>
<path d="M166.732 131.833H153.277C153.142 131.833 153.012 131.78 152.914 131.685C152.816 131.59 152.759 131.461 152.753 131.324C152.69 129.863 152.176 117.011 153.131 115.031C153.392 114.591 153.745 114.214 154.165 113.925C154.585 113.637 155.062 113.443 155.564 113.359C156.612 113.009 157.189 112.798 157.189 111.876V96.2821C157.05 96.2821 156.917 96.2263 156.818 96.1271C156.72 96.0278 156.665 95.8932 156.665 95.7528V93.0425C156.665 92.9021 156.72 92.7675 156.818 92.6682C156.917 92.569 157.05 92.5132 157.189 92.5132H162.915C163.054 92.5132 163.187 92.569 163.286 92.6682C163.384 92.7675 163.439 92.9021 163.439 93.0425V95.7528C163.439 95.8932 163.384 96.0278 163.286 96.1271C163.187 96.2263 163.054 96.2821 162.915 96.2821H162.862V111.919C162.862 112.84 163.387 113.052 164.488 113.401C164.989 113.487 165.465 113.681 165.885 113.969C166.305 114.258 166.658 114.635 166.921 115.074V115.074C167.875 117.053 167.361 129.895 167.298 131.367C167.282 131.504 167.214 131.629 167.109 131.716C167.003 131.803 166.868 131.845 166.732 131.833ZM153.781 130.774H166.229C166.449 125.142 166.554 116.778 165.935 115.497C165.62 114.841 164.886 114.608 164.131 114.364C163.083 114.036 161.772 113.623 161.772 111.876V95.7528C161.772 95.6124 161.827 95.4777 161.925 95.3785C162.024 95.2792 162.157 95.2234 162.296 95.2234H162.348V93.5719H157.671V95.2234C157.81 95.2234 157.944 95.2792 158.042 95.3785C158.14 95.4777 158.196 95.6124 158.196 95.7528V111.919C158.196 113.666 156.885 114.036 155.836 114.407C155.071 114.65 154.347 114.883 154.032 115.54C153.456 116.778 153.55 125.142 153.781 130.774Z" fill="#A7A7A7"/>
<path d="M185.199 111.612C183.93 109.981 179.61 110.828 179.61 108.743V99.1087H173.318V108.743C173.318 110.86 168.997 109.981 167.739 111.612C166.48 113.242 167.288 125.226 167.288 125.226H185.587C185.587 125.226 186.457 113.242 185.199 111.612Z" fill="white"/>
<path d="M185.639 125.756H167.34C167.208 125.756 167.081 125.706 166.983 125.616C166.886 125.526 166.826 125.402 166.816 125.269C166.679 123.236 166.061 112.999 167.372 111.294C168.247 110.473 169.377 109.982 170.57 109.907C171.986 109.632 172.846 109.41 172.846 108.743V99.1087C172.846 98.9683 172.901 98.8337 172.999 98.7344C173.098 98.6351 173.231 98.5794 173.37 98.5794H179.662C179.801 98.5794 179.935 98.6351 180.033 98.7344C180.131 98.8337 180.186 98.9683 180.186 99.1087V108.743C180.186 109.41 181.046 109.632 182.473 109.907C183.648 109.992 184.758 110.481 185.619 111.294C186.94 112.999 186.311 123.236 186.174 125.269C186.164 125.404 186.102 125.529 186.003 125.62C185.903 125.71 185.773 125.759 185.639 125.756ZM167.812 124.697H185.126C185.419 120.113 185.556 112.977 184.759 111.993C184.022 111.406 183.126 111.059 182.189 110.998C180.732 110.712 179.043 110.384 179.043 108.796V99.691H173.8V108.743C173.8 110.331 172.143 110.659 170.654 110.945C169.718 111.008 168.822 111.354 168.085 111.94C167.403 112.977 167.539 120.113 167.833 124.697H167.812Z" fill="#257E2E"/>
<path d="M210.881 117.371C210.105 115.762 207.452 116.588 207.452 114.544V105.069H203.624V114.544C203.624 116.588 200.971 115.762 200.195 117.371C199.419 118.98 199.922 130.753 199.922 130.753H211.154C211.154 130.753 211.699 118.97 210.881 117.371Z" fill="white"/>
<path d="M211.154 131.282H199.922C199.787 131.282 199.657 131.229 199.559 131.134C199.461 131.04 199.403 130.91 199.398 130.774C199.346 129.556 198.916 118.811 199.723 117.138C199.949 116.759 200.254 116.433 200.616 116.183C200.977 115.932 201.388 115.764 201.82 115.688C202.775 115.391 203.11 115.222 203.11 114.544V105.069C203.11 104.929 203.166 104.794 203.264 104.695C203.362 104.595 203.496 104.54 203.635 104.54H207.504C207.643 104.54 207.777 104.595 207.875 104.695C207.973 104.794 208.029 104.929 208.029 105.069V114.544C208.029 115.222 208.364 115.391 209.318 115.688C209.751 115.764 210.161 115.932 210.523 116.183C210.885 116.433 211.189 116.759 211.416 117.138V117.138C212.223 118.811 211.793 129.556 211.741 130.774C211.738 130.847 211.721 130.919 211.69 130.985C211.658 131.052 211.613 131.111 211.558 131.158C211.503 131.206 211.438 131.242 211.369 131.263C211.299 131.284 211.226 131.291 211.154 131.282ZM200.426 130.223H210.65C210.829 125.681 210.912 118.641 210.409 117.593C210.157 117.085 209.602 116.905 208.951 116.704C208.102 116.429 206.927 116.058 206.927 114.587V105.567H204.148V114.512C204.148 116.026 202.974 116.397 202.125 116.63C201.474 116.831 200.919 117.011 200.667 117.519C200.164 118.641 200.247 125.681 200.426 130.223Z" fill="#A02394"/>
<path d="M186.971 31.236C186.636 31.236 187.517 27.2448 187.559 27.0013C187.905 25.2227 188.607 23.1583 188.796 21.3585C190.075 11.3011 184.255 7.97682 184.255 7.97682C184.688 6.98793 185.001 5.95001 185.189 4.88547L180.48 5.41481L181.77 1.37065L157.168 10.8035C156.75 10.9255 156.37 11.1554 156.067 11.4705C155.853 11.7868 155.717 12.1495 155.668 12.5291C154.449 19.6093 154.761 26.8718 156.581 33.8192L186.971 31.236Z" fill="black"/>
<path d="M156.549 34.381C156.428 34.3796 156.31 34.3372 156.215 34.2604C156.12 34.1837 156.053 34.0771 156.025 33.9576C154.168 26.9266 153.843 19.573 155.071 12.4029C155.132 11.931 155.305 11.4809 155.574 11.0901C155.941 10.6974 156.404 10.409 156.916 10.2537L181.55 0.799741C181.645 0.761747 181.749 0.752065 181.849 0.771844C181.949 0.791624 182.042 0.840036 182.116 0.911342C182.19 0.982647 182.242 1.07386 182.266 1.17416C182.29 1.27447 182.285 1.37967 182.252 1.47729L181.204 4.71685L185.073 4.27221C185.151 4.26684 185.229 4.27719 185.303 4.30264C185.377 4.32808 185.445 4.36812 185.503 4.42042C185.56 4.47641 185.605 4.54415 185.634 4.61903C185.663 4.69392 185.675 4.77422 185.671 4.85448C185.527 5.83772 185.259 6.79834 184.874 7.71291C186.227 8.69748 190.4 12.5087 189.278 21.3699C189.106 22.5191 188.868 23.6573 188.565 24.7788C188.366 25.5516 188.177 26.3139 188.041 27.0444V27.2667C187.745 28.4634 187.538 29.6807 187.422 30.9086C187.467 30.9782 187.492 31.0586 187.496 31.1415C187.504 31.2127 187.499 31.285 187.479 31.3539C187.459 31.4228 187.426 31.4869 187.38 31.5424C187.335 31.5978 187.279 31.6434 187.216 31.6764C187.153 31.7094 187.084 31.7291 187.013 31.7343L156.602 34.3387L156.549 34.381ZM180.91 2.2713L157.336 11.3442C157.005 11.4382 156.703 11.6127 156.455 11.8523C156.297 12.1009 156.2 12.384 156.172 12.6781C154.989 19.5249 155.26 26.5473 156.969 33.28L186.332 30.7709C186.469 29.5419 186.68 28.3223 186.961 27.1185V26.9068C187.097 26.1657 187.296 25.3823 187.496 24.5777C187.789 23.5017 188.02 22.4094 188.188 21.3063C189.394 11.7782 184.14 8.6022 183.909 8.46457C183.794 8.3977 183.708 8.291 183.665 8.16438C183.623 8.03775 183.628 7.89986 183.678 7.77643C183.994 7.04491 184.257 6.29128 184.465 5.52145L180.469 5.96609C180.38 5.97719 180.289 5.96559 180.204 5.93233C180.12 5.89906 180.046 5.84518 179.987 5.77553C179.931 5.70307 179.894 5.61809 179.877 5.5278C179.861 5.4375 179.866 5.34454 179.893 5.25678L180.91 2.2713Z" fill="#231F20"/>
<path d="M182.462 30.7392C183.29 25.5094 191.9 24.2284 191.46 30.3899C191.392 32.5276 190.583 34.5734 189.174 36.1702C188.453 36.9475 187.521 37.492 186.495 37.735C185.468 37.9781 184.393 37.9088 183.406 37.5359" fill="white"/>
<path d="M185.199 38.4464C184.507 38.4497 183.822 38.3091 183.186 38.0335C183.061 37.97 182.965 37.8605 182.917 37.7275C182.87 37.5945 182.875 37.4483 182.932 37.3192C182.989 37.19 183.092 37.0877 183.221 37.0335C183.351 36.9792 183.495 36.9772 183.626 37.0278C184.512 37.3555 185.473 37.4128 186.39 37.1925C187.308 36.9723 188.141 36.4842 188.785 35.7891C190.091 34.2769 190.832 32.3525 190.883 30.3475C191.019 28.3254 190.086 27.0444 188.324 26.8433C187.101 26.7254 185.878 27.0659 184.888 27.8001C183.897 28.5342 183.209 29.6106 182.955 30.8239C182.945 30.8952 182.921 30.9637 182.884 31.0254C182.847 31.0871 182.798 31.1407 182.741 31.1832C182.683 31.2256 182.617 31.2559 182.548 31.2724C182.479 31.2889 182.407 31.2912 182.336 31.2792C182.195 31.2557 182.068 31.177 181.984 31.0602C181.9 30.9433 181.864 30.7976 181.885 30.6545C182.178 29.1595 183.014 27.8289 184.228 26.924C185.443 26.019 186.949 25.6051 188.45 25.7634C190.285 25.9752 192.173 27.3091 191.963 30.4216C191.883 32.6903 191.018 34.8589 189.52 36.5514C188.382 37.7315 186.83 38.4123 185.199 38.4464Z" fill="#231F20"/>
<path d="M161.059 30.7393C160.23 25.5094 151.621 24.2283 152.061 30.3899C152.128 32.5277 152.938 34.5736 154.347 36.1704C155.068 36.9465 156 37.4901 157.026 37.7331C158.053 37.9761 159.127 37.9076 160.115 37.5361" fill="white"/>
<path d="M158.322 38.4464C156.697 38.4113 155.152 37.7303 154.022 36.5514C152.486 34.87 151.6 32.6868 151.526 30.4005C151.306 27.288 153.194 25.954 155.029 25.7423C156.531 25.579 158.039 25.991 159.255 26.8968C160.471 27.8025 161.305 29.1361 161.593 30.6334C161.615 30.7764 161.579 30.9221 161.495 31.039C161.41 31.1559 161.284 31.2346 161.142 31.258C161.072 31.27 161 31.2677 160.931 31.2513C160.861 31.2348 160.796 31.2044 160.738 31.162C160.68 31.1196 160.632 31.066 160.595 31.0043C160.558 30.9426 160.534 30.8741 160.524 30.8028C160.267 29.5905 159.579 28.5156 158.589 27.7818C157.599 27.0481 156.377 26.7066 155.155 26.8221C153.393 27.0233 152.46 28.3043 152.596 30.3264C152.651 32.3305 153.392 34.2535 154.693 35.768C155.338 36.463 156.171 36.9511 157.088 37.1714C158.006 37.3917 158.967 37.3344 159.853 37.0066C159.983 36.956 160.128 36.9581 160.257 37.0123C160.387 37.0665 160.49 37.1688 160.547 37.298C160.603 37.4272 160.608 37.5734 160.561 37.7064C160.514 37.8393 160.418 37.9489 160.293 38.0124C159.672 38.2896 159.001 38.4373 158.322 38.4464V38.4464Z" fill="#231F20"/>
<path d="M162.296 54.8136C162.296 54.8136 164.131 61.9597 170.916 61.9597C177.701 61.9597 180.354 55.7346 180.354 55.7346L180.155 53.1938L179.484 44.7244L178.855 36.7949H163.387L162.873 43.2846L162.716 45.4019L162.296 54.8136Z" fill="white"/>
<path d="M170.916 62.5102C163.796 62.5102 161.793 55.0253 161.772 54.9512C161.767 54.8984 161.767 54.8452 161.772 54.7924L162.191 45.3384L162.873 36.7313C162.881 36.5937 162.941 36.4644 163.04 36.3699C163.14 36.2754 163.271 36.2229 163.408 36.2232H178.886C179.023 36.2252 179.154 36.2781 179.255 36.3719C179.356 36.4657 179.418 36.5937 179.431 36.7313L180.92 55.6923C180.94 55.7758 180.94 55.8629 180.92 55.9464C180.826 56.0099 177.963 62.5102 170.916 62.5102ZM162.841 54.7501C163.062 55.5335 164.939 61.4197 170.916 61.4197C172.785 61.3842 174.607 60.8235 176.178 59.8006C177.749 58.7776 179.006 57.333 179.809 55.6288L178.372 37.3136H163.89L163.25 45.4019L162.841 54.7501Z" fill="#231F20"/>
<path d="M161.667 42.66C161.839 43.6202 162.195 44.5372 162.716 45.3596C164.011 47.2683 165.76 48.8188 167.802 49.8696C171.136 51.7222 176.118 53.8184 180.165 53.1938L179.494 44.7244C176.532 45.1011 173.537 45.1224 170.57 44.7879C167.943 44.6881 165.347 44.1811 162.873 43.2846C162.464 43.1046 162.055 42.8823 161.667 42.66Z" fill="#231F20"/>
<path d="M178.624 53.8396C174.503 53.8396 170.025 51.7223 167.55 50.3248C165.439 49.2364 163.635 47.6267 162.307 45.6455C161.752 44.7647 161.375 43.7828 161.195 42.7553C161.175 42.6556 161.185 42.5524 161.222 42.4579C161.259 42.3635 161.322 42.2818 161.404 42.2226C161.486 42.1634 161.583 42.1293 161.683 42.1243C161.784 42.1192 161.884 42.1435 161.971 42.1942C162.338 42.4059 162.726 42.5965 163.124 42.7765C165.549 43.6499 168.092 44.1426 170.664 44.2374C173.587 44.587 176.54 44.587 179.463 44.2374C179.533 44.227 179.604 44.231 179.673 44.2492C179.741 44.2674 179.805 44.2994 179.861 44.3433C179.917 44.3884 179.964 44.4445 179.998 44.5081C180.032 44.5718 180.054 44.6417 180.061 44.7138L180.721 53.1832C180.719 53.3136 180.668 53.4384 180.578 53.5325C180.489 53.6267 180.368 53.6834 180.239 53.6914C179.705 53.7837 179.165 53.8332 178.624 53.8396V53.8396ZM162.464 43.6552C162.643 44.1553 162.875 44.6344 163.156 45.0844C164.396 46.9366 166.081 48.441 168.053 49.4567C170.633 50.8965 175.488 53.1938 179.589 52.7915L179.012 45.3808C176.189 45.6946 173.34 45.6946 170.518 45.3808C167.837 45.2795 165.188 44.7617 162.663 43.8457L162.464 43.6552Z" fill="#231F20"/>
<path d="M170.675 46.7041H172.059C175.205 46.7041 178.222 45.4426 180.446 43.1971C182.67 40.9516 183.92 37.9061 183.92 34.7304V20.6288C183.919 20.0667 183.788 19.5125 183.538 19.0106C183.287 18.5087 182.923 18.0731 182.476 17.7387C182.028 17.4042 181.509 17.1802 180.961 17.0846C180.412 16.989 179.849 17.0244 179.316 17.1881L171.367 19.6443L163.46 17.1881C162.927 17.0244 162.364 16.989 161.815 17.0846C161.267 17.1802 160.748 17.4042 160.3 17.7387C159.853 18.0731 159.489 18.5087 159.238 19.0106C158.988 19.5125 158.857 20.0667 158.856 20.6288V34.7304C158.856 37.8987 160.1 40.9379 162.315 43.1822C164.531 45.4265 167.537 46.6929 170.675 46.7041V46.7041Z" fill="white"/>
<path d="M180.365 17.0293C181.308 17.0321 182.213 17.4126 182.879 18.0874C183.545 18.7621 183.92 19.676 183.92 20.6289V34.7305C183.92 37.9061 182.67 40.9516 180.446 43.1971C178.222 45.4426 175.205 46.7041 172.059 46.7041H170.675C167.529 46.7041 164.513 45.4426 162.288 43.1971C160.064 40.9516 158.815 37.9061 158.815 34.7305V20.6289C158.815 19.676 159.189 18.7621 159.855 18.0874C160.522 17.4126 161.426 17.0321 162.37 17.0293C162.725 17.0301 163.078 17.0837 163.418 17.1881L171.367 19.6443L179.316 17.1881C179.656 17.0837 180.009 17.0301 180.365 17.0293V17.0293ZM180.365 15.9707C179.902 15.972 179.443 16.0434 179.001 16.1824L171.367 18.5327L163.743 16.1824C163.298 16.0442 162.835 15.9729 162.37 15.9707C161.139 15.9735 159.96 16.4688 159.091 17.3481C158.222 18.2273 157.734 19.4186 157.734 20.6606V34.7305C157.737 38.1944 159.101 41.5157 161.528 43.9651C163.954 46.4145 167.244 47.7918 170.675 47.7946H172.059C175.49 47.7918 178.78 46.4145 181.207 43.9651C183.633 41.5157 184.997 38.1944 185 34.7305V20.6289C185 19.3868 184.512 18.1955 183.643 17.3163C182.774 16.4371 181.595 15.9417 180.365 15.9389V15.9707Z" fill="#231F20"/>
<path d="M171.556 35.0797C170.977 35.0846 170.399 35.0492 169.826 34.9738C169.674 34.9555 169.529 34.9019 169.402 34.8174C169.274 34.7329 169.168 34.6198 169.091 34.4868C168.19 32.9624 170.318 27.0762 170.99 25.2871C171.015 25.2198 171.054 25.1583 171.103 25.1063C171.152 25.0543 171.211 25.0127 171.277 24.9841C171.342 24.9555 171.413 24.9404 171.484 24.9397C171.555 24.939 171.626 24.9527 171.692 24.9801C171.824 25.0321 171.93 25.1349 171.988 25.2659C172.045 25.3969 172.048 25.5454 171.996 25.6788C170.507 29.6064 169.605 33.3858 170.025 33.9257C171.102 34.0313 172.188 34.0313 173.265 33.9257C173.408 33.9105 173.551 33.9516 173.664 34.0404C173.778 34.1292 173.853 34.2588 173.873 34.4021C173.888 34.545 173.847 34.6881 173.759 34.8008C173.671 34.9135 173.543 34.987 173.402 35.0056C172.789 35.07 172.172 35.0948 171.556 35.0797Z" fill="#231F20"/>
<path d="M172.206 42.84C170.456 42.7678 168.75 42.2664 167.235 41.379C167.171 41.3476 167.115 41.3035 167.068 41.2493C167.022 41.1951 166.986 41.1319 166.965 41.0636C166.943 40.9953 166.936 40.9233 166.943 40.8519C166.949 40.7806 166.971 40.7113 167.005 40.6485C167.072 40.5195 167.186 40.4226 167.324 40.379C167.462 40.3353 167.611 40.3485 167.739 40.4155C170.088 41.6648 172.101 42.0354 173.727 41.4742C174.688 41.1992 175.515 40.5727 176.044 39.7168C176.076 39.6528 176.12 39.5958 176.173 39.549C176.227 39.5021 176.289 39.4664 176.356 39.4438C176.423 39.4211 176.494 39.4121 176.565 39.4172C176.635 39.4223 176.704 39.4413 176.768 39.4733C176.831 39.5053 176.888 39.5495 176.934 39.6036C176.98 39.6576 177.016 39.7203 177.038 39.7881C177.061 39.856 177.07 39.9276 177.065 39.9989C177.06 40.0702 177.041 40.1399 177.009 40.2038C176.377 41.3292 175.341 42.1667 174.115 42.5435C173.498 42.7438 172.854 42.8438 172.206 42.84V42.84Z" fill="#231F20"/>
<path d="M176.857 25.999C177.25 25.9728 177.52 25.2137 177.46 24.3035C177.401 23.3934 177.034 22.6768 176.641 22.703C176.248 22.7292 175.978 23.4883 176.037 24.3984C176.097 25.3086 176.464 26.0252 176.857 25.999Z" fill="#231F20"/>
<path d="M166.276 26.765C166.669 26.7388 166.939 25.9797 166.879 25.0696C166.82 24.1594 166.453 23.4429 166.06 23.4691C165.667 23.4953 165.397 24.2544 165.456 25.1645C165.516 26.0747 165.883 26.7912 166.276 26.765Z" fill="#231F20"/>
<path d="M198.517 122.696C198.385 121.028 198.054 119.382 197.531 117.794C197.321 117.2 197.215 116.573 197.217 115.942C197.234 115.145 197.443 114.364 197.825 113.666C198.401 112.542 198.603 111.262 198.402 110.013C198.349 109.103 198.048 108.226 197.532 107.479C197.015 106.731 196.304 106.143 195.476 105.778C195.046 105.598 194.857 105.376 194.941 104.963C194.941 104.963 194.941 102.507 194.941 102.571C194.941 102.634 190.883 102.571 190.883 102.571V104.963C190.967 105.397 190.778 105.609 190.359 105.778C189.776 106.004 189.25 106.357 188.817 106.81C188.384 107.264 188.054 107.808 187.852 108.404C187.495 109.255 187.326 110.174 187.357 111.097C187.388 112.02 187.617 112.926 188.031 113.75C188.396 114.438 188.598 115.203 188.618 115.984C188.625 116.557 188.532 117.127 188.345 117.667C187.796 119.309 187.444 121.012 187.296 122.739C187.158 124.379 187.141 126.028 187.244 127.672C187.23 127.939 187.274 128.206 187.373 128.455C187.471 128.703 187.622 128.927 187.814 129.111C188.006 129.295 188.236 129.435 188.487 129.521C188.738 129.607 189.004 129.637 189.268 129.609H196.546C196.809 129.641 197.075 129.614 197.327 129.53C197.578 129.446 197.808 129.307 198 129.123C198.192 128.939 198.342 128.715 198.439 128.466C198.535 128.217 198.576 127.949 198.559 127.683C198.663 126.022 198.649 124.355 198.517 122.696V122.696Z" fill="white"/>
<path d="M192.896 130.096H189.257C188.927 130.125 188.595 130.082 188.282 129.972C187.969 129.862 187.683 129.686 187.442 129.456C187.202 129.226 187.012 128.947 186.885 128.638C186.759 128.328 186.699 127.996 186.709 127.661C186.604 125.993 186.622 124.319 186.762 122.654C186.905 120.885 187.257 119.14 187.81 117.456C187.975 116.972 188.057 116.464 188.051 115.952C188.036 115.253 187.856 114.567 187.527 113.951C187.074 113.062 186.821 112.084 186.785 111.085C186.749 110.086 186.93 109.091 187.317 108.171C187.55 107.509 187.921 106.905 188.404 106.399C188.886 105.894 189.471 105.498 190.117 105.238C190.198 105.216 190.273 105.176 190.337 105.122C190.34 105.087 190.34 105.051 190.337 105.016C190.312 104.93 190.312 104.838 190.337 104.751V102.528C190.336 102.457 190.349 102.387 190.376 102.321C190.403 102.255 190.444 102.196 190.495 102.147C190.541 102.094 190.6 102.052 190.666 102.027C190.731 102.001 190.802 101.991 190.872 101.999C192.561 101.999 194.48 101.999 194.805 101.999C194.909 101.957 195.026 101.957 195.13 101.999C195.507 102.158 195.507 102.158 195.445 104.889V105.069C195.514 105.132 195.596 105.18 195.686 105.207C196.602 105.609 197.389 106.261 197.959 107.089C198.53 107.918 198.861 108.89 198.916 109.897C199.14 111.257 198.919 112.655 198.286 113.877C197.938 114.498 197.75 115.197 197.741 115.91C197.747 116.479 197.843 117.044 198.024 117.583C198.577 119.209 198.929 120.898 199.073 122.611V122.611C199.195 124.278 199.195 125.952 199.073 127.619C199.086 127.953 199.029 128.287 198.904 128.597C198.78 128.907 198.591 129.186 198.351 129.417C198.11 129.647 197.824 129.824 197.511 129.933C197.198 130.043 196.865 130.084 196.535 130.054L192.896 130.096ZM191.397 105.037C191.407 105.307 191.325 105.572 191.165 105.788C191.004 106.004 190.775 106.158 190.516 106.223C190.004 106.425 189.542 106.737 189.162 107.137C188.781 107.538 188.492 108.017 188.314 108.542C187.978 109.323 187.819 110.17 187.846 111.021C187.873 111.872 188.086 112.706 188.471 113.464C188.87 114.229 189.089 115.077 189.111 115.942C189.121 116.573 189.018 117.2 188.806 117.794C188.281 119.4 187.946 121.063 187.81 122.749C187.67 124.362 187.653 125.983 187.758 127.598C187.74 127.798 187.767 127.999 187.837 128.187C187.908 128.375 188.019 128.545 188.163 128.683C188.307 128.822 188.481 128.925 188.67 128.987C188.86 129.048 189.06 129.065 189.257 129.038H196.535C196.731 129.068 196.931 129.052 197.121 128.992C197.31 128.932 197.483 128.829 197.626 128.691C197.77 128.553 197.881 128.384 197.95 128.196C198.019 128.009 198.044 127.808 198.024 127.608C198.141 125.987 198.141 124.36 198.024 122.738C197.895 121.114 197.575 119.511 197.07 117.964C196.837 117.312 196.719 116.624 196.724 115.931C196.743 115.048 196.977 114.182 197.406 113.411C197.929 112.385 198.106 111.214 197.909 110.077C197.876 109.251 197.614 108.452 197.152 107.771C196.691 107.089 196.048 106.553 195.298 106.223C195.008 106.141 194.761 105.951 194.605 105.691C194.449 105.432 194.397 105.123 194.459 104.826C194.459 104.222 194.459 103.534 194.459 103.079C193.924 103.079 193.022 103.079 191.428 103.079V104.942C191.422 104.975 191.411 105.007 191.397 105.037V105.037Z" fill="#FF2E2E"/>
<path d="M152.973 130.033C152.808 127.936 152.393 125.867 151.736 123.871C151.475 123.127 151.344 122.342 151.348 121.553C151.367 120.551 151.629 119.569 152.113 118.694C152.833 117.28 153.083 115.669 152.827 114.1C152.772 112.95 152.399 111.838 151.75 110.892C151.101 109.945 150.203 109.2 149.156 108.743C148.621 108.499 148.391 108.235 148.485 107.684C148.485 107.684 148.558 104.593 148.485 104.667C148.412 104.741 143.388 104.667 143.388 104.667V107.684C143.483 108.224 143.252 108.489 142.728 108.743C141.998 109.03 141.338 109.475 140.795 110.045C140.252 110.615 139.838 111.298 139.582 112.046C139.136 113.115 138.925 114.268 138.965 115.427C139.005 116.587 139.294 117.723 139.812 118.758C140.276 119.62 140.527 120.582 140.547 121.563C140.56 122.284 140.447 123.001 140.211 123.681C139.535 125.74 139.099 127.872 138.911 130.033C138.743 132.093 138.722 134.163 138.848 136.226C138.831 136.562 138.886 136.898 139.01 137.211C139.134 137.523 139.324 137.805 139.566 138.037C139.808 138.268 140.097 138.444 140.413 138.551C140.729 138.659 141.064 138.697 141.396 138.661C144.437 138.661 147.482 138.661 150.53 138.661C150.851 138.687 151.174 138.644 151.477 138.534C151.78 138.424 152.057 138.249 152.288 138.023C152.519 137.797 152.7 137.523 152.818 137.22C152.936 136.918 152.989 136.593 152.973 136.268C153.116 134.192 153.116 132.109 152.973 130.033V130.033Z" fill="white"/>
<path d="M145.895 139.19H141.333C140.939 139.22 140.542 139.166 140.17 139.032C139.798 138.897 139.457 138.686 139.171 138.41C138.884 138.135 138.658 137.802 138.506 137.433C138.355 137.064 138.282 136.668 138.292 136.268C138.164 134.18 138.185 132.086 138.355 130.001C138.542 127.793 138.986 125.615 139.676 123.511C139.934 122.776 140.036 121.995 139.974 121.218C139.913 120.441 139.69 119.686 139.32 119.001C138.764 117.901 138.454 116.691 138.41 115.456C138.367 114.222 138.591 112.993 139.068 111.855C139.346 111.038 139.798 110.292 140.392 109.67C140.986 109.048 141.708 108.565 142.508 108.256C142.896 108.097 142.885 108.023 142.854 107.822C142.827 107.728 142.827 107.629 142.854 107.536V104.709C142.857 104.57 142.913 104.437 143.011 104.339C143.059 104.286 143.117 104.244 143.182 104.217C143.248 104.189 143.318 104.177 143.389 104.18C145.549 104.18 147.982 104.18 148.349 104.18C148.458 104.143 148.576 104.143 148.684 104.18C149.083 104.349 149.083 104.349 148.999 107.695C148.999 107.959 148.999 108.044 149.355 108.224C150.488 108.716 151.461 109.518 152.165 110.54C152.87 111.561 153.277 112.761 153.34 114.004C153.62 115.683 153.348 117.409 152.564 118.917C152.118 119.716 151.877 120.614 151.862 121.532C151.864 122.253 151.988 122.969 152.229 123.649C152.897 125.686 153.32 127.798 153.487 129.938V129.938C153.649 132.026 153.666 134.124 153.54 136.215C153.558 136.619 153.491 137.022 153.341 137.396C153.191 137.771 152.963 138.108 152.673 138.386C152.382 138.663 152.035 138.874 151.656 139.004C151.278 139.133 150.875 139.179 150.478 139.137L145.895 139.19ZM143.881 107.853C143.886 108.169 143.785 108.476 143.595 108.726C143.404 108.976 143.136 109.153 142.833 109.23C142.171 109.488 141.573 109.89 141.081 110.405C140.588 110.921 140.213 111.538 139.98 112.215C139.555 113.214 139.352 114.295 139.386 115.382C139.421 116.469 139.691 117.535 140.18 118.504C140.681 119.442 140.954 120.487 140.977 121.553C140.991 122.331 140.867 123.106 140.61 123.839C139.942 125.863 139.516 127.96 139.341 130.086C139.171 132.121 139.15 134.166 139.278 136.205C139.258 136.473 139.298 136.742 139.395 136.993C139.491 137.244 139.642 137.47 139.836 137.654C140.03 137.839 140.262 137.977 140.515 138.06C140.769 138.142 141.038 138.167 141.302 138.132C144.343 138.132 147.387 138.132 150.436 138.132C150.7 138.169 150.969 138.146 151.223 138.064C151.477 137.983 151.709 137.844 151.903 137.659C152.096 137.473 152.246 137.246 152.341 136.995C152.435 136.743 152.472 136.473 152.449 136.205C152.576 134.167 152.558 132.122 152.397 130.086C152.236 128.029 151.831 126 151.191 124.041C150.908 123.242 150.766 122.4 150.771 121.553C150.792 120.463 151.076 119.394 151.6 118.44C152.264 117.137 152.496 115.652 152.26 114.206C152.22 113.146 151.883 112.119 151.289 111.244C150.696 110.37 149.869 109.682 148.905 109.261C148.569 109.165 148.282 108.945 148.1 108.645C147.918 108.345 147.853 107.987 147.919 107.642C147.919 106.816 147.919 105.853 147.919 105.291C147.279 105.291 146.094 105.291 143.839 105.291V107.684C143.862 107.738 143.876 107.795 143.881 107.853V107.853Z" fill="#FD9154"/>
<path d="M137.044 112.173H124.848V132.447H137.044V112.173Z" fill="white"/>
<path d="M137.034 132.976H124.848C124.709 132.976 124.576 132.92 124.477 132.821C124.379 132.722 124.324 132.587 124.324 132.447V112.173C124.324 112.033 124.379 111.898 124.477 111.799C124.576 111.699 124.709 111.644 124.848 111.644H137.034C137.173 111.644 137.306 111.699 137.404 111.799C137.503 111.898 137.558 112.033 137.558 112.173V132.447C137.558 132.587 137.503 132.722 137.404 132.821C137.306 132.92 137.173 132.976 137.034 132.976ZM125.372 131.917H136.509V112.702H125.372V131.917Z" fill="#C0284E"/>
<path d="M230.449 118.694H113.805C113.012 118.694 112.369 119.344 112.369 120.145V120.992C112.369 121.793 113.012 122.442 113.805 122.442H230.449C231.243 122.442 231.886 121.793 231.886 120.992V120.145C231.886 119.344 231.243 118.694 230.449 118.694Z" fill="#407B36"/>
<path d="M218.893 171.724H125.372L118.021 121.68H226.234L218.893 171.724Z" fill="#407B36"/>
<path d="M168.006 140.36C168.006 140.36 168.111 136.78 171.867 136.156C174.757 135.675 177.541 138.775 178.014 142.258C176.44 141.549 176.151 141.597 172.973 142.125C172.075 142.293 171.155 142.221 170.289 141.913C169.424 141.606 168.641 141.073 168.006 140.36Z" fill="url(#paint0_linear)"/>
<path d="M178.014 142.269C176.443 141.563 176.155 141.611 172.983 142.136C172.087 142.303 171.168 142.231 170.305 141.925C169.441 141.62 168.659 141.09 168.026 140.381C168.034 140.223 168.053 140.066 168.083 139.911C168.717 140.565 169.482 141.049 170.317 141.326C171.152 141.602 172.035 141.664 172.897 141.506C176.049 140.985 176.358 140.934 177.9 141.625C177.911 141.71 177.96 141.872 178.014 142.269Z" fill="white"/>
<path d="M166.436 143.84C166.392 143.849 166.347 143.847 166.303 143.833C166.26 143.819 166.221 143.795 166.188 143.762C166.154 143.729 166.129 143.687 166.113 143.642C166.097 143.596 166.091 143.546 166.095 143.497C166.087 143.441 166.239 142.062 167.801 140.144C169.362 138.226 172.748 137.92 175.456 139.521C175.524 139.561 175.574 139.629 175.596 139.71C175.619 139.79 175.61 139.878 175.573 139.952C175.537 140.027 175.474 140.082 175.4 140.107C175.326 140.131 175.246 140.122 175.178 140.082C172.7 138.624 169.65 138.842 168.238 140.587C166.288 142.966 166.956 143.754 166.436 143.84Z" fill="white"/>
<path d="M168.062 155.306C168.062 155.306 165.165 157.026 162.788 153.742C160.96 151.224 162.03 146.996 164.559 144.783C164.782 146.646 164.965 146.899 166.976 149.667C167.559 150.439 167.962 151.356 168.151 152.338C168.34 153.32 168.31 154.339 168.062 155.306Z" fill="url(#paint1_linear)"/>
<path d="M168.064 155.312C165.624 156.749 162.209 154.7 161.917 151.216C162.3 153.17 163.922 154.856 165.695 155.09C166.026 155.132 166.361 155.092 166.676 154.973C166.991 154.853 167.278 154.657 167.514 154.4C167.751 154.142 167.932 153.829 168.044 153.485C168.155 153.14 168.195 152.773 168.159 152.409C168.348 153.37 168.316 154.367 168.064 155.312V155.312Z" fill="white"/>
<path d="M167.984 155.648C165.643 155.121 163.74 152.053 163.657 148.66C163.654 148.574 163.683 148.491 163.737 148.428C163.791 148.366 163.865 148.329 163.943 148.326C164.021 148.324 164.097 148.355 164.154 148.414C164.211 148.473 164.244 148.554 164.246 148.64C164.327 151.747 166.016 154.548 168.103 155.017C170.19 155.486 171.253 154.997 171.264 154.992C171.333 154.961 171.411 154.961 171.481 154.992C171.55 155.023 171.606 155.082 171.637 155.157C171.668 155.232 171.672 155.317 171.648 155.395C171.623 155.473 171.572 155.537 171.506 155.575C170.646 156.011 169.035 155.883 167.984 155.648Z" fill="white"/>
<path d="M180.805 147.304C180.805 147.304 183.584 149.188 182.179 153.076C181.105 156.065 177.252 157.167 174.258 155.88C175.612 154.736 175.719 154.439 176.9 151.15C177.22 150.211 177.742 149.37 178.422 148.7C179.102 148.03 179.92 147.551 180.805 147.304V147.304Z" fill="url(#paint2_linear)"/>
<path d="M182.19 153.089C181.118 156.067 177.272 157.165 174.284 155.883C174.464 155.73 174.623 155.594 174.764 155.46C177.654 156.39 181.098 155.249 182.104 152.457C182.4 151.69 182.533 150.86 182.494 150.029C182.682 151.058 182.576 152.127 182.19 153.089Z" fill="white"/>
<path d="M177.391 154.279C179.812 152.638 181.183 149.606 180.512 147.382C179.841 145.158 178.915 144.386 178.915 144.386C178.851 144.337 178.808 144.261 178.795 144.177C178.782 144.092 178.801 144.006 178.846 143.936C178.891 143.866 178.96 143.819 179.037 143.805C179.114 143.79 179.193 143.81 179.257 143.86C179.3 143.895 180.333 144.721 181.074 147.181C181.816 149.641 180.343 153.042 177.698 154.835C177.631 154.88 177.55 154.894 177.474 154.873C177.397 154.853 177.331 154.8 177.291 154.727C177.25 154.653 177.237 154.564 177.256 154.481C177.275 154.397 177.323 154.324 177.391 154.279V154.279Z" fill="white"/>
<path d="M119.091 114.322C119.091 114.322 123.38 117.699 121.88 119.001C120.381 120.304 113.806 119.753 113.806 119.753C113.806 119.753 109.38 121.436 110.46 122.739C111.54 124.041 118.65 124.252 118.43 125.332C118.21 126.412 116.595 126.963 113.187 127.344C105.364 128.222 101.075 122.177 102.574 119.361C105.177 115.134 108.354 111.296 112.012 107.959C115.452 104.974 126.232 92.3756 127.522 91.571C128.812 90.7664 142.581 62.6479 142.581 62.6479L154.022 68.2377C154.022 68.2377 141.438 99.6911 139.047 101.639C136.656 103.587 119.091 114.322 119.091 114.322Z" fill="white"/>
<path d="M111.614 126.92C109.907 126.997 108.207 126.651 106.663 125.913C105.118 125.175 103.776 124.067 102.752 122.686C102.239 122.053 101.904 121.292 101.784 120.483C101.664 119.674 101.763 118.848 102.071 118.091C104.715 113.802 107.95 109.913 111.677 106.541C113.48 104.974 117.36 100.686 120.8 96.9068C124.491 92.8308 126.62 90.5547 127.26 90.0994C128.309 89.189 136.929 72.0066 142.12 61.3986C142.185 61.2706 142.296 61.1729 142.431 61.1256C142.566 61.0783 142.713 61.0851 142.843 61.1445L154.253 66.7344C154.375 66.7962 154.471 66.9025 154.519 67.032C154.568 67.1615 154.566 67.3047 154.515 67.4331C153.215 70.6303 141.784 99.0241 139.341 101.004C137.243 102.772 123.243 111.347 119.982 113.337C120.968 114.195 122.667 115.868 122.698 117.202C122.707 117.423 122.665 117.643 122.576 117.844C122.487 118.046 122.353 118.225 122.184 118.366C120.632 119.711 114.959 119.34 113.795 119.255C112.411 119.795 110.88 120.695 110.743 121.214C110.743 121.214 110.743 121.267 110.743 121.331C111.163 121.828 113.396 122.241 114.875 122.516C117.119 122.94 118.315 123.183 118.713 123.776C118.774 123.863 118.817 123.961 118.838 124.065C118.86 124.168 118.86 124.276 118.839 124.38C118.535 125.915 116.417 126.497 113.092 126.825C112.601 126.883 112.108 126.914 111.614 126.92ZM142.854 62.3408C139.341 69.4658 129.116 90.1841 127.805 90.9887C127.26 91.3169 124.366 94.5036 121.576 97.5949C118.126 101.396 114.235 105.704 112.358 107.314C108.738 110.605 105.59 114.389 103.004 118.557C102.798 119.138 102.747 119.764 102.855 120.371C102.964 120.979 103.228 121.547 103.623 122.019C105.06 124.136 108.3 126.253 113.061 125.745C115.085 125.512 117.402 125.152 117.822 124.327C116.841 123.978 115.83 123.722 114.802 123.564C112.327 123.099 110.659 122.749 110.041 121.997C109.92 121.853 109.835 121.682 109.791 121.498C109.747 121.314 109.747 121.123 109.789 120.939C110.146 119.573 113.04 118.409 113.617 118.186C113.696 118.165 113.779 118.165 113.858 118.186C116.301 118.387 120.559 118.409 121.524 117.562C121.568 117.527 121.603 117.481 121.627 117.43C121.651 117.378 121.662 117.322 121.66 117.265C121.66 116.386 119.951 114.671 118.766 113.729C118.695 113.676 118.638 113.605 118.601 113.524C118.565 113.442 118.549 113.353 118.556 113.263C118.561 113.175 118.587 113.089 118.633 113.013C118.679 112.938 118.742 112.874 118.818 112.829C118.986 112.723 136.394 102.094 138.743 100.189C140.379 98.8441 148.307 80.0737 153.361 67.4754L142.854 62.3408Z" fill="#231F20"/>
<path d="M158.815 53.0986C158.815 53.0986 150.362 52.9293 145.297 55.6077C140.232 58.2862 129.64 82.0746 129.64 82.0746L150.97 94.0376L158.815 53.0986Z" fill="#1CACA3"/>
<path d="M150.97 94.5036C150.883 94.5027 150.797 94.4809 150.719 94.44L129.389 82.4769C129.275 82.412 129.189 82.3065 129.149 82.1812C129.108 82.0559 129.115 81.9197 129.169 81.7994C129.599 80.8254 139.896 57.8838 145.056 55.1418C150.215 52.3998 158.479 52.5692 158.825 52.5798C158.901 52.5811 158.976 52.5988 159.045 52.6317C159.113 52.6645 159.174 52.7118 159.223 52.7703C159.271 52.8306 159.305 52.9007 159.323 52.9756C159.342 53.0506 159.343 53.1287 159.328 53.2044L151.484 94.0801C151.464 94.2015 151.401 94.3114 151.306 94.3893C151.212 94.4672 151.092 94.5078 150.97 94.5036V94.5036ZM130.322 81.7994L150.593 93.1696L158.217 53.6279C156.182 53.6279 149.681 53.9031 145.633 56.0734C141.071 58.4449 131.79 78.5492 130.322 81.7994Z" fill="#231F20"/>
<path d="M225.017 113.263C225.017 113.263 220.739 116.641 222.238 117.943C223.738 119.245 230.302 118.694 230.302 118.694C230.302 118.694 234.728 120.378 233.658 121.68C232.589 122.982 225.468 123.194 225.678 124.274C225.888 125.353 227.513 125.904 230.921 126.285C238.744 127.164 243.033 121.119 241.523 118.303C238.925 114.072 235.747 110.234 232.085 106.901C228.646 103.915 217.865 91.3169 216.575 90.5123C215.285 89.7077 201.506 61.5892 201.506 61.5892L190.107 67.179C190.107 67.179 202.691 98.6324 205.071 100.58C207.452 102.528 225.017 113.263 225.017 113.263Z" fill="white"/>
<path d="M232.505 126.92C231.968 126.919 231.433 126.887 230.9 126.825C227.576 126.454 225.458 125.915 225.153 124.379C225.132 124.276 225.133 124.168 225.154 124.065C225.176 123.961 225.218 123.862 225.279 123.776C225.678 123.183 226.863 122.94 229.117 122.516C230.596 122.241 232.83 121.828 233.239 121.33C233.291 121.267 233.291 121.246 233.239 121.214C233.102 120.695 231.571 119.795 230.187 119.255C229.075 119.34 223.402 119.711 221.798 118.366C221.632 118.223 221.501 118.044 221.414 117.842C221.327 117.64 221.286 117.421 221.294 117.202C221.294 115.868 223.014 114.195 224 113.337C220.749 111.347 206.781 102.751 204.652 101.004C202.25 99.0241 190.809 70.6197 189.52 67.3801C189.468 67.2517 189.467 67.1085 189.515 66.979C189.564 66.8495 189.659 66.7432 189.782 66.6814L201.275 61.1021C201.405 61.0427 201.553 61.0359 201.687 61.0832C201.822 61.1305 201.933 61.2282 201.999 61.3562C207.19 71.943 215.82 89.1466 216.879 90.0782C217.498 90.4593 219.616 92.7884 223.318 96.8644C226.747 100.644 230.659 104.932 232.442 106.498C236.163 109.876 239.397 113.764 242.048 118.049C242.355 118.805 242.454 119.632 242.334 120.441C242.214 121.25 241.88 122.011 241.366 122.643C240.347 124.032 239.007 125.148 237.462 125.894C235.917 126.639 234.215 126.992 232.505 126.92ZM226.213 124.327C226.632 125.152 228.95 125.512 230.974 125.745C235.745 126.285 238.975 124.168 240.412 122.019C240.807 121.547 241.073 120.98 241.183 120.372C241.294 119.765 241.244 119.139 241.041 118.557C238.451 114.388 235.299 110.604 231.676 107.314C229.831 105.704 225.919 101.396 222.469 97.5948C219.669 94.5035 216.775 91.3169 216.24 90.9887C214.95 90.1841 204.704 69.4551 201.212 62.3196L190.726 67.4436C195.791 80.0419 203.719 98.8123 205.355 100.157C207.662 102.062 225.059 112.692 225.279 112.797C225.355 112.843 225.418 112.906 225.464 112.981C225.51 113.057 225.536 113.143 225.541 113.232C225.546 113.32 225.529 113.409 225.492 113.49C225.456 113.571 225.401 113.642 225.332 113.697C224.147 114.64 222.458 116.355 222.437 117.233C222.433 117.29 222.444 117.347 222.468 117.399C222.492 117.451 222.528 117.496 222.574 117.53C223.538 118.366 227.817 118.356 230.239 118.154C230.319 118.134 230.402 118.134 230.481 118.154C231.057 118.377 233.952 119.541 234.308 120.907C234.352 121.092 234.351 121.284 234.305 121.469C234.259 121.653 234.171 121.823 234.046 121.966C233.438 122.717 231.771 123.024 229.296 123.533C228.263 123.7 227.248 123.966 226.265 124.327H226.213Z" fill="#231F20"/>
<path d="M185.304 53.0986C185.304 53.0986 193.756 52.9293 198.811 55.6077C203.865 58.2862 214.467 82.0746 214.467 82.0746L193.138 94.0376L185.304 53.0986Z" fill="#1CACA3"/>
<path d="M193.138 95.5622C193.065 95.5773 192.99 95.5773 192.917 95.5622C192.844 95.5254 192.78 95.4718 192.731 95.4056C192.682 95.3394 192.649 95.2625 192.634 95.1811L184.79 54.3054C184.775 54.2297 184.777 54.1517 184.795 54.0767C184.813 54.0017 184.847 53.9316 184.895 53.8714C184.943 53.8117 185.004 53.7637 185.073 53.7307C185.142 53.6978 185.217 53.6807 185.293 53.6808C185.64 53.6808 193.934 53.5326 199.052 56.2428C204.17 58.953 214.509 81.9264 214.95 82.9004C215.001 83.021 215.007 83.1564 214.966 83.2811C214.926 83.4058 214.842 83.5113 214.73 83.5779L193.4 95.541C193.315 95.5687 193.225 95.576 193.138 95.5622V95.5622ZM185.933 54.6866L193.515 94.2283L213.796 82.858C212.318 79.6079 203.047 59.5035 198.57 57.1321C194.469 54.9618 187.957 54.7501 185.933 54.6866Z" fill="#231F20"/>
<path d="M220.99 124.506H121.765C121.626 124.506 121.492 124.451 121.394 124.351C121.296 124.252 121.241 124.118 121.241 123.977C121.241 123.837 121.296 123.702 121.394 123.603C121.492 123.504 121.626 123.448 121.765 123.448H220.99C221.129 123.448 221.263 123.504 221.361 123.603C221.459 123.702 221.515 123.837 221.515 123.977C221.515 124.118 221.459 124.252 221.361 124.351C221.263 124.451 221.129 124.506 220.99 124.506Z" fill="#231F20"/>
<path d="M182.609 116.619H170.025C169.886 116.619 169.752 116.564 169.654 116.464C169.556 116.365 169.5 116.23 169.5 116.09C169.5 115.95 169.556 115.815 169.654 115.716C169.752 115.616 169.886 115.561 170.025 115.561H182.609C182.748 115.561 182.881 115.616 182.98 115.716C183.078 115.815 183.133 115.95 183.133 116.09C183.13 116.23 183.074 116.363 182.977 116.461C182.879 116.56 182.747 116.617 182.609 116.619V116.619Z" fill="#257E2E"/>
<path d="M150.394 116.577C150.264 116.575 150.139 116.526 150.043 116.438C149.946 116.351 149.885 116.231 149.869 116.101C149.824 115.201 149.584 114.322 149.165 113.526C148.747 112.73 148.16 112.037 147.447 111.495C147.389 111.459 147.34 111.411 147.301 111.355C147.262 111.299 147.234 111.235 147.219 111.168C147.205 111.102 147.203 111.032 147.216 110.965C147.228 110.897 147.253 110.833 147.29 110.775C147.324 110.716 147.37 110.664 147.425 110.622C147.48 110.581 147.542 110.551 147.609 110.534C147.675 110.517 147.744 110.514 147.812 110.525C147.879 110.535 147.944 110.559 148.003 110.595C148.852 111.223 149.554 112.033 150.058 112.966C150.562 113.899 150.856 114.934 150.918 115.995C150.925 116.064 150.919 116.135 150.899 116.202C150.879 116.269 150.846 116.331 150.802 116.385C150.758 116.439 150.704 116.484 150.643 116.517C150.582 116.55 150.515 116.57 150.446 116.577H150.394Z" fill="#FD9154"/>
<path d="M134.978 117.678H126.054C125.915 117.678 125.782 117.622 125.683 117.523C125.585 117.424 125.53 117.289 125.53 117.149C125.53 117.008 125.585 116.874 125.683 116.774C125.782 116.675 125.915 116.619 126.054 116.619H134.978C135.117 116.619 135.251 116.675 135.349 116.774C135.447 116.874 135.502 117.008 135.502 117.149C135.502 117.289 135.447 117.424 135.349 117.523C135.251 117.622 135.117 117.678 134.978 117.678Z" fill="#C0284E"/>
<path d="M190.107 114.618C190.021 114.62 189.936 114.6 189.86 114.562C189.783 114.523 189.717 114.466 189.666 114.396C189.591 114.278 189.564 114.136 189.589 113.998C189.615 113.861 189.691 113.738 189.803 113.655C189.97 113.539 190.117 113.443 195.266 113.56C195.336 113.561 195.405 113.577 195.469 113.605C195.532 113.634 195.59 113.675 195.638 113.726C195.686 113.777 195.723 113.838 195.747 113.904C195.772 113.97 195.783 114.04 195.78 114.11C195.772 114.248 195.712 114.377 195.613 114.472C195.513 114.566 195.382 114.619 195.245 114.618C193.075 114.566 190.652 114.555 190.264 114.618C190.212 114.629 190.159 114.629 190.107 114.618V114.618Z" fill="#FF2E2E"/>
<path d="M315.057 162.904C317.093 161.23 318.397 160.109 318.244 159.971C318.091 159.832 316.564 160.726 314.242 162.23C313.153 163.042 311.839 163.977 310.485 165.066C309.415 166.017 308.204 166.992 307.073 168.081C307.074 167.537 307.02 166.993 306.91 166.456C306.644 165.506 306.201 164.594 305.597 163.749C304.884 162.734 303.968 161.994 303.56 162.165C303.153 162.335 303.448 163.294 303.672 164.318C303.896 165.342 304.141 166.448 304.232 166.862C304.324 167.276 304.68 168.398 304.904 169.454C304.955 169.649 305.006 169.844 305.047 170.031C303.876 171.234 302.786 172.469 301.768 173.721C301.739 173.448 301.688 173.176 301.615 172.908C301.312 172.096 300.818 171.338 300.159 170.673C299.385 169.861 298.418 169.397 298.122 169.625C297.827 169.853 298.122 170.616 298.408 171.437C298.693 172.258 298.927 173.12 299.029 173.445C299.131 173.77 299.477 174.639 299.691 175.493C299.762 175.72 299.813 175.948 299.874 176.159C299.65 176.451 299.406 176.76 299.192 177.053C298.55 178.02 297.929 178.914 297.389 179.751C297.045 178.906 296.495 178.125 295.77 177.451C294.925 176.638 293.886 176.167 293.571 176.411C293.255 176.655 293.693 177.427 294.039 178.272C294.385 179.117 294.691 180.011 294.803 180.352C295.1 181.057 295.351 181.773 295.556 182.498C295.556 182.579 295.617 182.668 295.638 182.75L295.22 183.481C294.165 185.556 293.241 187.671 292.451 189.82C292.307 189.602 292.144 189.393 291.962 189.194C291.341 188.487 290.526 188.04 290.17 188.243C289.813 188.447 289.986 189.137 290.119 189.869C290.282 190.746 290.404 191.38 290.445 191.6C290.485 191.819 290.77 192.607 290.954 193.331C291.015 193.55 291.076 193.761 291.137 193.956C291.005 194.412 290.872 194.875 290.77 195.346C290.404 197.085 289.976 198.865 289.803 200.62C289.392 203.714 289.31 206.829 289.559 209.934C289.864 212.372 290.19 213.932 290.404 213.916C290.618 213.899 290.699 212.29 290.74 209.909C290.857 206.87 291.197 203.839 291.758 200.832C292.033 199.125 292.542 197.41 292.98 195.728C293.153 195.086 293.377 194.468 293.581 193.859C294.116 193.607 294.675 193.387 295.251 193.201C295.843 192.946 296.463 192.736 297.104 192.575C297.898 192.347 298.764 192.307 298.927 191.973C299.09 191.64 298.234 191.096 297.043 190.958C296.214 190.857 295.368 190.91 294.569 191.112C294.569 191.063 294.569 191.015 294.569 190.966C295.719 188.016 296.962 185.627 297.624 184.334L298.041 183.57L298.581 183.343C299.276 183.073 300.007 182.866 300.76 182.725C301.508 182.523 302.284 182.392 303.071 182.335C304.09 182.238 305.006 182.4 305.261 182.091C305.515 181.783 304.69 181.059 303.367 180.734C302.277 180.462 301.115 180.434 300.006 180.653L299.63 180.767C300.139 179.954 300.729 179.036 301.32 178.061C301.687 177.532 302.084 176.98 302.481 176.435L302.776 176.362C303.571 176.181 304.381 176.042 305.2 175.948C306.017 175.785 306.847 175.668 307.684 175.598C308.703 175.493 309.721 175.541 309.925 175.208C310.128 174.875 309.181 174.282 307.888 173.997C306.834 173.749 305.724 173.694 304.64 173.835C304.536 173.851 304.434 173.872 304.334 173.9C305.251 172.705 306.248 171.527 307.297 170.389C308.132 170.259 308.988 170.21 309.334 170.178C310.041 170.063 310.754 169.979 311.472 169.926C312.358 169.844 313.254 169.877 313.448 169.552C313.641 169.227 312.888 168.65 311.798 168.333C311.065 168.117 310.289 168.01 309.507 168.016C310.22 167.301 310.943 166.618 311.595 165.944C312.918 164.806 314.1 163.798 315.057 162.904Z" fill="#B7E6CA"/>
<path d="M268.307 179.58C268.623 178.573 269.091 177.565 269.254 177.183C269.542 176.357 269.882 175.543 270.272 174.745C270.741 173.77 271.291 172.908 270.995 172.656C270.7 172.404 269.529 172.965 268.562 173.892C268.105 174.309 267.706 174.764 267.37 175.249C267.004 173.68 266.637 172.307 266.352 171.234C266.739 171.072 266.678 169.942 266.607 168.747C266.528 167.76 266.528 166.769 266.607 165.781C266.631 164.864 266.809 163.954 267.136 163.075C267.513 162.018 268.307 161.173 268.053 160.889C267.798 160.604 266.322 161.141 265.334 162.352C264.746 163.056 264.328 163.841 264.102 164.668C264.041 164.505 263.979 164.343 263.908 164.18C263.957 163.468 263.906 162.754 263.755 162.051C263.597 161.103 263.542 160.146 263.592 159.19C263.576 158.317 263.748 157.449 264.102 156.622C264.509 155.623 265.405 154.899 265.212 154.582C265.11 154.436 264.692 154.428 264.122 154.623C263.419 154.905 262.812 155.318 262.35 155.826C261.746 156.477 261.319 157.221 261.098 158.012C260.677 157.194 260.239 156.381 259.784 155.574C259.713 155.26 259.676 154.942 259.672 154.623C259.642 153.989 259.724 153.354 259.916 152.738C260.033 152.127 260.248 151.532 260.558 150.966C260.904 150.251 261.576 149.682 261.362 149.341C261.149 148.999 259.947 149.186 258.959 149.966C258.282 150.475 257.765 151.104 257.452 151.803C256.821 150.869 256.169 149.966 255.579 149.113C254.56 147.78 253.542 146.618 252.717 145.619C250.884 143.701 249.662 142.531 249.459 142.636C249.255 142.742 250.202 144.091 251.729 146.123C252.401 147.179 253.277 148.39 254.143 149.747C254.805 150.885 255.568 152.088 256.261 153.355C256.073 153.295 255.879 153.249 255.68 153.217C254.67 153.079 253.631 153.163 252.676 153.461C251.526 153.802 250.823 154.485 251.067 154.777C251.312 155.07 252.177 154.964 253.104 155.038C253.792 155.084 254.474 155.179 255.141 155.322C255.855 155.409 256.557 155.551 257.238 155.745L257.615 155.858C258.155 156.915 258.633 157.979 259.132 159.044C258.261 158.724 257.311 158.563 256.352 158.573C255.638 158.577 254.936 158.728 254.316 159.012C253.837 159.255 253.644 159.515 253.735 159.67C253.949 159.979 255.059 159.857 256.128 160.174C257.018 160.421 257.85 160.784 258.593 161.246C259.311 161.648 259.991 162.091 260.629 162.571C260.762 162.896 260.904 163.237 261.026 163.554C261.505 164.814 261.912 165.992 262.259 167.033C261.591 166.765 260.877 166.579 260.14 166.48C258.735 166.261 257.493 166.48 257.483 166.854C257.473 167.228 258.501 167.52 259.519 168C260.323 168.389 261.086 168.829 261.8 169.316C262.065 169.487 262.696 169.844 263.338 170.3V170.397C263.664 171.551 264.275 173.526 264.906 175.948C264.207 175.445 263.413 175.034 262.554 174.729C261.159 174.208 259.774 174.184 259.662 174.517C259.55 174.85 260.558 175.379 261.474 176.086C262.218 176.65 262.899 177.265 263.511 177.922C264.216 178.555 264.846 179.238 265.395 179.962C265.639 180.271 265.843 180.58 266.036 180.856C266.525 183.058 267.055 185.366 267.411 187.626C268.715 194.574 269.59 200.872 270.059 200.84C270.527 200.807 270.283 194.476 269.417 187.431C269.213 184.814 268.776 182.1 268.307 179.58Z" fill="#B7E6CA"/>
<path d="M274.355 229.511C274.355 229.511 264.305 167.87 271.107 148.601C271.107 148.601 285.913 185.115 284.08 229.503L274.355 229.511Z" fill="#E7F4ED"/>
<path d="M270.302 197.516C274.707 207.876 277.584 218.611 278.876 229.503V229.503C282.206 212.437 269.895 193.054 269.895 193.046C270.017 194.55 270.16 196.037 270.302 197.516Z" fill="#E7F4ED"/>
<path d="M282.319 229.503H284.081C284.243 225.439 284.274 221.425 284.182 217.508C283.066 221.447 282.442 225.465 282.319 229.503V229.503Z" fill="#E7F4ED"/>
<path d="M294.284 229.511C294.284 229.511 297.827 216.638 321.574 211.274C321.574 211.274 316.859 224.887 306.188 229.503L294.284 229.511Z" fill="#E7F4ED"/>
<path d="M266.576 229.503C266.576 229.503 257.554 213.42 231.7 211.274C231.7 211.274 236.923 225.837 255.426 229.511L266.576 229.503Z" fill="#E7F4ED"/>
<path d="M294.284 229.503H296.829C302.766 226.406 306.809 216.695 306.839 216.638C296.249 222.465 294.294 229.454 294.284 229.503Z" fill="#E7F4ED"/>
<path d="M284.121 229.511C284.121 229.511 280.241 199.385 315.434 176.63C315.434 176.63 315.953 206.025 294.284 229.494L284.121 229.511Z" fill="#DBF1E4" fill-opacity="0.6"/>
<path d="M242.87 213.265C243.002 213.347 260.781 224.716 266.576 229.519C261.552 221.892 253.074 216.08 242.87 213.265V213.265Z" fill="#E7F4ED"/>
<path d="M264.224 229.511C264.224 229.511 247.778 199.661 249.438 168.04C249.438 168.04 273.287 185.667 278.877 229.511H264.224Z" fill="#E7F4ED"/>
<path d="M267.349 191.258L267.909 194.915C267.909 194.915 277.41 215.338 277.41 224.277C277.41 233.217 279.569 203.448 267.349 191.258Z" fill="#C4E4D1"/>
<path d="M238.797 212.274C249.405 214.442 258.683 219.582 264.936 226.756C257.675 220.443 248.746 215.497 238.797 212.274Z" fill="#C4E4D1"/>
<path d="M292.705 198.776C287.142 205.575 284.187 213.523 284.202 221.644C286.249 213.849 289.093 206.2 292.705 198.776V198.776Z" fill="#C4E4D1"/>
<path d="M319.12 210.827C309.433 213.299 300.862 217.973 294.457 224.277C302.205 219.266 310.454 214.767 319.12 210.827V210.827Z" fill="#C4E4D1"/>
<path d="M50.6361 229.511C50.6361 229.511 40.5754 167.87 47.3878 148.601C47.3878 148.601 62.1938 185.115 60.3507 229.503L50.6361 229.511Z" fill="#E7F4ED"/>
<path d="M46.5733 197.516C50.9818 207.876 53.8626 218.61 55.1576 229.503V229.503C58.4772 212.437 46.1762 193.054 46.166 193.046C46.2984 194.55 46.4308 196.037 46.5733 197.516Z" fill="#E7F4ED"/>
<path d="M58.5891 226.252H60.3508C60.5239 222.189 60.5443 218.174 60.4628 214.257C59.3409 218.196 58.7133 222.214 58.5891 226.252Z" fill="#E7F4ED"/>
<path d="M69.564 229.26C69.564 229.26 73.0975 216.387 96.8543 211.024C96.8543 211.024 92.1396 224.636 81.4678 229.252L69.564 229.26Z" fill="#E7F4ED"/>
<path d="M42.8664 229.503C42.8664 229.503 33.8545 213.42 8 211.274C8 211.274 13.2137 225.837 31.7161 229.511L42.8664 229.503Z" fill="#E7F4ED"/>
<path d="M70.564 229.503H73.1097C79.0362 226.406 83.089 216.695 83.1094 216.638C72.5293 222.465 70.5742 229.454 70.564 229.503Z" fill="#E7F4ED"/>
<path d="M60.4018 229.511C60.4018 229.511 56.5221 199.385 91.745 176.63C91.745 176.63 92.2745 206.025 70.6052 229.494L60.4018 229.511Z" fill="#E7F4ED"/>
<path d="M19.1506 213.265C19.283 213.347 37.0522 224.716 42.8463 229.519C37.8281 221.891 29.3536 216.079 19.1506 213.265V213.265Z" fill="#E7F4ED"/>
<path d="M40.4941 229.511C40.4941 229.511 24.0486 199.661 25.7186 168.04C25.7186 168.04 49.5569 185.667 55.1575 229.511H40.4941Z" fill="#E7F4ED"/>
<path d="M43.6203 191.258L44.1905 194.915C44.1905 194.915 53.6912 215.338 53.6912 224.277C53.6912 233.217 55.8398 203.448 43.6203 191.258Z" fill="#C4E4D1"/>
<path d="M15.067 212.274C25.6786 214.44 34.9601 219.581 41.2168 226.756C33.9523 220.442 25.0204 215.495 15.067 212.274V212.274Z" fill="#C4E4D1"/>
<path d="M68.9861 198.776C63.4335 205.578 60.4858 213.525 60.5037 221.644C62.5471 213.85 65.3839 206.202 68.9861 198.776Z" fill="#C4E4D1"/>
<path d="M95.4001 211.827C85.7115 214.3 77.137 218.974 70.7268 225.277C78.4798 220.266 86.7316 215.768 95.4001 211.827V211.827Z" fill="#C4E4D1"/>
<defs>
<linearGradient id="paint0_linear" x1="173.246" y1="143.051" x2="172.094" y2="136.118" gradientUnits="userSpaceOnUse">
<stop stop-color="white"/>
<stop offset="1" stop-color="white"/>
</linearGradient>
<linearGradient id="paint1_linear" x1="312.465" y1="751.187" x2="249.012" y2="369.527" gradientUnits="userSpaceOnUse">
<stop stop-color="white"/>
<stop offset="1" stop-color="white"/>
</linearGradient>
<linearGradient id="paint2_linear" x1="666.295" y1="604.854" x2="629.872" y2="385.929" gradientUnits="userSpaceOnUse">
<stop stop-color="white"/>
<stop offset="1" stop-color="white"/>
</linearGradient>
</defs>
</svg>
