<svg width="154" height="262" viewBox="0 0 154 262" fill="none" xmlns="http://www.w3.org/2000/svg">
<path d="M139.593 222.71C139.507 222.71 139.421 222.689 139.344 222.648C139.268 222.608 139.202 222.549 139.153 222.477C136.651 218.701 133.335 215.546 129.454 213.25C125.572 210.953 121.225 209.573 116.74 209.214C112.255 208.856 107.747 209.528 103.556 211.179C99.3645 212.831 95.598 215.419 92.5392 218.75C92.472 218.822 92.3866 218.874 92.2923 218.9C92.198 218.926 92.0984 218.925 92.0044 218.898C91.9114 218.871 91.8278 218.817 91.763 218.744C91.6982 218.672 91.6547 218.582 91.6374 218.486C91.0543 215.993 89.9349 213.661 88.3586 211.655C86.7823 209.648 84.7879 208.017 82.5168 206.876C80.2457 205.735 77.7537 205.113 75.2177 205.054C72.6817 204.994 70.1639 205.5 67.843 206.533C67.7763 206.568 67.7031 206.587 67.6283 206.591C67.5534 206.594 67.4787 206.582 67.4092 206.553C67.3396 206.525 67.2768 206.483 67.225 206.428C67.1732 206.373 67.1337 206.308 67.1089 206.237C63.9629 196.656 55.6574 189.647 46.8066 189.202C44.3071 189.132 41.8199 189.582 39.4998 190.523C37.1798 191.465 35.0764 192.878 33.3207 194.676C31.7863 196.132 30.5752 197.901 29.7672 199.864C28.9592 201.828 28.5727 203.942 28.6331 206.067C28.6367 206.178 28.6064 206.287 28.5464 206.38C28.4864 206.473 28.3995 206.545 28.2976 206.586C28.1967 206.627 28.0856 206.635 27.98 206.608C27.8745 206.582 27.7801 206.522 27.7103 206.438C25.9579 204.362 23.5258 202.99 20.8561 202.57C18.1865 202.151 15.4564 202.713 13.1623 204.154C10.8681 205.594 9.16214 207.818 8.35444 210.421C7.54674 213.024 7.69093 215.833 8.76081 218.337C8.79764 218.402 8.8206 218.473 8.82821 218.547C8.83582 218.621 8.82789 218.696 8.80495 218.767C8.78201 218.837 8.74457 218.902 8.69507 218.958C8.64557 219.013 8.58512 219.057 8.51767 219.087C8.45022 219.116 8.37727 219.132 8.30359 219.131C8.22991 219.131 8.15715 219.115 8.09005 219.084C8.02295 219.053 7.96301 219.009 7.91416 218.953C7.86531 218.897 7.82863 218.832 7.80652 218.761C6.67484 216.132 6.4773 213.189 7.24731 210.43C8.01733 207.671 9.70763 205.265 12.0324 203.619C14.3571 201.973 17.1736 201.188 20.0055 201.397C22.8374 201.606 25.511 202.795 27.574 204.765C27.8328 200.648 29.6188 196.781 32.5761 193.935C34.4355 192.031 36.6632 190.535 39.1205 189.538C41.5778 188.542 44.2121 188.067 46.8591 188.144C55.9511 188.61 64.5292 195.639 67.9059 205.326C70.2881 204.361 72.8433 203.909 75.4085 203.998C77.9736 204.086 80.4923 204.714 82.8036 205.841C85.1148 206.968 87.1679 208.569 88.8316 210.542C90.4953 212.515 91.733 214.817 92.4658 217.3C95.6809 214.017 99.5792 211.496 103.878 209.922C108.177 208.348 112.77 207.759 117.322 208.197C121.875 208.636 126.273 210.092 130.2 212.459C134.126 214.826 137.482 218.046 140.023 221.884C140.099 222.001 140.126 222.143 140.099 222.28C140.071 222.417 139.991 222.537 139.876 222.614C139.794 222.676 139.695 222.709 139.593 222.71Z" fill="#07B839" fill-opacity="0.12"/>
<path d="M153.338 230.491H0.299761C0.220263 230.491 0.144022 230.435 0.0878084 230.336C0.0315953 230.237 1.52588e-05 230.102 1.52588e-05 229.962C1.52588e-05 229.821 0.0315953 229.687 0.0878084 229.587C0.144022 229.488 0.220263 229.432 0.299761 229.432H153.338C153.417 229.432 153.493 229.488 153.55 229.587C153.606 229.687 153.638 229.821 153.638 229.962C153.638 230.102 153.606 230.237 153.55 230.336C153.493 230.435 153.417 230.491 153.338 230.491Z" fill="#C6E9C3"/>
<path d="M65.5674 245.482C65.5674 245.482 65.7981 250.278 65.5674 253.676C65.3367 257.074 63.9419 259.181 59.8836 260.346C55.8252 261.51 49.5647 258.355 48.8726 254.968C48.1804 251.58 55.1646 241.385 55.1646 241.385L65.5674 245.482Z" fill="white"/>
<path d="M58.0169 261.193C55.8521 261.142 53.7392 260.514 51.8927 259.372C51.0536 258.938 50.3082 258.34 49.6998 257.613C49.0913 256.886 48.6319 256.045 48.3482 255.137C47.6246 251.612 53.9586 242.2 54.6926 241.141C54.7619 241.041 54.8624 240.966 54.9783 240.93C55.0941 240.893 55.2187 240.897 55.3323 240.94L65.819 245.037C65.9167 245.075 66.0009 245.142 66.0607 245.229C66.1205 245.316 66.1532 245.419 66.1546 245.524C66.1546 245.524 66.3853 250.394 66.1546 253.782C65.8924 257.646 64.0572 259.785 60.0828 260.939C59.4096 261.122 58.714 261.207 58.0169 261.193ZM55.3428 242.137C53.3084 245.175 48.8935 252.448 49.4073 254.936C49.6603 255.698 50.0602 256.402 50.584 257.007C51.1078 257.612 51.745 258.106 52.459 258.461C54.6285 259.864 57.2571 260.351 59.7787 259.816C63.3546 258.758 64.8333 257.053 65.022 253.634C65.2213 250.839 65.0849 247.028 65.022 245.863L55.3428 242.137Z" fill="#231F20"/>
<path d="M102.869 245.482C102.869 245.482 102.638 250.278 102.869 253.676C103.099 257.074 104.494 259.181 108.552 260.346C112.611 261.51 118.871 258.355 119.564 254.968C120.256 251.58 113.271 241.385 113.271 241.385L102.869 245.482Z" fill="white"/>
<path d="M110.419 261.193C109.739 261.199 109.061 261.11 108.406 260.928C104.41 259.774 102.596 257.636 102.334 253.771C102.103 250.384 102.334 245.556 102.334 245.514C102.337 245.407 102.372 245.304 102.434 245.217C102.495 245.131 102.581 245.064 102.68 245.027L113.104 240.93C113.219 240.886 113.345 240.882 113.463 240.918C113.58 240.954 113.683 241.029 113.754 241.131C114.477 242.189 120.811 251.601 120.098 255.126C119.81 256.033 119.348 256.874 118.738 257.601C118.128 258.327 117.382 258.926 116.543 259.361C114.698 260.507 112.585 261.139 110.419 261.193ZM103.393 245.916C103.393 247.081 103.225 250.892 103.393 253.687C103.624 257.106 105.102 258.842 108.636 259.869C111.159 260.367 113.774 259.85 115.925 258.43C117.362 257.706 118.458 256.439 118.976 254.904C119.48 252.416 115.075 245.143 113.041 242.105L103.393 245.916Z" fill="#231F20"/>
<path d="M50.3406 241.618C50.3406 241.618 58.73 249.579 67.5074 243.492L86.74 156.457L101.369 244.127C101.369 244.127 109.496 250.86 119.196 242.433L112.904 138.111L52.9098 140.037L50.3406 241.618Z" fill="#35338A"/>
<path d="M109.15 247.176C106.254 247.168 103.433 246.242 101.086 244.529C100.988 244.448 100.922 244.336 100.897 244.211L86.7086 159.199L68.0632 243.608C68.0332 243.739 67.9543 243.852 67.843 243.926C58.8034 250.182 50.1099 242.094 50.0155 242.009C49.9614 241.958 49.9185 241.895 49.8896 241.826C49.8607 241.757 49.8464 241.682 49.8477 241.607L52.396 139.974C52.4013 139.839 52.4575 139.711 52.553 139.617C52.6485 139.522 52.7762 139.468 52.9099 139.466L112.904 137.539C113.039 137.538 113.169 137.59 113.268 137.682C113.368 137.774 113.429 137.901 113.439 138.036L119.731 242.359C119.736 242.44 119.722 242.521 119.691 242.596C119.66 242.672 119.613 242.739 119.553 242.793C115.757 246.149 112.149 247.176 109.15 247.176ZM101.893 243.83C103.036 244.698 110.146 249.462 118.672 242.2L112.38 138.651L53.4866 140.503L50.9488 241.353C52.1758 242.412 59.4221 248.309 67.1298 243.132L86.3101 156.32C86.3432 156.204 86.4117 156.102 86.5059 156.028C86.6001 155.953 86.715 155.911 86.8344 155.907C86.9565 155.91 87.0735 155.957 87.1654 156.038C87.2573 156.119 87.3183 156.23 87.3378 156.352L101.893 243.83Z" fill="#231F20"/>
<path d="M96.3039 53.0985C96.3039 53.0985 79.3574 52.1139 69.8145 53.0985C63.2812 58.9848 52.9308 140.037 52.9308 140.037L109.003 142.313C109.003 142.313 108.552 66.1626 96.3039 53.0985Z" fill="#1CACA3"/>
<path d="M109.003 142.843L52.9308 140.556C52.8589 140.554 52.7882 140.538 52.7231 140.507C52.6581 140.476 52.6003 140.431 52.5533 140.376C52.5066 140.319 52.4722 140.253 52.4523 140.182C52.4325 140.111 52.4276 140.036 52.4379 139.963C52.8574 136.65 62.9247 58.6566 69.4893 52.7068C69.5705 52.6327 69.6738 52.588 69.783 52.5798C79.221 51.6058 96.178 52.5798 96.3563 52.5798C96.4878 52.585 96.612 52.642 96.7024 52.7386C101.862 58.2437 105.595 74.9709 107.787 102.56C109.412 123.014 109.549 142.123 109.549 142.313C109.55 142.385 109.536 142.455 109.509 142.521C109.482 142.586 109.442 142.645 109.391 142.695C109.286 142.794 109.147 142.847 109.003 142.843ZM53.4866 139.529L108.448 141.763C108.374 134.871 107.325 66.205 96.0312 53.6173C94.0702 53.5114 78.8645 52.728 70.0137 53.6173C65.022 58.8366 57.1045 111.622 53.4866 139.529Z" fill="#231F20"/>
<path d="M77.4069 115.264C76.4736 113.337 73.2961 114.333 73.2961 111.876V95.7528H73.8728V93.032H68.1681V95.7528H68.7343V111.919C68.7343 114.375 65.5883 113.38 64.6235 115.307C63.6588 117.233 64.2985 131.346 64.2985 131.346H77.7529C77.7529 131.346 78.3297 117.212 77.4069 115.264Z" fill="white"/>
<path d="M77.7319 131.833H64.2775C64.1419 131.833 64.0117 131.78 63.9139 131.685C63.8162 131.59 63.7585 131.461 63.7531 131.324C63.6902 129.863 63.1763 117.011 64.1306 115.031C64.3922 114.591 64.7452 114.214 65.1652 113.925C65.5852 113.637 66.0623 113.443 66.5636 113.359C67.6122 113.009 68.189 112.798 68.189 111.876V96.2821C68.05 96.2821 67.9166 96.2263 67.8182 96.1271C67.7199 96.0278 67.6647 95.8932 67.6647 95.7528V93.0425C67.6647 92.9021 67.7199 92.7675 67.8182 92.6682C67.9166 92.569 68.05 92.5132 68.189 92.5132H73.9148C74.0538 92.5132 74.1872 92.569 74.2855 92.6682C74.3839 92.7675 74.4391 92.9021 74.4391 93.0425V95.7528C74.4391 95.8932 74.3839 96.0278 74.2855 96.1271C74.1872 96.2263 74.0538 96.2821 73.9148 96.2821H73.8623V111.919C73.8623 112.84 74.3867 113.052 75.4878 113.401C75.9886 113.487 76.4651 113.681 76.885 113.969C77.3048 114.258 77.6581 114.635 77.9207 115.074C78.875 117.053 78.3611 129.895 78.2982 131.367C78.2824 131.504 78.2144 131.629 78.1087 131.716C78.0029 131.803 77.8678 131.845 77.7319 131.833ZM64.7808 130.774H77.2286C77.4488 125.142 77.5537 116.778 76.935 115.497C76.6203 114.841 75.8863 114.608 75.1312 114.364C74.0826 114.036 72.7717 113.623 72.7717 111.876V95.7528C72.7717 95.6124 72.827 95.4777 72.9253 95.3785C73.0236 95.2792 73.157 95.2234 73.2961 95.2234H73.3485V93.5719H68.6714V95.2234C68.8105 95.2234 68.9438 95.2792 69.0422 95.3785C69.1405 95.4777 69.1957 95.6124 69.1957 95.7528V111.919C69.1957 113.666 67.8849 114.036 66.8362 114.407C66.0707 114.65 65.3471 114.883 65.0325 115.54C64.4557 116.778 64.5501 125.142 64.7808 130.774Z" fill="#A7A7A7"/>
<path d="M96.199 111.612C94.9301 109.981 90.6096 110.828 90.6096 108.743V99.1087H84.3176V108.743C84.3176 110.86 79.9971 109.981 78.7387 111.612C77.4803 113.242 78.2877 125.226 78.2877 125.226H96.587C96.587 125.226 97.4574 113.242 96.199 111.612Z" fill="white"/>
<path d="M96.6395 125.756H78.3402C78.2081 125.756 78.0807 125.706 77.9835 125.616C77.8863 125.526 77.8264 125.402 77.8159 125.269C77.6795 123.236 77.0608 112.999 78.3717 111.294C79.247 110.473 80.3772 109.982 81.5701 109.907C82.9858 109.632 83.8457 109.41 83.8457 108.743V99.1087C83.8457 98.9683 83.901 98.8337 83.9993 98.7344C84.0976 98.6351 84.231 98.5794 84.3701 98.5794H90.6621C90.8012 98.5794 90.9345 98.6351 91.0329 98.7344C91.1312 98.8337 91.1864 98.9683 91.1864 99.1087V108.743C91.1864 109.41 92.0463 109.632 93.4725 109.907C94.6477 109.992 95.7584 110.481 96.6186 111.294C97.9399 112.999 97.3107 123.236 97.1744 125.269C97.1637 125.404 97.1023 125.529 97.0029 125.62C96.9034 125.71 96.7734 125.759 96.6395 125.756ZM78.8121 124.697H96.1257C96.4193 120.113 96.5556 112.977 95.7586 111.993C95.0221 111.406 94.126 111.059 93.1894 110.998C91.7317 110.712 90.0434 110.384 90.0434 108.796V99.691H84.8V108.743C84.8 110.331 83.1431 110.659 81.654 110.945C80.7178 111.008 79.8223 111.354 79.0848 111.94C78.4031 112.977 78.5394 120.113 78.8331 124.697H78.8121Z" fill="#257E2E"/>
<path d="M121.881 117.371C121.105 115.762 118.452 116.588 118.452 114.544V105.069H114.624V114.544C114.624 116.588 111.971 115.762 111.195 117.371C110.419 118.98 110.922 130.753 110.922 130.753H122.154C122.154 130.753 122.699 118.97 121.881 117.371Z" fill="white"/>
<path d="M122.154 131.282H110.922C110.787 131.282 110.657 131.229 110.559 131.134C110.461 131.04 110.403 130.91 110.398 130.774C110.346 129.556 109.916 118.811 110.723 117.138C110.949 116.759 111.254 116.433 111.616 116.183C111.977 115.932 112.388 115.764 112.82 115.688C113.775 115.391 114.11 115.222 114.11 114.544V105.069C114.11 104.929 114.166 104.794 114.264 104.695C114.362 104.595 114.496 104.54 114.635 104.54H118.504C118.643 104.54 118.777 104.595 118.875 104.695C118.973 104.794 119.029 104.929 119.029 105.069V114.544C119.029 115.222 119.364 115.391 120.318 115.688C120.751 115.764 121.161 115.932 121.523 116.183C121.885 116.433 122.189 116.759 122.416 117.138C123.223 118.811 122.793 129.556 122.741 130.774C122.738 130.847 122.721 130.919 122.69 130.985C122.658 131.052 122.613 131.111 122.558 131.158C122.503 131.206 122.438 131.242 122.369 131.263C122.299 131.284 122.226 131.291 122.154 131.282ZM111.426 130.223H121.65C121.829 125.681 121.912 118.641 121.409 117.593C121.157 117.085 120.602 116.905 119.951 116.704C119.102 116.429 117.927 116.058 117.927 114.587V105.567H115.148V114.512C115.148 116.026 113.974 116.397 113.125 116.63C112.474 116.831 111.919 117.011 111.667 117.519C111.164 118.641 111.247 125.681 111.426 130.223Z" fill="#A02394"/>
<path d="M97.9713 31.236C97.6357 31.236 98.5166 27.2448 98.5586 27.0013C98.9046 25.2227 99.6073 23.1583 99.796 21.3585C101.075 11.3011 95.2553 7.97682 95.2553 7.97682C95.6882 6.98793 96.0015 5.95001 96.1886 4.88547L91.48 5.41481L92.7699 1.37065L68.168 10.8035C67.7499 10.9255 67.3704 11.1554 67.0669 11.4705C66.8535 11.7868 66.717 12.1495 66.6684 12.5291C65.4494 19.6093 65.7606 26.8718 67.5808 33.8192L97.9713 31.236Z" fill="black"/>
<path d="M67.5493 34.381C67.4276 34.3796 67.3099 34.3372 67.2149 34.2604C67.1199 34.1837 67.053 34.0771 67.0249 33.9576C65.1681 26.9266 64.8425 19.573 66.0706 12.4029C66.1324 11.931 66.305 11.4809 66.574 11.0901C66.9411 10.6974 67.404 10.409 67.9163 10.2537L92.5496 0.799741C92.6447 0.761747 92.7486 0.752065 92.8489 0.771844C92.9493 0.791624 93.0419 0.840036 93.1159 0.911342C93.1898 0.982647 93.242 1.07386 93.2661 1.17416C93.2903 1.27447 93.2855 1.37967 93.2522 1.47729L92.2036 4.71685L96.0732 4.27221C96.151 4.26684 96.2291 4.27719 96.3029 4.30264C96.3767 4.32808 96.4448 4.36812 96.5031 4.42042C96.5603 4.47641 96.6048 4.54415 96.6338 4.61904C96.6627 4.69392 96.6754 4.77422 96.6709 4.85448C96.5271 5.83772 96.2593 6.79834 95.8739 7.71291C97.2267 8.69748 101.4 12.5087 100.278 21.3699C100.106 22.5191 99.8677 23.6573 99.5652 24.7788C99.366 25.5516 99.1772 26.3139 99.0409 27.0444V27.2667C98.7449 28.4634 98.5381 29.6807 98.4222 30.9086C98.4668 30.9782 98.4921 31.0586 98.4956 31.1415C98.5043 31.2127 98.4986 31.285 98.4788 31.3539C98.459 31.4228 98.4255 31.4869 98.3804 31.5424C98.3353 31.5978 98.2795 31.6434 98.2163 31.6764C98.1532 31.7094 98.0841 31.7291 98.0132 31.7343L67.6017 34.3387L67.5493 34.381ZM91.9099 2.2713L68.3358 11.3442C68.0054 11.4382 67.7029 11.6127 67.4549 11.8523C67.2966 12.1009 67.1996 12.384 67.1718 12.6781C65.9886 19.5249 66.2602 26.5473 67.9687 33.28L97.3316 30.7709C97.4694 29.5419 97.6795 28.3223 97.9608 27.1185V26.9068C98.0971 26.1657 98.2963 25.3823 98.4956 24.5777C98.7889 23.5017 99.02 22.4094 99.1877 21.3063C100.394 11.7782 95.1398 8.6022 94.9091 8.46457C94.7945 8.3977 94.7078 8.291 94.6654 8.16438C94.6229 8.03775 94.6276 7.89986 94.6784 7.77643C94.9941 7.04491 95.257 6.29128 95.4649 5.52145L91.4695 5.96609C91.3797 5.97719 91.2887 5.96559 91.2045 5.93233C91.1203 5.89906 91.0455 5.84518 90.9871 5.77553C90.9313 5.70307 90.8935 5.61809 90.8771 5.5278C90.8607 5.4375 90.866 5.34454 90.8927 5.25678L91.9099 2.2713Z" fill="#231F20"/>
<path d="M93.4621 30.7392C94.2905 25.5094 102.9 24.2284 102.46 30.3899C102.392 32.5276 101.583 34.5734 100.174 36.1702C99.4533 36.9475 98.5211 37.492 97.4946 37.735C96.4682 37.9781 95.3934 37.9088 94.4059 37.5359" fill="white"/>
<path d="M96.1991 38.4464C95.507 38.4497 94.8216 38.3091 94.1856 38.0335C94.0607 37.97 93.9646 37.8605 93.9174 37.7275C93.8702 37.5945 93.8755 37.4483 93.932 37.3192C93.9886 37.19 94.0922 37.0877 94.2214 37.0335C94.3506 36.9792 94.4954 36.9772 94.6261 37.0278C95.5115 37.3555 96.473 37.4128 97.3905 37.1925C98.308 36.9723 99.141 36.4842 99.7855 35.7891C101.091 34.2769 101.832 32.3525 101.883 30.3475C102.019 28.3254 101.086 27.0444 99.3241 26.8433C98.1011 26.7254 96.8779 27.0659 95.8877 27.8001C94.8975 28.5342 94.2095 29.6106 93.9549 30.8239C93.9447 30.8952 93.9205 30.9637 93.8837 31.0254C93.8469 31.0871 93.7982 31.1407 93.7406 31.1832C93.6829 31.2256 93.6175 31.2559 93.548 31.2724C93.4786 31.2889 93.4066 31.2912 93.3362 31.2792C93.1949 31.2557 93.0683 31.177 92.9839 31.0602C92.8995 30.9433 92.8641 30.7976 92.8853 30.6545C93.178 29.1595 94.0136 27.8289 95.2282 26.924C96.4428 26.019 97.9486 25.6051 99.45 25.7634C101.285 25.9752 103.173 27.3091 102.963 30.4216C102.883 32.6903 102.018 34.8589 100.52 36.5514C99.382 37.7315 97.8299 38.4123 96.1991 38.4464Z" fill="#231F20"/>
<path d="M72.0586 30.7393C71.2301 25.5094 62.6205 24.2283 63.061 30.3899C63.1285 32.5277 63.9376 34.5736 65.3471 36.1704C66.0682 36.9465 67.0003 37.4901 68.0265 37.7331C69.0527 37.9761 70.1271 37.9076 71.1148 37.5361" fill="white"/>
<path d="M69.3216 38.4464C67.6971 38.4113 66.1519 37.7303 65.0221 36.5514C63.4857 34.87 62.5998 32.6868 62.5262 30.4005C62.306 27.288 64.1936 25.954 66.0288 25.7423C67.531 25.579 69.0392 25.991 70.2549 26.8968C71.4706 27.8025 72.3052 29.1361 72.5934 30.6334C72.6146 30.7764 72.5792 30.9221 72.4948 31.039C72.4104 31.1559 72.2839 31.2346 72.1425 31.258C72.0722 31.27 72.0002 31.2677 71.9307 31.2513C71.8613 31.2348 71.7958 31.2044 71.7381 31.162C71.6805 31.1196 71.6318 31.066 71.595 31.0043C71.5582 30.9426 71.534 30.8741 71.5238 30.8028C71.2671 29.5905 70.5786 28.5156 69.5889 27.7818C68.5992 27.0481 67.3772 26.7066 66.1546 26.8221C64.3929 27.0233 63.4595 28.3043 63.5959 30.3264C63.6508 32.3305 64.3919 34.2535 65.6932 35.768C66.3377 36.463 67.1707 36.9511 68.0882 37.1714C69.0057 37.3917 69.9672 37.3344 70.8527 37.0066C70.9833 36.956 71.1282 36.9581 71.2574 37.0123C71.3865 37.0665 71.4901 37.1688 71.5467 37.298C71.6033 37.4272 71.6085 37.5734 71.5613 37.7064C71.5141 37.8393 71.4181 37.9489 71.2931 38.0124C70.6716 38.2896 70.001 38.4373 69.3216 38.4464Z" fill="#231F20"/>
<path d="M73.2961 54.8136C73.2961 54.8136 75.1312 61.9597 81.9161 61.9597C88.701 61.9597 91.3542 55.7346 91.3542 55.7346L91.1549 53.1938L90.4838 44.7244L89.8546 36.7949H74.3867L73.8728 43.2846L73.7155 45.4019L73.2961 54.8136Z" fill="white"/>
<path d="M81.9161 62.5102C74.7957 62.5102 72.7927 55.0253 72.7717 54.9512C72.7666 54.8984 72.7666 54.8452 72.7717 54.7924L73.1912 45.3384L73.8728 36.7313C73.8809 36.5937 73.9407 36.4644 74.0402 36.3699C74.1396 36.2754 74.2711 36.2229 74.4076 36.2232H89.8861C90.023 36.2252 90.1544 36.2781 90.255 36.3719C90.3557 36.4657 90.4185 36.5937 90.4314 36.7313L91.9205 55.6923C91.9405 55.7758 91.9405 55.8629 91.9205 55.9464C91.8261 56.0099 88.9632 62.5102 81.9161 62.5102ZM73.8414 54.7501C74.0616 55.5335 75.9387 61.4197 81.9161 61.4197C83.7851 61.3842 85.6072 60.8235 87.178 59.8006C88.7488 58.7776 90.0062 57.333 90.8089 55.6288L89.3722 37.3136H74.89L74.2504 45.4019L73.8414 54.7501Z" fill="#231F20"/>
<path d="M72.6669 42.66C72.839 43.6202 73.1952 44.5372 73.7155 45.3596C75.011 47.2683 76.7597 48.8188 78.8016 49.8696C82.1364 51.7222 87.1176 53.8184 91.1654 53.1938L90.4943 44.7244C87.5325 45.1011 84.5369 45.1224 81.5701 44.7879C78.9432 44.6881 76.3471 44.1811 73.8729 43.2846C73.4639 43.1046 73.0549 42.8823 72.6669 42.66Z" fill="#231F20"/>
<path d="M89.6239 53.8396C85.5026 53.8396 81.0248 51.7223 78.5499 50.3248C76.4392 49.2364 74.6355 47.6267 73.3065 45.6455C72.7525 44.7647 72.3748 43.7828 72.1949 42.7553C72.1755 42.6556 72.1849 42.5524 72.222 42.4579C72.259 42.3635 72.3223 42.2818 72.4041 42.2226C72.4859 42.1634 72.5829 42.1293 72.6834 42.1243C72.7839 42.1192 72.8837 42.1435 72.971 42.1942C73.338 42.4059 73.726 42.5965 74.1245 42.7765C76.549 43.6499 79.0919 44.1426 81.6645 44.2374C84.587 44.587 87.5403 44.587 90.4628 44.2374C90.5329 44.227 90.6043 44.231 90.6728 44.2492C90.7413 44.2674 90.8054 44.2994 90.8613 44.3433C90.9174 44.3884 90.964 44.4445 90.9982 44.5081C91.0325 44.5718 91.0537 44.6417 91.0606 44.7138L91.7212 53.1832C91.7188 53.3136 91.6679 53.4384 91.5785 53.5325C91.4891 53.6267 91.3678 53.6834 91.2388 53.6914C90.7052 53.7837 90.1652 53.8332 89.6239 53.8396ZM73.4638 43.6552C73.6431 44.1553 73.8751 44.6344 74.156 45.0844C75.3957 46.9366 77.0807 48.441 79.0533 49.4567C81.633 50.8965 86.4884 53.1938 90.5887 52.7915L90.0119 45.3808C87.189 45.6946 84.3405 45.6946 81.5176 45.3808C78.8369 45.2795 76.1876 44.7617 73.6631 43.8457L73.4638 43.6552Z" fill="#231F20"/>
<path d="M81.675 46.7041H83.0592C86.2048 46.7041 89.2216 45.4426 91.4459 43.1971C93.6701 40.9516 94.9197 37.9061 94.9197 34.7304V20.6288C94.9193 20.0667 94.7885 19.5125 94.5377 19.0106C94.287 18.5087 93.9232 18.0731 93.4757 17.7387C93.0282 17.4042 92.5093 17.1802 91.9607 17.0846C91.412 16.989 90.8487 17.0244 90.316 17.1881L82.3671 19.6443L74.4601 17.1881C73.9274 17.0244 73.3642 16.989 72.8155 17.0846C72.2668 17.1802 71.7479 17.4042 71.3004 17.7387C70.8529 18.0731 70.4892 18.5087 70.2385 19.0106C69.9877 19.5125 69.8569 20.0667 69.8564 20.6288V34.7304C69.8564 37.8987 71.1002 40.9379 73.3155 43.1822C75.5307 45.4265 78.5367 46.6929 81.675 46.7041Z" fill="white"/>
<path d="M91.3647 17.0293C92.3085 17.0321 93.2127 17.4126 93.8791 18.0874C94.5455 18.7621 94.9197 19.676 94.9197 20.6289V34.7305C94.9197 37.9061 93.6701 40.9516 91.4458 43.1971C89.2216 45.4426 86.2048 46.7041 83.0592 46.7041H81.675C78.5294 46.7041 75.5126 45.4426 73.2884 43.1971C71.0641 40.9516 69.8145 37.9061 69.8145 34.7305V20.6289C69.8145 19.676 70.1887 18.7621 70.8551 18.0874C71.5215 17.4126 72.4257 17.0321 73.3695 17.0293C73.7249 17.0301 74.0782 17.0837 74.4182 17.1881L82.3671 19.6443L90.316 17.1881C90.656 17.0837 91.0093 17.0301 91.3647 17.0293ZM91.3647 15.9707C90.9023 15.972 90.4428 16.0434 90.0014 16.1824L82.3671 18.5327L74.7433 16.1824C74.2981 16.0442 73.8352 15.9729 73.3695 15.9707C72.1392 15.9735 70.9603 16.4688 70.0913 17.3481C69.2224 18.2273 68.7344 19.4186 68.7344 20.6606V34.7305C68.7372 38.1944 70.1014 41.5157 72.5277 43.9651C74.9539 46.4145 78.2438 47.7918 81.675 47.7946H83.0592C86.4904 47.7918 89.7803 46.4145 92.2065 43.9651C94.6328 41.5157 95.997 38.1944 95.9998 34.7305V20.6289C95.9998 19.3868 95.5118 18.1955 94.6429 17.3163C93.7739 16.4371 92.595 15.9417 91.3647 15.9389V15.9707Z" fill="#231F20"/>
<path d="M82.5559 35.0797C81.9774 35.0846 81.3993 35.0492 80.8256 34.9738C80.6743 34.9555 80.5292 34.9019 80.4018 34.8174C80.2745 34.7329 80.1682 34.6198 80.0915 34.4868C79.1896 32.9624 81.3184 27.0762 81.9896 25.2871C82.015 25.2198 82.0536 25.1583 82.1029 25.1063C82.1522 25.0543 82.2113 25.0127 82.2768 24.9841C82.3423 24.9555 82.4128 24.9404 82.4841 24.9397C82.5555 24.939 82.6262 24.9527 82.6922 24.9801C82.8243 25.0321 82.9305 25.1349 82.9875 25.2659C83.0445 25.3969 83.0477 25.5454 82.9963 25.6788C81.5072 29.6064 80.6053 33.3858 81.0248 33.9257C82.1024 34.0313 83.1876 34.0313 84.2652 33.9257C84.4079 33.9105 84.5509 33.9516 84.6643 34.0404C84.7776 34.1292 84.8526 34.2588 84.8734 34.4021C84.8883 34.545 84.8473 34.6881 84.7591 34.8008C84.671 34.9135 84.5426 34.987 84.4015 35.0056C83.7885 35.07 83.172 35.0948 82.5559 35.0797Z" fill="#231F20"/>
<path d="M83.2061 42.84C81.4562 42.7678 79.7501 42.2664 78.2354 41.379C78.1715 41.3476 78.1146 41.3035 78.0681 41.2493C78.0216 41.1951 77.9865 41.1319 77.9649 41.0636C77.9434 40.9953 77.9358 40.9233 77.9426 40.8519C77.9494 40.7806 77.9705 40.7113 78.0047 40.6485C78.0717 40.5195 78.1865 40.4226 78.3241 40.379C78.4616 40.3353 78.6107 40.3485 78.7387 40.4155C81.0878 41.6648 83.1012 42.0354 84.7266 41.4742C85.6884 41.1992 86.5145 40.5727 87.0442 39.7168C87.0759 39.6528 87.1197 39.5958 87.1732 39.549C87.2267 39.5021 87.2888 39.4664 87.356 39.4438C87.4232 39.4211 87.4942 39.4121 87.5648 39.4172C87.6355 39.4223 87.7044 39.4413 87.7678 39.4733C87.8311 39.5053 87.8876 39.5495 87.934 39.6036C87.9804 39.6576 88.0158 39.7203 88.0382 39.7881C88.0606 39.856 88.0696 39.9276 88.0646 39.9989C88.0595 40.0702 88.0406 40.1399 88.009 40.2038C87.3767 41.3292 86.3407 42.1667 85.1146 42.5435C84.498 42.7438 83.8538 42.8438 83.2061 42.84Z" fill="#231F20"/>
<path d="M87.8567 25.999C88.2497 25.9728 88.52 25.2137 88.4604 24.3035C88.4008 23.3934 88.034 22.6768 87.641 22.703C87.248 22.7292 86.9777 23.4883 87.0373 24.3984C87.0969 25.3086 87.4637 26.0252 87.8567 25.999Z" fill="#231F20"/>
<path d="M77.2757 26.765C77.6687 26.7388 77.939 25.9797 77.8794 25.0696C77.8199 24.1594 77.453 23.4429 77.06 23.4691C76.6671 23.4953 76.3968 24.2544 76.4563 25.1645C76.5159 26.0747 76.8828 26.7912 77.2757 26.765Z" fill="#231F20"/>
<path d="M109.517 122.696C109.385 121.028 109.054 119.382 108.531 117.794C108.321 117.2 108.215 116.573 108.217 115.942C108.234 115.145 108.443 114.364 108.825 113.666C109.401 112.542 109.603 111.262 109.402 110.013C109.349 109.103 109.048 108.226 108.532 107.479C108.015 106.731 107.304 106.143 106.476 105.778C106.046 105.598 105.857 105.376 105.941 104.963C105.941 104.963 105.941 102.507 105.941 102.571C105.941 102.634 101.883 102.571 101.883 102.571V104.963C101.967 105.397 101.778 105.609 101.359 105.778C100.776 106.004 100.25 106.357 99.8167 106.81C99.3837 107.264 99.0545 107.808 98.8522 108.404C98.495 109.255 98.3259 110.174 98.3567 111.097C98.3875 112.02 98.6174 112.926 99.0305 113.75C99.3965 114.438 99.5976 115.203 99.6178 115.984C99.6246 116.557 99.5323 117.127 99.3451 117.667C98.7963 119.309 98.4442 121.012 98.2964 122.739C98.1582 124.379 98.1407 126.028 98.244 127.672C98.2304 127.939 98.2744 128.206 98.3728 128.455C98.4712 128.703 98.6217 128.927 98.8141 129.111C99.0064 129.295 99.236 129.435 99.4869 129.521C99.7379 129.607 100.004 129.637 100.268 129.609H107.546C107.809 129.641 108.075 129.614 108.327 129.53C108.578 129.446 108.808 129.307 109 129.123C109.192 128.939 109.342 128.715 109.439 128.466C109.535 128.217 109.576 127.949 109.559 127.683C109.663 126.022 109.649 124.355 109.517 122.696Z" fill="white"/>
<path d="M103.896 130.096H100.257C99.9272 130.125 99.5948 130.082 99.282 129.972C98.9691 129.862 98.683 129.686 98.4423 129.456C98.2016 129.226 98.0119 128.947 97.8855 128.638C97.7591 128.328 97.699 127.996 97.7091 127.661C97.6042 125.993 97.6217 124.319 97.7615 122.654C97.9049 120.885 98.257 119.14 98.8102 117.456C98.9752 116.972 99.0568 116.464 99.0514 115.952C99.0362 115.253 98.8564 114.567 98.5271 113.951C98.0745 113.062 97.8211 112.084 97.7849 111.085C97.7487 110.086 97.9304 109.091 98.3173 108.171C98.5503 107.509 98.9207 106.905 99.4035 106.399C99.8864 105.894 100.471 105.498 101.117 105.238C101.198 105.216 101.273 105.176 101.338 105.122C101.34 105.087 101.34 105.051 101.338 105.016C101.312 104.93 101.312 104.838 101.338 104.751V102.528C101.336 102.457 101.349 102.387 101.376 102.321C101.403 102.255 101.444 102.196 101.495 102.147C101.541 102.094 101.6 102.052 101.666 102.027C101.731 102.001 101.802 101.991 101.872 101.999C103.561 101.999 105.48 101.999 105.805 101.999C105.909 101.957 106.026 101.957 106.13 101.999C106.507 102.158 106.507 102.158 106.445 104.889V105.069C106.514 105.132 106.596 105.18 106.686 105.207C107.602 105.609 108.389 106.261 108.959 107.089C109.53 107.918 109.861 108.89 109.916 109.897C110.14 111.257 109.919 112.655 109.286 113.877C108.938 114.498 108.751 115.197 108.741 115.91C108.747 116.479 108.843 117.044 109.024 117.583C109.577 119.209 109.929 120.898 110.073 122.611C110.195 124.278 110.195 125.952 110.073 127.619C110.086 127.953 110.029 128.287 109.904 128.597C109.78 128.907 109.591 129.186 109.351 129.417C109.11 129.647 108.824 129.824 108.511 129.933C108.198 130.043 107.865 130.084 107.535 130.054L103.896 130.096ZM102.397 105.037C102.407 105.307 102.325 105.572 102.165 105.788C102.004 106.004 101.775 106.158 101.516 106.223C101.004 106.425 100.542 106.737 100.162 107.137C99.7814 107.538 99.492 108.017 99.3136 108.542C98.9783 109.323 98.8186 110.17 98.8458 111.021C98.8729 111.872 99.0864 112.706 99.4709 113.464C99.8704 114.229 100.089 115.077 100.111 115.942C100.121 116.573 100.018 117.2 99.8065 117.794C99.2807 119.4 98.9463 121.063 98.8102 122.749C98.6704 124.362 98.6528 125.983 98.7578 127.598C98.7401 127.798 98.7673 127.999 98.8375 128.187C98.9077 128.375 99.0191 128.545 99.1633 128.683C99.3074 128.822 99.4807 128.925 99.6702 128.987C99.8596 129.048 100.06 129.065 100.257 129.038H107.535C107.731 129.068 107.931 129.052 108.121 128.992C108.31 128.932 108.483 128.829 108.626 128.691C108.77 128.553 108.881 128.384 108.95 128.196C109.019 128.009 109.044 127.808 109.024 127.608C109.141 125.987 109.141 124.36 109.024 122.738C108.895 121.114 108.575 119.511 108.07 117.964C107.837 117.312 107.719 116.624 107.724 115.931C107.743 115.048 107.977 114.182 108.406 113.411C108.929 112.385 109.106 111.214 108.909 110.077C108.876 109.251 108.614 108.452 108.152 107.771C107.691 107.089 107.048 106.553 106.298 106.223C106.008 106.141 105.761 105.951 105.605 105.691C105.449 105.432 105.397 105.123 105.459 104.826C105.459 104.222 105.459 103.534 105.459 103.079C104.924 103.079 104.022 103.079 102.428 103.079V104.942C102.422 104.975 102.411 105.007 102.397 105.037Z" fill="#FF2E2E"/>
<path d="M63.9734 130.033C63.8083 127.936 63.3928 125.867 62.7359 123.871C62.475 123.127 62.3437 122.342 62.3479 121.553C62.3666 120.551 62.6295 119.569 63.1135 118.694C63.8334 117.28 64.0834 115.669 63.8266 114.1C63.7716 112.95 63.3986 111.838 62.7499 110.892C62.1011 109.945 61.2026 109.2 60.1562 108.743C59.6214 108.499 59.3907 108.235 59.4851 107.684C59.4851 107.684 59.5585 104.593 59.4851 104.667C59.4116 104.741 54.3885 104.667 54.3885 104.667V107.684C54.4829 108.224 54.2522 108.489 53.7278 108.743C52.9978 109.03 52.3384 109.475 51.7952 110.045C51.252 110.615 50.838 111.298 50.5818 112.046C50.1356 113.115 49.9252 114.268 49.965 115.427C50.0048 116.587 50.294 117.723 50.8125 118.758C51.2757 119.62 51.5274 120.582 51.5466 121.563C51.5604 122.284 51.4468 123.001 51.211 123.681C50.535 125.74 50.0986 127.872 49.9107 130.033C49.7427 132.093 49.7217 134.163 49.8477 136.226C49.8307 136.562 49.8861 136.898 50.0101 137.211C50.134 137.523 50.3237 137.805 50.5659 138.037C50.8081 138.268 51.0971 138.444 51.4131 138.551C51.729 138.659 52.0644 138.697 52.396 138.661C55.4372 138.661 58.4818 138.661 61.53 138.661C61.8511 138.687 62.174 138.644 62.4772 138.534C62.7804 138.424 63.0568 138.249 63.2881 138.023C63.5193 137.797 63.7001 137.523 63.8183 137.22C63.9364 136.918 63.9893 136.593 63.9734 136.268C64.1165 134.192 64.1165 132.109 63.9734 130.033Z" fill="white"/>
<path d="M56.8949 139.19H52.3332C51.9387 139.22 51.5425 139.166 51.17 139.032C50.7975 138.897 50.4571 138.686 50.1706 138.41C49.884 138.135 49.6578 137.802 49.5065 137.433C49.3552 137.064 49.2821 136.668 49.292 136.268C49.1642 134.18 49.1853 132.086 49.3549 130.001C49.5424 127.793 49.9858 125.615 50.6763 123.511C50.9341 122.776 51.0356 121.995 50.9741 121.218C50.9127 120.441 50.6897 119.686 50.3197 119.001C49.7641 117.901 49.4537 116.691 49.4102 115.456C49.3667 114.222 49.5913 112.993 50.068 111.855C50.3457 111.038 50.7976 110.292 51.3919 109.67C51.9862 109.048 52.7085 108.565 53.5077 108.256C53.8957 108.097 53.8852 108.023 53.8537 107.822C53.8267 107.728 53.8267 107.629 53.8537 107.536V104.709C53.8568 104.57 53.9132 104.437 54.0111 104.339C54.0586 104.286 54.1171 104.244 54.1823 104.217C54.2476 104.189 54.318 104.177 54.3886 104.18C56.5488 104.18 58.9818 104.18 59.3488 104.18C59.4576 104.143 59.5755 104.143 59.6844 104.18C60.0829 104.349 60.0829 104.349 59.999 107.695C59.999 107.959 59.999 108.044 60.3555 108.224C61.4878 108.716 62.4611 109.518 63.1653 110.54C63.8695 111.561 64.2766 112.761 64.3405 114.004C64.6204 115.683 64.3478 117.409 63.5645 118.917C63.1181 119.716 62.8766 120.614 62.8618 121.532C62.8642 122.253 62.9883 122.969 63.2289 123.649C63.8973 125.686 64.3198 127.798 64.4873 129.938C64.6488 132.026 64.6663 134.124 64.5397 136.215C64.5584 136.619 64.4907 137.022 64.3411 137.396C64.1914 137.771 63.9634 138.108 63.6727 138.386C63.382 138.663 63.0353 138.874 62.6565 139.004C62.2777 139.133 61.8755 139.179 61.4776 139.137L56.8949 139.19ZM54.8815 107.853C54.886 108.169 54.7849 108.476 54.5945 108.726C54.4042 108.976 54.1357 109.153 53.8328 109.23C53.1712 109.488 52.5733 109.89 52.0807 110.405C51.5881 110.921 51.2126 111.538 50.9804 112.215C50.5546 113.214 50.3517 114.295 50.3861 115.382C50.4206 116.469 50.6915 117.535 51.1796 118.504C51.681 119.442 51.9542 120.487 51.9766 121.553C51.9909 122.331 51.8666 123.106 51.6096 123.839C50.9417 125.863 50.5157 127.96 50.3407 130.086C50.1709 132.121 50.1499 134.166 50.2778 136.205C50.2583 136.473 50.2983 136.742 50.3949 136.993C50.4914 137.244 50.6421 137.47 50.8359 137.654C51.0298 137.839 51.2619 137.977 51.5155 138.06C51.769 138.142 52.0376 138.167 52.3017 138.132C55.3429 138.132 58.3875 138.132 61.4357 138.132C61.6997 138.169 61.9687 138.146 62.2228 138.064C62.4768 137.983 62.7092 137.844 62.9028 137.659C63.0963 137.473 63.2459 137.246 63.3405 136.995C63.4351 136.743 63.4722 136.473 63.4491 136.205C63.5757 134.167 63.5582 132.122 63.3967 130.086C63.2364 128.029 62.8315 126 62.1907 124.041C61.9083 123.242 61.7664 122.4 61.7712 121.553C61.7916 120.463 62.076 119.394 62.5997 118.44C63.2645 117.137 63.4961 115.652 63.2603 114.206C63.2199 113.146 62.8833 112.119 62.2895 111.244C61.6957 110.37 60.8689 109.682 59.9046 109.261C59.5695 109.165 59.2825 108.945 59.1001 108.645C58.9176 108.345 58.853 107.987 58.9188 107.642C58.9188 106.816 58.9188 105.853 58.9188 105.291C58.2791 105.291 57.0941 105.291 54.8395 105.291V107.684C54.8615 107.738 54.8757 107.795 54.8815 107.853Z" fill="#FD9154"/>
<path d="M48.0441 112.173H35.8481V132.447H48.0441V112.173Z" fill="white"/>
<path d="M48.0336 132.976H35.848C35.7089 132.976 35.5756 132.92 35.4772 132.821C35.3789 132.722 35.3237 132.587 35.3237 132.447V112.173C35.3237 112.033 35.3789 111.898 35.4772 111.799C35.5756 111.699 35.7089 111.644 35.848 111.644H48.0336C48.1727 111.644 48.306 111.699 48.4044 111.799C48.5027 111.898 48.5579 112.033 48.5579 112.173V132.447C48.5579 132.587 48.5027 132.722 48.4044 132.821C48.306 132.92 48.1727 132.976 48.0336 132.976ZM36.3723 131.917H47.5093V112.702H36.3723V131.917Z" fill="#C0284E"/>
<path d="M141.449 118.694H24.8054C24.012 118.694 23.3687 119.344 23.3687 120.145V120.992C23.3687 121.793 24.012 122.442 24.8054 122.442H141.449C142.243 122.442 142.886 121.793 142.886 120.992V120.145C142.886 119.344 142.243 118.694 141.449 118.694Z" fill="#407B36"/>
<path d="M129.893 171.724H36.3723L29.0211 121.68H137.234L129.893 171.724Z" fill="#407B36"/>
<path d="M30.0908 114.322C30.0908 114.322 34.3799 117.699 32.8803 119.001C31.3807 120.304 24.8055 119.753 24.8055 119.753C24.8055 119.753 20.3801 121.436 21.4603 122.739C22.5404 124.041 29.6504 124.252 29.4302 125.332C29.2099 126.412 27.595 126.963 24.1868 127.344C16.3637 128.222 12.0747 122.177 13.5743 119.361C16.1768 115.134 19.3537 111.296 23.0123 107.959C26.4519 104.974 37.2323 92.3756 38.5222 91.571C39.812 90.7664 53.5811 62.6479 53.5811 62.6479L65.0221 68.2377C65.0221 68.2377 52.438 99.6911 50.0471 101.639C47.6561 103.587 30.0908 114.322 30.0908 114.322Z" fill="white"/>
<path d="M22.6137 126.92C20.9067 126.997 19.2071 126.651 17.6627 125.913C16.1183 125.175 14.776 124.067 13.7524 122.686C13.2386 122.053 12.9039 121.292 12.7839 120.483C12.6639 119.674 12.763 118.848 13.0708 118.091C15.7154 113.802 18.9496 109.913 22.6766 106.541C24.4804 104.974 28.3604 100.686 31.8001 96.9068C35.4914 92.8308 37.6202 90.5547 38.2599 90.0994C39.3086 89.189 47.9287 72.0066 53.1196 61.3986C53.1849 61.2706 53.2964 61.1729 53.4311 61.1256C53.5658 61.0783 53.7133 61.0851 53.8432 61.1445L65.2527 66.7344C65.3755 66.7962 65.4706 66.9025 65.5192 67.032C65.5678 67.1615 65.5662 67.3047 65.5149 67.4331C64.2145 70.6303 52.784 99.0241 50.3406 101.004C48.2433 102.772 34.2435 111.347 30.9821 113.337C31.9679 114.195 33.6667 115.868 33.6982 117.202C33.7068 117.423 33.665 117.643 33.5759 117.844C33.4868 118.046 33.3528 118.225 33.1843 118.366C31.6323 119.711 25.959 119.34 24.795 119.256C23.4107 119.795 21.8797 120.695 21.7433 121.214C21.7433 121.214 21.7433 121.267 21.7433 121.331C22.1628 121.828 24.3965 122.241 25.8751 122.516C28.1192 122.94 29.3147 123.183 29.7132 123.776C29.7741 123.863 29.8167 123.961 29.8384 124.065C29.86 124.168 29.8602 124.276 29.8391 124.38C29.5349 125.915 27.4166 126.497 24.0923 126.825C23.6014 126.883 23.1079 126.914 22.6137 126.92ZM53.8536 62.3408C50.3406 69.4658 40.116 90.1841 38.8052 90.9887C38.2599 91.3169 35.3656 94.5036 32.5761 97.5949C29.126 101.396 25.2354 105.704 23.3583 107.314C19.7385 110.605 16.5902 114.389 14.0041 118.557C13.798 119.138 13.7466 119.764 13.8552 120.371C13.9638 120.979 14.2285 121.547 14.6228 122.019C16.0595 124.136 19.2999 126.253 24.0609 125.745C26.0848 125.512 28.4024 125.152 28.8219 124.327C27.841 123.978 26.8298 123.722 25.8017 123.564C23.3268 123.099 21.6594 122.749 21.0407 121.997C20.9203 121.853 20.8348 121.682 20.7911 121.498C20.7474 121.314 20.7467 121.123 20.789 120.939C21.1456 119.573 24.0399 118.409 24.6167 118.186C24.6957 118.165 24.7788 118.165 24.8579 118.186C27.3013 118.387 31.5589 118.409 32.5237 117.562C32.5679 117.527 32.6034 117.481 32.6271 117.43C32.6508 117.378 32.662 117.322 32.66 117.265C32.66 116.386 30.9507 114.671 29.7657 113.729C29.6945 113.676 29.638 113.605 29.6013 113.524C29.5647 113.442 29.549 113.353 29.5559 113.263C29.561 113.175 29.5875 113.089 29.6332 113.013C29.679 112.938 29.7424 112.874 29.8181 112.829C29.9859 112.723 47.3938 102.094 49.7429 100.189C51.3788 98.8441 59.3067 80.0737 64.3613 67.4754L53.8536 62.3408Z" fill="#231F20"/>
<path d="M69.8145 53.0986C69.8145 53.0986 61.3622 52.9293 56.2971 55.6077C51.232 58.2862 40.6404 82.0746 40.6404 82.0746L61.9704 94.0376L69.8145 53.0986Z" fill="#1CACA3"/>
<path d="M61.9704 94.5036C61.8827 94.5027 61.7965 94.4809 61.7188 94.44L40.3888 82.4769C40.2751 82.412 40.1894 82.3065 40.1487 82.1812C40.108 82.0559 40.1151 81.9197 40.1686 81.7994C40.5985 80.8254 50.8965 57.8838 56.0559 55.1418C61.2154 52.3998 69.4789 52.5692 69.825 52.5798C69.901 52.5811 69.9759 52.5988 70.0446 52.6317C70.1133 52.6645 70.1743 52.7118 70.2235 52.7703C70.2712 52.8306 70.3054 52.9007 70.3235 52.9756C70.3416 53.0506 70.3433 53.1287 70.3283 53.2044L62.4843 94.0801C62.464 94.2015 62.4007 94.3114 62.3062 94.3893C62.2117 94.4672 62.0924 94.5078 61.9704 94.5036ZM41.3221 81.7994L61.5929 93.1696L69.2168 53.6279C67.1823 53.6279 60.6806 53.9031 56.6327 56.0734C52.071 58.4449 42.7902 78.5492 41.3221 81.7994Z" fill="#231F20"/>
<path d="M136.017 113.263C136.017 113.263 131.739 116.641 133.238 117.943C134.738 119.245 141.302 118.694 141.302 118.694C141.302 118.694 145.728 120.378 144.658 121.68C143.589 122.982 136.468 123.194 136.678 124.274C136.888 125.353 138.513 125.904 141.921 126.285C149.744 127.164 154.033 121.119 152.523 118.303C149.925 114.072 146.747 110.234 143.085 106.901C139.646 103.915 128.865 91.3169 127.575 90.5123C126.285 89.7077 112.506 61.5892 112.506 61.5892L101.107 67.179C101.107 67.179 113.691 98.6324 116.071 100.58C118.452 102.528 136.017 113.263 136.017 113.263Z" fill="white"/>
<path d="M143.505 126.92C142.968 126.919 142.433 126.887 141.9 126.825C138.576 126.454 136.458 125.915 136.153 124.379C136.132 124.276 136.133 124.168 136.154 124.065C136.176 123.961 136.218 123.862 136.279 123.776C136.678 123.183 137.863 122.94 140.117 122.516C141.596 122.241 143.83 121.828 144.239 121.33C144.291 121.267 144.291 121.246 144.239 121.214C144.102 120.695 142.571 119.795 141.187 119.255C140.075 119.34 134.402 119.711 132.798 118.366C132.632 118.223 132.501 118.044 132.414 117.842C132.327 117.64 132.286 117.421 132.294 117.202C132.294 115.868 134.014 114.195 135 113.337C131.749 111.347 117.781 102.751 115.652 101.004C113.251 99.0241 101.81 70.6197 100.52 67.3801C100.468 67.2517 100.467 67.1085 100.515 66.979C100.564 66.8495 100.659 66.7432 100.782 66.6814L112.275 61.1021C112.405 61.0427 112.553 61.0359 112.687 61.0832C112.822 61.1305 112.934 61.2283 112.999 61.3562C118.19 71.943 126.82 89.1466 127.879 90.0782C128.498 90.4594 130.616 92.7884 134.318 96.8644C137.747 100.644 141.659 104.932 143.442 106.498C147.163 109.876 150.397 113.764 153.048 118.049C153.355 118.805 153.454 119.632 153.334 120.441C153.214 121.25 152.88 122.011 152.366 122.643C151.347 124.032 150.007 125.148 148.462 125.894C146.917 126.639 145.215 126.992 143.505 126.92ZM137.213 124.327C137.632 125.152 139.95 125.512 141.974 125.745C146.745 126.285 149.975 124.168 151.412 122.019C151.807 121.547 152.073 120.98 152.183 120.372C152.294 119.765 152.244 119.139 152.041 118.557C149.451 114.388 146.299 110.604 142.676 107.314C140.831 105.704 136.919 101.396 133.469 97.5949C130.669 94.5035 127.775 91.3169 127.24 90.9887C125.95 90.1841 115.704 69.4551 112.212 62.3196L101.726 67.4436C106.791 80.0419 114.719 98.8123 116.355 100.157C118.662 102.062 136.059 112.692 136.279 112.798C136.355 112.843 136.418 112.906 136.464 112.981C136.51 113.057 136.536 113.143 136.541 113.232C136.546 113.32 136.529 113.409 136.492 113.49C136.456 113.571 136.401 113.642 136.332 113.697C135.147 114.64 133.458 116.355 133.437 117.233C133.434 117.29 133.444 117.347 133.468 117.399C133.492 117.451 133.528 117.496 133.574 117.53C134.539 118.366 138.817 118.356 141.24 118.154C141.319 118.134 141.402 118.134 141.481 118.154C142.057 118.377 144.952 119.541 145.308 120.907C145.352 121.092 145.351 121.284 145.305 121.469C145.259 121.653 145.171 121.823 145.046 121.966C144.438 122.717 142.771 123.024 140.296 123.533C139.263 123.7 138.248 123.966 137.265 124.327H137.213Z" fill="#231F20"/>
<path d="M96.304 53.0986C96.304 53.0986 104.756 52.9293 109.811 55.6077C114.865 58.2862 125.467 82.0746 125.467 82.0746L104.138 94.0376L96.304 53.0986Z" fill="#1CACA3"/>
<path d="M104.138 95.5622C104.065 95.5773 103.99 95.5773 103.917 95.5622C103.844 95.5254 103.78 95.4718 103.731 95.4056C103.682 95.3394 103.649 95.2625 103.634 95.1811L95.7901 54.3054C95.7752 54.2297 95.7768 54.1517 95.795 54.0767C95.8131 54.0017 95.8472 53.9316 95.895 53.8714C95.9432 53.8117 96.004 53.7637 96.073 53.7307C96.1419 53.6978 96.2172 53.6807 96.2935 53.6808C96.6395 53.6808 104.935 53.5326 110.052 56.2428C115.17 58.953 125.509 81.9264 125.95 82.9004C126.001 83.021 126.007 83.1564 125.966 83.2811C125.926 83.4058 125.842 83.5113 125.73 83.5779L104.4 95.541C104.315 95.5687 104.225 95.576 104.138 95.5622ZM96.9332 54.6866L104.515 94.2282L124.796 82.858C123.318 79.6079 114.047 59.5035 109.57 57.1321C105.469 54.9618 98.9571 54.7501 96.9332 54.6866Z" fill="#231F20"/>
<path d="M131.99 124.506H32.7649C32.6258 124.506 32.4924 124.451 32.3941 124.351C32.2958 124.252 32.2405 124.118 32.2405 123.977C32.2405 123.837 32.2958 123.702 32.3941 123.603C32.4924 123.504 32.6258 123.448 32.7649 123.448H131.99C132.129 123.448 132.263 123.504 132.361 123.603C132.459 123.702 132.515 123.837 132.515 123.977C132.515 124.118 132.459 124.252 132.361 124.351C132.263 124.451 132.129 124.506 131.99 124.506Z" fill="#231F20"/>
<path d="M79.8188 132.447C81.5491 132.796 82.5034 134.183 83.594 135.347L79.221 142.62L73.6631 139.317L73.8518 139C74.9844 137.19 76.1274 135.4 77.239 133.579C77.4078 133.284 77.6393 133.031 77.9167 132.837C78.1941 132.643 78.5106 132.513 78.8435 132.457C78.8978 132.446 78.9507 132.428 79.0008 132.404L79.8188 132.447Z" fill="white"/>
<path d="M88.2816 158.278L88.4075 160.957L88.2292 160.724C87.0547 158.84 85.8906 156.944 84.7161 155.071C84.6759 155.013 84.6544 154.945 84.6544 154.875C84.6544 154.805 84.6759 154.736 84.7161 154.679L87.967 149.068L88.1138 148.846C88.1138 149.534 88.1663 150.137 88.1977 150.751C88.1977 151.005 88.1977 151.259 88.1977 151.503C88.207 151.549 88.227 151.592 88.2562 151.629C88.2854 151.666 88.3229 151.695 88.3655 151.715C90.6246 152 92.9152 151.896 95.1399 151.408C95.6223 151.291 96.0837 151.079 96.5976 150.899C96.5976 150.995 96.5347 151.069 96.5032 151.132C95.4825 153.101 94.4618 155.071 93.4411 157.04C93.2934 157.344 93.0676 157.603 92.7873 157.789C92.5069 157.975 92.1823 158.082 91.8471 158.098C90.7984 158.183 89.8231 158.225 88.8059 158.278H88.2816Z" fill="white"/>
<path d="M79.2001 148.539L76.7987 147.025C74.8427 149.112 73.4334 151.659 72.6984 154.435L72.5201 154.139L69.4685 148.359C69.3214 148.097 69.244 147.802 69.244 147.501C69.244 147.2 69.3214 146.905 69.4685 146.644C70.0242 145.585 70.6325 144.643 71.2197 143.647C71.2771 143.536 71.3438 143.43 71.419 143.33L69.2168 141.964C69.3181 141.959 69.4196 141.959 69.5209 141.964L75.9807 142.208C76.138 142.208 76.2743 142.208 76.3582 142.409L79.1582 148.38C79.1754 148.432 79.1894 148.485 79.2001 148.539Z" fill="white"/>
<path d="M83.8981 141.255L86.373 139.826C85.4402 137.095 83.8681 134.633 81.7903 132.648H88.6381C88.9796 132.644 89.3157 132.734 89.6097 132.91C89.9037 133.085 90.1444 133.339 90.3055 133.643C90.8613 134.564 91.3542 135.506 91.9414 136.438L92.1197 136.734L94.4373 135.369L94.28 135.665L90.9557 141.361C90.9261 141.435 90.873 141.497 90.8046 141.537C90.7363 141.577 90.6566 141.593 90.5782 141.583L84.0869 141.276L83.8981 141.255Z" fill="white"/>
<path d="M82.6502 152.043L82.388 158.543L80.9513 158.458L75.5087 158.067C75.0442 158.039 74.605 157.844 74.2713 157.516C73.8602 157.148 73.5562 156.673 73.3918 156.143C73.2274 155.614 73.2088 155.049 73.338 154.51C73.5582 153.514 73.8728 152.54 74.1245 151.609L82.6502 152.043Z" fill="white"/>
<path d="M88.9947 143.976L94.4792 140.535C94.5422 140.63 94.6051 140.715 94.6575 140.81C95.7062 142.631 96.7549 144.463 97.8035 146.294C98.1262 146.826 98.2517 147.456 98.1576 148.073C98.0635 148.689 97.756 149.252 97.2897 149.661C96.6299 150.235 95.8417 150.638 94.9931 150.836C94.5212 150.984 94.0388 151.111 93.5669 151.217C93.5216 151.214 93.4776 151.201 93.4378 151.179C93.3979 151.157 93.3633 151.127 93.3362 151.09C91.931 148.782 90.5362 146.464 89.1415 144.145L88.9947 143.976Z" fill="white"/>
<path d="M93.6088 116.619H81.0248C80.8857 116.619 80.7523 116.564 80.654 116.464C80.5557 116.365 80.5004 116.23 80.5004 116.09C80.5004 115.95 80.5557 115.815 80.654 115.716C80.7523 115.616 80.8857 115.561 81.0248 115.561H93.6088C93.7479 115.561 93.8813 115.616 93.9796 115.716C94.0779 115.815 94.1332 115.95 94.1332 116.09C94.1305 116.23 94.0744 116.363 93.9766 116.461C93.8789 116.56 93.747 116.617 93.6088 116.619Z" fill="#257E2E"/>
<path d="M61.3936 116.577C61.2638 116.575 61.1391 116.526 61.0426 116.438C60.9462 116.351 60.8845 116.231 60.8693 116.101C60.8243 115.201 60.584 114.322 60.1654 113.526C59.7468 112.73 59.1601 112.037 58.4469 111.495C58.3895 111.459 58.3398 111.411 58.3008 111.355C58.2617 111.299 58.2341 111.235 58.2195 111.168C58.2049 111.102 58.2035 111.032 58.2155 110.965C58.2276 110.897 58.2527 110.833 58.2896 110.775C58.3241 110.716 58.3701 110.664 58.4249 110.622C58.4797 110.581 58.5421 110.551 58.6086 110.534C58.675 110.517 58.7441 110.514 58.8118 110.525C58.8794 110.535 58.9443 110.559 59.0026 110.595C59.8523 111.223 60.5542 112.033 61.0581 112.966C61.5621 113.899 61.8557 114.934 61.918 115.995C61.9252 116.064 61.9187 116.135 61.8989 116.202C61.879 116.269 61.8462 116.331 61.8023 116.385C61.7584 116.439 61.7044 116.484 61.6432 116.517C61.5821 116.55 61.5151 116.57 61.4461 116.577H61.3936Z" fill="#FD9154"/>
<path d="M45.9781 117.678H37.054C36.9149 117.678 36.7815 117.622 36.6832 117.523C36.5849 117.424 36.5296 117.289 36.5296 117.149C36.5296 117.008 36.5849 116.874 36.6832 116.774C36.7815 116.675 36.9149 116.619 37.054 116.619H45.9781C46.1172 116.619 46.2505 116.675 46.3489 116.774C46.4472 116.874 46.5024 117.008 46.5024 117.149C46.5024 117.289 46.4472 117.424 46.3489 117.523C46.2505 117.622 46.1172 117.678 45.9781 117.678Z" fill="#C0284E"/>
<path d="M101.107 114.618C101.021 114.62 100.936 114.6 100.86 114.562C100.783 114.523 100.717 114.466 100.666 114.396C100.591 114.278 100.564 114.136 100.589 113.998C100.615 113.861 100.691 113.738 100.803 113.655C100.97 113.539 101.117 113.443 106.266 113.56C106.336 113.561 106.405 113.577 106.469 113.605C106.532 113.634 106.59 113.675 106.638 113.726C106.686 113.777 106.723 113.838 106.747 113.904C106.772 113.97 106.783 114.04 106.78 114.11C106.772 114.248 106.712 114.377 106.613 114.472C106.513 114.566 106.382 114.619 106.245 114.618C104.075 114.566 101.652 114.555 101.264 114.618C101.212 114.629 101.159 114.629 101.107 114.618Z" fill="#FF2E2E"/>
</svg>
