<svg width="103" height="100" viewBox="0 0 103 100" fill="none" xmlns="http://www.w3.org/2000/svg">
<g clip-path="url(#clip0)">
<path d="M39.4702 26.0936C39.4702 26.0936 40.3559 12.7356 56.5299 10.7497C68.9714 9.2221 80.5273 21.0524 82.1299 34.1048C75.4721 31.3089 74.2279 31.4616 60.5422 33.142C56.6754 33.6882 52.7382 33.3323 49.0682 32.1047C45.3982 30.8771 42.1048 28.8145 39.4702 26.0936Z" fill="url(#paint0_linear)"/>
<path d="M40.7317 84.596C40.7317 84.596 27.5652 90.9082 18.1024 77.6419C10.8233 67.437 16.7107 50.9198 28.4215 42.5666C28.8672 49.9472 29.5951 50.9677 37.6021 62.1931C39.9327 65.3269 41.4348 69.0022 41.9799 72.904C42.525 76.8058 42.0967 80.8178 40.7317 84.596Z" fill="url(#paint1_linear)"/>
<path d="M91.8113 54.4484C91.8113 54.4484 102.937 61.8944 96.5697 76.8945C91.6719 88.433 75.6486 92.5255 63.5436 87.3872C69.2939 83.0193 69.7836 81.8654 75.1712 69.1731C76.6316 65.5512 78.9085 62.3195 81.8066 59.755C84.7047 57.1904 88.1377 55.3696 91.8113 54.4484Z" fill="url(#paint2_linear)"/>
<path d="M82.2783 34.0845C75.6205 31.2886 74.3763 31.4414 60.6906 33.1218C56.8237 33.668 52.8866 33.312 49.2166 32.0844C45.5466 30.8569 42.2532 28.7942 39.6186 26.0733C39.6734 25.481 39.7743 24.8929 39.9204 24.3139C42.5653 26.8275 45.79 28.7162 49.3425 29.8325C52.8951 30.9488 56.6792 31.2623 60.3992 30.7486C73.9978 29.0789 75.3291 28.9154 81.8662 31.6539C81.9055 31.9743 82.0947 32.5895 82.2783 34.0845Z" fill="#1E7106"/>
<path d="M32.3421 39.2611C32.1509 39.29 31.9559 39.2764 31.7721 39.2213C31.5884 39.1661 31.421 39.071 31.283 38.9433C31.145 38.8156 31.0402 38.6588 30.9768 38.4852C30.9133 38.3116 30.893 38.1259 30.9173 37.9425C30.8911 37.7289 31.7099 32.5696 38.6485 25.5146C45.587 18.4597 60.1592 17.622 71.5865 23.8793C71.8736 24.0357 72.0827 24.2954 72.1676 24.6012C72.2525 24.907 72.2063 25.2339 72.0393 25.51C71.8722 25.786 71.5979 25.9887 71.2767 26.0733C70.9555 26.1579 70.6137 26.1176 70.3266 25.9611C59.8643 20.2598 46.7456 20.7986 40.4741 27.2176C31.8112 35.9658 34.5816 38.9861 32.3421 39.2611Z" fill="url(#paint3_linear)"/>
<path d="M41.6642 86.7661C31.1802 92.1769 16.6006 84.601 15.4326 71.6121C17.0276 78.8922 23.9322 85.1492 31.5222 85.9852C32.9372 86.1367 34.3741 85.9806 35.726 85.5286C37.0778 85.0766 38.3098 84.3403 39.33 83.3746C40.3503 82.4088 41.1325 81.2385 41.6186 79.9508C42.1046 78.6632 42.2818 77.2913 42.1371 75.9374C42.9255 79.5157 42.7629 83.2381 41.6642 86.7661Z" fill="#1E7106"/>
<path d="M41.3964 87.9424C31.4018 86.0274 23.3389 74.6491 23.0615 62.0226C23.0541 61.7031 23.1798 61.3922 23.411 61.1581C23.6423 60.9241 23.96 60.7861 24.2945 60.7746C24.6289 60.7631 24.9526 60.879 25.1943 61.0967C25.436 61.3145 25.5759 61.6163 25.5833 61.9358C25.854 73.4996 33.0088 83.8894 41.9196 85.5917C50.8305 87.294 55.3842 85.453 55.4321 85.4338C55.7313 85.3196 56.0634 85.3189 56.3599 85.4318C56.6563 85.5447 56.8946 85.7627 57.0255 86.0407C57.1565 86.3187 57.1701 86.6356 57.0636 86.9261C56.9571 87.2166 56.7386 87.4585 56.4532 87.602C52.7691 89.2405 45.8838 88.7948 41.3964 87.9424Z" fill="url(#paint4_linear)"/>
<path d="M97.0521 77.1873C92.3838 88.3529 75.8612 92.5387 63.0747 87.8014C63.8505 87.2261 64.5343 86.7129 65.1437 86.2109C77.518 89.6318 92.3192 85.2923 96.6987 74.8225C97.9867 71.9455 98.5793 68.8358 98.4319 65.7274C99.2117 69.5759 98.73 73.5769 97.0521 77.1873Z" fill="#1E7106"/>
<path d="M77.6297 81.7383C87.967 75.6 93.8733 64.3219 91.0709 56.0859C88.2684 47.85 84.3449 45.0034 84.3449 45.0034C84.0756 44.8209 83.8947 44.5425 83.842 44.2296C83.7893 43.9167 83.8691 43.5949 84.0639 43.335C84.2586 43.0751 84.5524 42.8983 84.8806 42.8436C85.2087 42.7889 85.5444 42.8607 85.8137 43.0433C85.9978 43.1729 90.3693 46.2184 93.4672 55.3289C96.5652 64.4394 90.2174 77.089 78.9254 83.793C78.6379 83.961 78.2939 84.0138 77.9691 83.94C77.6443 83.8661 77.3653 83.6715 77.1935 83.3991C77.0217 83.1266 76.9711 82.7985 77.053 82.4871C77.1348 82.1756 77.3422 81.9063 77.6297 81.7383Z" fill="url(#paint5_linear)"/>
</g>
<defs>
<linearGradient id="paint0_linear" x1="61.6014" y1="36.6254" x2="58.3961" y2="10.5206" gradientUnits="userSpaceOnUse">
<stop stop-color="#3D7032"/>
<stop offset="1" stop-color="#D4E6B6"/>
</linearGradient>
<linearGradient id="paint1_linear" x1="39.5582" y1="62.392" x2="16.1367" y2="79.0983" gradientUnits="userSpaceOnUse">
<stop stop-color="#3D7032"/>
<stop offset="1" stop-color="#D4E6B6"/>
</linearGradient>
<linearGradient id="paint2_linear" x1="71.6249" y1="68.3487" x2="95.835" y2="78.6252" gradientUnits="userSpaceOnUse">
<stop stop-color="#3D7032"/>
<stop offset="1" stop-color="#D4E6B6"/>
</linearGradient>
<linearGradient id="paint3_linear" x1="52.261" y1="36.8154" x2="50.1951" y2="19.9896" gradientUnits="userSpaceOnUse">
<stop stop-color="#285E19"/>
<stop offset="1" stop-color="#1E7106"/>
</linearGradient>
<linearGradient id="paint4_linear" x1="896.414" y1="1788.4" x2="772.521" y2="959.413" gradientUnits="userSpaceOnUse">
<stop stop-color="#000101"/>
<stop offset="1" stop-color="#1E7106"/>
</linearGradient>
<linearGradient id="paint5_linear" x1="1461.48" y1="2179.31" x2="1266.36" y2="873.743" gradientUnits="userSpaceOnUse">
<stop stop-color="#080908"/>
<stop offset="1" stop-color="#1E7106"/>
</linearGradient>
<clipPath id="clip0">
<rect width="90.1703" height="87.1" fill="white" transform="translate(-1.52588e-05 13.3281) rotate(-8.5)"/>
</clipPath>
</defs>
</svg>
