<svg width="14" height="14" viewBox="0 0 14 14" fill="none" xmlns="http://www.w3.org/2000/svg">
<path d="M4.6555 3.34122C4.6555 3.34122 4.72115 1.28928 6.90766 0.926128C8.5896 0.646777 10.2059 2.41936 10.4766 4.41542C9.56181 4.01072 9.39362 4.03865 7.54349 4.34594C7.02103 4.44372 6.48535 4.40338 5.98237 4.2284C5.47938 4.05341 5.02409 3.74899 4.6555 3.34122Z" fill="url(#paint0_linear)"/>
<path d="M10.4766 4.42141C9.56357 4.01912 9.39571 4.04688 7.54921 4.35218C7.02777 4.44934 6.49315 4.40922 5.99116 4.23527C5.48917 4.06132 5.03479 3.75873 4.66695 3.35343C4.67196 3.26294 4.68323 3.17293 4.70066 3.08414C5.06906 3.45781 5.51343 3.73414 5.99906 3.89154C6.48469 4.04894 6.99842 4.08314 7.5001 3.99147C9.33485 3.68811 9.51446 3.65841 10.4109 4.05238C10.4175 4.10107 10.4456 4.19416 10.4766 4.42141Z" fill="white"/>
<path d="M3.7383 5.33852C3.71252 5.34363 3.68604 5.34225 3.66093 5.33449C3.63581 5.32674 3.61275 5.31282 3.59354 5.29383C3.57433 5.27484 3.5595 5.25129 3.5502 5.22502C3.5409 5.19875 3.53738 5.17048 3.53993 5.14241C3.53551 5.1099 3.62544 4.31955 4.53662 3.21786C5.4478 2.11618 7.41832 1.9359 8.99171 2.84978C9.03124 2.87261 9.06061 2.91149 9.07336 2.95786C9.08611 3.00423 9.08119 3.05428 9.05968 3.09702C9.03817 3.13975 9.00184 3.17166 8.95867 3.18573C8.91551 3.1998 8.86905 3.19488 8.82952 3.17204C7.3891 2.33955 5.61426 2.46898 4.79085 3.4712C3.65298 4.83751 4.04054 5.2885 3.7383 5.33852Z" fill="white"/>
<path d="M4.6693 11.9082C4.6693 11.9082 2.98182 12.898 1.6026 11.0192C0.542274 9.57842 1.17017 7.15326 2.64468 5.88137C2.77209 6.94874 2.87822 7.09355 4.04443 8.67731C4.38274 9.11932 4.6163 9.64411 4.72512 10.2068C4.83394 10.7694 4.81479 11.3532 4.6693 11.9082Z" fill="url(#paint1_linear)"/>
<path d="M4.67082 11.9113C3.24928 12.7386 1.26442 11.5688 1.09884 9.57251C1.3194 10.6918 2.26081 11.6559 3.29247 11.7873C3.48479 11.8112 3.67994 11.7878 3.86337 11.7188C4.0468 11.6499 4.21378 11.5373 4.35189 11.3893C4.48999 11.2413 4.59565 11.0618 4.661 10.8641C4.72635 10.6665 4.74971 10.4557 4.72933 10.2476C4.83834 10.7978 4.81823 11.3697 4.67082 11.9113V11.9113Z" fill="white"/>
<path d="M4.62389 12.1041C3.26251 11.8052 2.15903 10.0497 2.11456 8.10498C2.11338 8.05577 2.13033 8.00793 2.16168 7.97198C2.19303 7.93602 2.23621 7.9149 2.28172 7.91326C2.32723 7.91162 2.37135 7.92959 2.40436 7.96323C2.43738 7.99686 2.45659 8.0434 2.45776 8.0926C2.50075 9.87363 3.4801 11.4766 4.69386 11.7423C5.90761 12.0079 6.52644 11.7262 6.53294 11.7233C6.57361 11.7058 6.61881 11.7058 6.65922 11.7233C6.69964 11.7408 6.73218 11.7745 6.75015 11.8174C6.76812 11.8602 6.77014 11.9091 6.7558 11.9538C6.74146 11.9985 6.71185 12.0356 6.67308 12.0576C6.1725 12.3085 5.23511 12.2371 4.62389 12.1041Z" fill="white"/>
<path d="M12.0942 7.30327C12.0942 7.30327 13.7088 8.37926 12.8867 10.6098C12.2581 12.3246 10.0146 12.9617 8.27412 12.2283C9.06323 11.5708 9.12624 11.4005 9.8176 9.51338C10.0047 8.97468 10.3096 8.49214 10.7061 8.10719C11.1027 7.72224 11.579 7.44637 12.0942 7.30327V7.30327Z" fill="url(#paint2_linear)"/>
<path d="M12.8928 10.6175C12.2654 12.3258 10.0263 12.9604 8.28924 12.2297C8.39418 12.1419 8.48667 12.0636 8.56907 11.987C10.2495 12.5158 12.2551 11.857 12.8436 10.2552C13.0168 9.81504 13.0956 9.33899 13.074 8.86284C13.1818 9.45258 13.1185 10.0652 12.8928 10.6175Z" fill="white"/>
<path d="M10.0988 11.3064C11.5095 10.3622 12.3114 8.62215 11.9237 7.34858C11.5361 6.07501 10.9979 5.63364 10.9979 5.63364C10.961 5.60533 10.9361 5.56225 10.9287 5.51389C10.9213 5.46553 10.9321 5.41584 10.9586 5.37576C10.9851 5.33568 11.0252 5.30849 11.07 5.30017C11.1149 5.29185 11.1608 5.30308 11.1978 5.33139C11.223 5.35149 11.8226 5.82378 12.2511 7.23258C12.6797 8.64139 11.8181 10.5932 10.2771 11.6244C10.2379 11.6502 10.1908 11.6583 10.1464 11.6467C10.1019 11.6352 10.0637 11.605 10.04 11.5629C10.0164 11.5207 10.0093 11.47 10.0203 11.4219C10.0313 11.3738 10.0596 11.3323 10.0988 11.3064V11.3064Z" fill="white"/>
<defs>
<linearGradient id="paint0_linear" x1="7.70143" y1="4.87635" x2="7.04164" y2="0.903876" gradientUnits="userSpaceOnUse">
<stop stop-color="white"/>
<stop offset="1" stop-color="white"/>
</linearGradient>
<linearGradient id="paint1_linear" x1="87.9471" y1="353.248" x2="51.6155" y2="134.561" gradientUnits="userSpaceOnUse">
<stop stop-color="white"/>
<stop offset="1" stop-color="white"/>
</linearGradient>
<linearGradient id="paint2_linear" x1="294.013" y1="268.875" x2="273.158" y2="143.433" gradientUnits="userSpaceOnUse">
<stop stop-color="white"/>
<stop offset="1" stop-color="white"/>
</linearGradient>
</defs>
</svg>
