<svg width="20" height="20" viewBox="0 0 20 20" fill="none" xmlns="http://www.w3.org/2000/svg">
<path d="M18.8929 8.8503C18.8929 13.5872 15.0483 17.4272 10.3058 17.4272C5.56331 17.4272 1.71875 13.5872 1.71875 8.8503C1.71875 4.11343 5.56331 0.273438 10.3058 0.273438C15.0483 0.273438 18.8929 4.11343 18.8929 8.8503Z" fill="white"/>
<path d="M11.8286 12.3457C11.8286 12.3457 10.5763 10.8307 12.1086 8.92888C13.2831 7.46572 15.7096 7.51941 17.1967 8.74219C16.2037 9.14027 16.0864 9.28549 14.7943 10.8957C14.4356 11.3584 13.9783 11.7321 13.4618 11.9847C12.9452 12.2372 12.3848 12.3611 11.8286 12.3457Z" fill="url(#paint0_linear)"/>
<path d="M15.0639 9.11917C13.3698 9.61015 12.1392 11.0111 12.1256 12.3538C12.112 13.6965 12.5077 14.2818 12.5077 14.2818C12.5355 14.3201 12.5467 14.369 12.5389 14.4178C12.5311 14.4666 12.5049 14.5113 12.4661 14.5421C12.4273 14.5728 12.3791 14.5871 12.332 14.5818C12.2849 14.5765 12.2428 14.552 12.2151 14.5138C12.1963 14.4869 11.7493 13.8536 11.7647 12.3684C11.78 10.8832 13.1371 9.31478 14.9877 8.77862C15.0347 8.76537 15.0449 8.7597 15.2356 8.74077C15.3691 8.74076 15.6169 8.74074 15.7123 8.77857C15.6741 8.7975 15.4834 8.87319 15.4072 8.92996C15.2355 9.02456 15.1783 9.06241 15.0639 9.11917Z" fill="#34630D"/>
<path d="M9.8159 12.3678C9.8159 12.3678 6.49272 11.7938 6.12905 7.58249C5.84396 4.34731 8.88379 1.68889 12.1503 1.61642C11.4018 3.25393 11.4292 3.57579 11.7435 7.1356C11.8493 8.14439 11.7291 9.14752 11.3934 10.0589C11.0576 10.9702 10.5163 11.7625 9.8159 12.3678Z" fill="url(#paint1_linear)"/>
<path d="M9.97769 4.43341C8.46881 6.98706 8.5012 10.3895 10.0498 12.1731C11.5985 13.9567 12.767 14.2819 12.767 14.2819C12.8457 14.3011 12.9166 14.3528 12.9639 14.4259C13.0112 14.499 13.0311 14.5873 13.0193 14.6715C13.0075 14.7557 12.9649 14.8288 12.9008 14.8749C12.8368 14.9209 12.7566 14.936 12.6779 14.9169C12.6235 14.9026 11.336 14.5717 9.62341 12.5985C7.91078 10.6254 7.71442 7.61399 9.36279 4.82478C9.40506 4.75444 9.65309 4.35177 9.68699 4.31392C9.83955 4.14364 10.1828 3.84089 10.1828 3.84089C10.1256 3.9355 10.0302 4.37066 9.97769 4.43341Z" fill="#34630D"/>
<path d="M12.4722 14.0818C15.6071 16.0472 17.6566 13.2775 17.6566 13.2775C17.6566 13.2775 15.5575 16.8204 12.1334 14.6734C12.0469 14.6184 11.9818 14.5345 11.9524 14.4401C11.923 14.3458 11.9318 14.2487 11.9767 14.1702C12.0216 14.0918 12.0991 14.0384 12.192 14.0218C12.2849 14.0052 12.3857 14.0268 12.4722 14.0818Z" fill="#34630D"/>
<path d="M9.22704 14.2535C9.22704 14.2535 7.91281 15.7163 5.78168 14.5099C4.14274 13.586 3.81989 11.1993 4.8067 9.55167C5.35704 10.4631 5.51982 10.5555 7.3234 11.5719C7.83973 11.8516 8.2827 12.2417 8.61427 12.7088C8.94584 13.1759 9.15611 13.706 9.22704 14.2535Z" fill="url(#paint2_linear)"/>
<path d="M5.3652 11.591C6.11697 13.1752 7.7028 14.1636 9.04174 13.9681C10.3807 13.7727 10.902 13.2938 10.902 13.2938C10.9358 13.2606 10.9827 13.242 11.0325 13.2421C11.0823 13.2421 11.1309 13.2608 11.1675 13.2941C11.2042 13.3274 11.2259 13.3724 11.2279 13.4194C11.23 13.4664 11.2121 13.5114 11.1783 13.5446C11.1545 13.5672 10.5933 14.1037 9.11224 14.3196C7.63117 14.5355 5.859 13.4492 5.03798 11.7187C5.01749 11.6747 5.01026 11.6656 4.96181 11.4816C4.94109 11.3508 4.9026 11.1078 4.92547 11.0085C4.95023 11.0429 5.05519 11.2181 5.12354 11.284C5.24437 11.4375 5.29093 11.4877 5.3652 11.591Z" fill="#34630D"/>
<defs>
<linearGradient id="paint0_linear" x1="13.7267" y1="12.5952" x2="18.6985" y2="12.4107" gradientUnits="userSpaceOnUse">
<stop stop-color="#417505"/>
<stop offset="1" stop-color="#285D19"/>
</linearGradient>
<linearGradient id="paint1_linear" x1="12.4385" y1="10.5598" x2="18.3918" y2="4.80193" gradientUnits="userSpaceOnUse">
<stop stop-color="#417505"/>
<stop offset="1" stop-color="#285D19"/>
</linearGradient>
<linearGradient id="paint2_linear" x1="9.18106" y1="12.3543" x2="8.2421" y2="7.50663" gradientUnits="userSpaceOnUse">
<stop stop-color="#417505"/>
<stop offset="1" stop-color="#285D19"/>
</linearGradient>
</defs>
</svg>
