<svg width="352" height="272" viewBox="0 0 352 272" fill="none" xmlns="http://www.w3.org/2000/svg">
<path fill-rule="evenodd" clip-rule="evenodd" d="M14.449 167.791C15.046 169.647 16.765 170.857 18.5265 171.185C20.2881 171.512 22.0925 171.095 23.8064 170.539C29.9261 168.557 35.3847 164.874 40.8534 161.185L40.8534 161.185C43.637 159.307 46.4232 157.427 49.3004 155.769C58.5105 150.462 69.0046 147.391 79.3362 148.633C82.7695 149.045 86.2415 149.969 89.0914 152.119C91.9413 154.27 94.0839 157.821 94.0494 161.627C94.0187 165.025 92.3314 168.113 90.5634 170.896C89.2238 173.005 87.7721 175.09 85.8555 176.561C83.9164 178.05 81.5952 178.832 79.2623 179.248C75.1521 179.98 70.6942 179.549 67.242 176.984C63.7898 174.418 61.6852 169.377 63.0654 165.047C63.7285 162.967 65.1012 161.231 66.6938 159.897C69.8628 157.242 74.4297 156.122 77.8591 158.349C81.2886 160.576 82.3195 166.755 79.1497 169.409C77.7583 170.574 75.9217 170.872 74.1745 170.858C73.1021 170.85 71.9553 170.706 71.1339 169.946C70.3124 169.186 70.0415 167.619 70.8491 166.841C71.7751 165.95 73.5136 167.172 73.1707 168.473C75.3699 170.193 78.8413 167.97 79.0526 165.007C79.2639 162.044 76.8241 159.383 74.1504 158.997C71.4766 158.611 68.8001 160.09 66.9188 162.219C65.9973 163.262 65.2148 164.484 64.8052 165.868C63.7966 169.277 65.3153 173.187 67.9089 175.351C70.5024 177.515 73.9424 178.137 77.1809 177.8C80.3295 177.473 83.4554 176.264 85.8615 174.002C87.1234 172.815 88.1625 171.37 89.1395 169.893C90.5473 167.764 91.8839 165.429 92.1062 162.806C92.4253 159.041 90.2897 155.397 87.4141 153.334C84.5384 151.272 81.0387 150.552 77.6164 150.286C70.7934 149.754 63.8689 150.865 57.4667 153.519C52.1051 155.742 47.1567 159.005 42.2156 162.263C36.3332 166.141 30.461 170.013 23.9136 172.116C20.3574 173.258 15.5769 173.277 14.005 169.58C13.7238 168.918 13.7879 167.842 14.449 167.791Z" fill="#1E7106"/>
<path fill-rule="evenodd" clip-rule="evenodd" d="M54.8851 12.4534C55.6107 13.6427 57.6999 14.4182 59.8409 14.628C61.9819 14.8377 64.1749 14.5701 66.2579 14.2143C73.6957 12.9437 80.3301 10.5839 86.9766 8.21977C90.3597 7.0164 93.746 5.8119 97.243 4.74938C108.437 1.34825 121.191 -0.619769 133.748 0.176057C137.921 0.440519 142.141 1.03231 145.604 2.41032C149.068 3.78832 151.672 6.06385 151.63 8.50321C151.593 10.6805 149.542 12.6595 147.393 14.4431C145.765 15.7946 144.001 17.1303 141.672 18.0732C139.315 19.0271 136.494 19.5287 133.658 19.7949C128.663 20.2639 123.245 19.9881 119.049 18.3441C114.853 16.7001 112.295 13.4695 113.973 10.695C114.779 9.36185 116.447 8.24937 118.383 7.39434C122.234 5.693 127.785 4.97545 131.953 6.40266C136.121 7.82987 137.374 11.7896 133.521 13.4901C131.83 14.2366 129.598 14.4278 127.475 14.4188C126.171 14.4133 124.777 14.321 123.779 13.8341C122.781 13.3471 122.451 12.343 123.433 11.8446C124.558 11.2732 126.671 12.0562 126.255 12.8904C128.927 13.9925 133.147 12.5681 133.403 10.6693C133.66 8.77045 130.695 7.06508 127.445 6.81789C124.196 6.5707 120.943 7.51826 118.656 8.8828C117.536 9.55111 116.585 10.3341 116.087 11.221C114.861 13.4054 116.707 15.9109 119.859 17.2976C123.012 18.6844 127.192 19.083 131.128 18.8674C134.955 18.6577 138.754 17.8827 141.679 16.433C143.213 15.6728 144.475 14.7466 145.663 13.7999C147.374 12.4357 148.998 10.9395 149.269 9.25871C149.656 6.84586 147.061 4.51049 143.566 3.18883C140.071 1.86716 135.817 1.4063 131.658 1.23537C123.365 0.894583 114.949 1.60663 107.168 3.30736C100.652 4.73168 94.6376 6.82258 88.6322 8.91046C81.4829 11.3961 74.3459 13.8774 66.3883 15.2245C62.0661 15.9563 56.2559 15.9685 54.3455 13.5993C54.0037 13.1755 54.0816 12.4861 54.8851 12.4534Z" fill="#1E7106"/>
<path fill-rule="evenodd" clip-rule="evenodd" d="M183.069 209.738C176.098 219.557 157.066 211.973 148.892 206.238C140.717 200.502 143.855 194.947 143.855 192.23C143.855 189.512 143.294 186.19 141.927 183.841C140.56 181.492 118.94 171.419 118.94 160.355C118.94 150.036 125.42 140.595 134.486 136.318C148.892 129.521 155.939 133.843 169.251 139.811C182.563 145.78 181.468 160.355 181.468 160.355C181.468 160.355 192.386 196.616 183.069 209.738Z" fill="#E7EAEE"/>
<path d="M174.481 215.176C145.031 213.055 117.449 192.183 104.483 162.96C91.5164 133.738 93.3658 97.3203 108.649 69.491C123.931 41.6618 151.992 23.0675 181.413 20.5076C189.022 19.8456 196.793 20.2053 204.086 22.6859C212.007 25.38 219.127 30.4849 227.083 33.0481C238.022 36.5722 249.656 33.9131 259.489 27.5635C266.801 22.8424 273.408 16.6882 281.261 13.178C290.436 9.07659 301.181 10.6059 309.946 15.6822C318.711 20.7584 325.654 29.0697 331.003 38.2533C346.932 65.5982 349.294 99.6022 351.204 132.03C352.254 149.849 353.221 168.316 347.445 184.999C342.202 200.139 331.858 212.406 321.064 223.41C309.617 235.077 297.298 245.868 283.521 253.912C256.669 269.592 225.255 274.128 194.989 271.134C164.723 268.14 135.391 257.967 107.148 245.607C91.3843 238.708 74.3884 257.308 57.7919 253.452C47.5375 251.07 40.3521 240.723 30.6072 236.474C20.135 231.908 7.17224 235.584 0 245.155C6.27704 228.409 27.7656 221.441 41.2693 231.773C48.1027 237.001 57.2645 236.675 65.343 234.49C73.4216 232.304 81.1535 228.483 89.4044 227.318C101.214 225.651 113.026 229.541 124.894 230.582C139.413 231.855 153.928 228.852 168.238 225.861C183.65 222.641 199.062 219.42 214.474 216.199C221.911 214.646 229.474 213.044 236.168 209.151C243.707 204.766 249.838 197.506 253.265 188.903C227.595 212.616 189.016 213.864 174.481 215.176Z" fill="white"/>
<path fill-rule="evenodd" clip-rule="evenodd" d="M185.262 210.544C178.291 220.363 159.259 212.779 151.085 207.043C142.91 201.308 146.049 195.752 146.049 193.035C146.049 190.318 145.487 186.995 144.12 184.646C142.753 182.297 121.133 172.224 121.133 161.161C121.133 150.842 127.614 141.4 136.679 137.123C151.085 130.327 158.132 134.648 171.444 140.617C184.756 146.585 183.661 161.161 183.661 161.161C183.661 161.161 194.579 197.421 185.262 210.544Z" fill="#D4E6B6"/>
<path fill-rule="evenodd" clip-rule="evenodd" d="M214.153 164.719C214.367 165.718 215.376 166.719 216.14 166.132C220.135 163.069 224.144 159.996 228.471 157.542C231.259 155.962 234.242 154.588 236.413 152.095C233.781 153.508 230.672 153.293 227.806 152.64C224.939 151.987 222.129 150.927 219.207 150.737C216.703 150.575 214.167 151.07 211.866 152.169C210.482 152.83 209.122 153.776 208.413 155.243C207.703 156.711 207.872 158.788 209.111 159.737C210.447 160.759 212.597 160.279 213.53 161.747C214.064 162.588 213.939 163.72 214.153 164.719Z" fill="#D4E6B6"/>
<path fill-rule="evenodd" clip-rule="evenodd" d="M252.248 69.6646C258.223 81.4625 265.829 89.8865 260.985 95.2434C256.786 99.8882 258.251 91.8075 253.486 90.0737C250.323 88.9228 243.573 91.2964 237.666 91.0235C229.528 90.6474 228.4 96.5562 222.341 96.2422C212.912 95.7534 200.081 88.9321 196.137 87.2532C191.403 85.2375 192.821 78.2523 196.137 74.9398C197.358 73.7202 201.358 77.2894 201.799 75.6556C203.441 69.5845 199.88 64.1673 202.598 63.3566C203.848 62.9837 208.411 64.6288 210.138 66.5794C212.166 68.87 214.207 72.2788 218.397 70.8931C226.155 68.3273 225.159 62.7358 231.222 62.7358C237.285 62.7358 245.21 67.6317 249.028 69.0721C252.847 70.5125 246.272 57.8667 252.248 69.6646Z" fill="#D4E6B6"/>
<path fill-rule="evenodd" clip-rule="evenodd" d="M190.634 129.161C191.427 131.767 193.054 134.048 194.896 135.9C196.621 137.632 199.369 139.109 199.026 141.653C202.443 137.672 207.554 135.537 212.506 136.021C214.186 136.185 215.836 136.632 217.517 136.776C223.693 137.305 229.487 133.772 234.849 130.355C238.7 127.901 242.551 125.447 246.403 122.992C247.295 120.948 246.604 118.395 245.226 116.711C243.847 115.026 241.908 114.046 239.987 113.23C237.906 112.346 235.738 111.595 233.507 111.545C231.33 111.496 228.483 111.705 227.696 109.467C226.653 106.497 224.105 104.234 221.251 103.741C218.397 103.248 215.343 104.543 213.525 107.018C211.644 109.58 208.568 110.566 205.758 111.693C202.354 113.06 199.081 114.824 196.012 116.948C193.44 118.728 190.779 121.212 190.634 124.556C190.572 125.979 190.223 127.811 190.634 129.161Z" fill="#D4E6B6"/>
<path fill-rule="evenodd" clip-rule="evenodd" d="M198.668 54.0567C202.712 55.3285 206.502 51.1721 210.683 50.6822C214.099 50.2819 217.476 52.381 220.88 51.8691C222.109 51.6843 223.56 50.4216 222.913 49.255C222.535 48.574 221.684 48.491 220.959 48.4832C217.024 48.4408 213.088 48.3984 209.152 48.3559C207.873 48.3422 206.485 48.2875 205.491 47.3981C203.423 45.5465 200.905 44.4123 198.366 43.5236C194.893 42.3083 191.301 41.5029 187.671 41.1597C183.708 40.785 179.702 40.9624 175.779 41.6861C174.24 43.889 172.701 46.0918 171.162 48.2947C169.273 50.9989 166.739 54.0041 163.685 53.446C159.698 52.7177 155.507 53.4181 151.896 55.4163C155.528 54.0937 159.549 54.1079 163.173 55.4561C165.473 56.3119 167.601 57.6809 169.927 58.4503C175.709 60.3634 181.919 58.3729 187.57 56.032C191.143 54.5519 194.998 52.9023 198.668 54.0567Z" fill="#D4E6B6"/>
<path d="M267.285 104.313C267.377 105.191 267.888 105.941 268.404 106.619C271.006 110.036 274.351 112.924 278.264 114.067C285.504 116.183 293.288 111.825 298.016 105.42C302.744 99.0159 305.038 90.898 307.139 82.9728C307.746 80.685 308.647 78.0488 310.73 77.4077C312.981 76.7146 314.856 74.691 315.532 72.2245C316.209 69.758 315.664 66.9284 314.137 64.977C312.411 62.7705 308.69 62.1362 307.374 64.6631C306.863 65.645 305.614 65.8731 304.637 65.5221C303.661 65.1711 302.871 64.3917 302.044 63.7196C296.925 59.5569 290.094 59.3199 283.733 59.2474C281.72 59.2244 279.682 59.2044 277.726 59.7283C273.681 60.8115 270.41 64.0866 266.508 65.6832C261.519 67.7244 255.601 66.724 251.397 63.1286C255.963 71.0958 259.776 79.5876 262.753 88.4218C262.97 90.1959 266.758 99.3092 267.285 104.313Z" fill="white"/>
<path fill-rule="evenodd" clip-rule="evenodd" d="M164.899 72.9299C163.845 70.1017 162.262 66.778 159.489 66.6648C158.732 66.6339 157.99 66.8668 157.244 67.0066C153.263 67.7523 148.357 62.2356 146.864 61.7886C145.372 61.3417 143.563 64.4437 141.672 65.375C139.781 66.3064 137.796 67.7938 137.52 70.0564C137.3 71.8668 138.257 73.7689 137.678 75.4803C136.856 77.9094 133.533 78.3237 132.66 80.7311C131.897 82.8358 133.449 85.0398 134.947 86.5933C138.286 90.0579 142.235 93.7161 142.564 98.7581C142.687 100.646 144.289 101.928 145.698 103.01C150.888 106.999 155.48 111.931 159.232 117.546C158.374 116.239 158.822 114.334 159.749 113.084C160.675 111.833 161.981 111.01 163.089 109.954C165.26 107.887 166.659 104.939 168.95 103.036C171.834 100.64 175.643 100.261 179.198 99.5601C182.753 98.8593 186.601 97.4587 188.373 93.9904C188.546 93.6527 188.699 93.2782 188.665 92.8924C188.569 91.7975 187.251 91.5501 186.413 90.9527C184.842 89.8325 184.957 87.3267 184.417 85.3519C183.632 82.4784 181.182 80.457 178.575 79.5912C175.969 78.7254 173.19 78.8254 170.469 78.9331C167.697 79.0428 165.954 75.7581 164.899 72.9299Z" fill="#D4E6B6"/>
<path fill-rule="evenodd" clip-rule="evenodd" d="M315.486 207.324C313.728 208.037 311.584 207.45 310.354 205.92C309.728 205.141 308.523 205.614 307.81 206.3C307.096 206.986 306.393 207.897 305.436 207.89C304.457 207.884 303.707 206.829 303.601 205.779C303.495 204.73 303.862 203.7 304.223 202.718C302.883 202.993 301.475 203.264 300.178 202.809C298.881 202.353 297.776 200.905 298.118 199.483C298.243 198.962 298.542 198.508 298.886 198.119C300.027 196.83 301.744 196.161 303.387 196.367C304.186 196.467 304.466 195.253 304.397 194.389C304.267 192.742 304.021 191.05 304.45 189.464C304.878 187.878 306.242 186.428 307.762 186.645C309.691 186.921 310.502 189.431 310.716 191.515C310.789 192.227 311.339 193.202 311.854 192.75C313.51 191.295 316.157 191.377 317.734 192.931C318.342 193.531 318.807 194.372 318.765 195.26C318.715 196.294 318 197.158 317.202 197.735C316.404 198.312 315.493 198.695 314.717 199.305C316.406 200.525 318.181 202.357 317.834 204.516C317.625 205.815 316.632 206.86 315.486 207.324ZM308.027 200.303C308.069 200.513 308.111 200.723 308.153 200.933C306.74 201.697 306.304 203.606 306.023 205.282C306.444 205.624 307.031 205.179 307.332 204.712C307.992 203.692 308.304 202.463 308.788 201.334C309.272 200.204 310.025 199.093 311.134 198.746C311.595 198.602 312.084 198.602 312.555 198.502C313.559 198.289 314.427 197.639 315.263 197.004C315.73 196.65 316.223 196.26 316.414 195.68C316.841 194.384 315.346 193.118 314.091 193.365C312.835 193.613 311.926 194.767 311.188 195.889C310.45 197.012 309.706 198.24 308.535 198.786C308.195 198.944 307.805 199.036 307.456 198.902C307.108 198.768 306.84 198.345 306.958 197.967C307.076 197.589 307.655 197.477 307.819 197.834C308.113 197.689 308.253 197.263 308.109 196.952C306.619 197.237 305.129 197.523 303.64 197.809C302.821 197.966 301.972 198.136 301.298 198.66C300.624 199.183 300.182 200.17 300.504 200.995C302.667 202.535 305.51 199.638 308.027 200.303ZM311.781 200.458C310.761 200.67 310.375 202.147 310.77 203.183C311.164 204.219 312.045 204.924 312.826 205.663C313.582 206.378 314.897 206.048 315.436 205.134C315.976 204.219 315.803 202.954 315.193 202.092C314.583 201.231 313.616 200.732 312.632 200.508C312.352 200.444 312.062 200.4 311.781 200.458ZM309.055 193.337C308.997 191.728 308.847 189.914 307.688 188.898C307.334 188.588 306.881 189.139 306.737 189.605C306.372 190.794 306.202 192.053 306.241 193.306C306.26 193.932 306.339 194.583 306.663 195.103C306.987 195.623 307.616 195.968 308.164 195.758C308.98 195.446 309.089 194.27 309.055 193.337L309.055 193.337Z" fill="#64FCD9"/>
<path fill-rule="evenodd" clip-rule="evenodd" d="M228.156 234.601C226.883 235.103 225.33 234.69 224.439 233.61C223.986 233.061 223.113 233.394 222.597 233.878C222.08 234.362 221.57 235.004 220.878 235C220.168 234.995 219.626 234.251 219.549 233.511C219.472 232.771 219.738 232.044 219.999 231.352C219.028 231.546 218.009 231.737 217.07 231.416C216.131 231.095 215.33 230.073 215.578 229.07C215.669 228.703 215.885 228.382 216.134 228.108C216.96 227.198 218.204 226.727 219.393 226.872C219.972 226.943 220.175 226.086 220.125 225.477C220.031 224.316 219.853 223.122 220.163 222.003C220.474 220.885 221.461 219.862 222.562 220.015C223.959 220.21 224.546 221.98 224.701 223.45C224.754 223.952 225.152 224.64 225.525 224.321C226.725 223.295 228.642 223.353 229.784 224.449C230.224 224.872 230.561 225.465 230.53 226.091C230.495 226.82 229.976 227.43 229.399 227.837C228.821 228.244 228.161 228.514 227.599 228.945C228.822 229.805 230.108 231.097 229.856 232.62C229.705 233.536 228.986 234.273 228.156 234.601ZM222.754 229.648C222.784 229.797 222.815 229.945 222.845 230.093C221.822 230.632 221.506 231.978 221.303 233.16C221.608 233.402 222.032 233.088 222.251 232.759C222.729 232.038 222.954 231.172 223.305 230.375C223.656 229.579 224.201 228.795 225.004 228.55C225.338 228.449 225.692 228.449 226.033 228.378C226.76 228.228 227.389 227.77 227.995 227.322C228.332 227.072 228.689 226.797 228.828 226.388C229.137 225.474 228.055 224.58 227.146 224.755C226.236 224.93 225.578 225.744 225.043 226.535C224.509 227.327 223.97 228.193 223.122 228.578C222.876 228.69 222.593 228.755 222.341 228.661C222.088 228.566 221.894 228.267 221.98 228.001C222.065 227.734 222.484 227.655 222.604 227.907C222.816 227.805 222.917 227.505 222.813 227.285C221.734 227.486 220.656 227.688 219.577 227.889C218.984 228 218.369 228.12 217.881 228.49C217.393 228.859 217.072 229.555 217.306 230.137C218.872 231.223 220.931 229.179 222.754 229.648ZM225.473 229.758C224.734 229.907 224.455 230.949 224.74 231.68C225.026 232.411 225.664 232.908 226.23 233.429C226.777 233.934 227.729 233.7 228.12 233.056C228.511 232.411 228.386 231.518 227.944 230.91C227.502 230.303 226.802 229.951 226.089 229.793C225.886 229.748 225.676 229.717 225.473 229.758ZM223.499 224.735C223.456 223.6 223.348 222.321 222.508 221.604C222.252 221.386 221.924 221.774 221.82 222.102C221.555 222.941 221.433 223.83 221.46 224.713C221.474 225.155 221.532 225.614 221.766 225.981C222.001 226.348 222.456 226.591 222.853 226.443C223.444 226.222 223.523 225.393 223.499 224.735L223.499 224.735Z" fill="#FF0000"/>
<path fill-rule="evenodd" clip-rule="evenodd" d="M308.032 37.6829C307.306 37.1263 306.579 36.5697 305.852 36.0131C306.947 35.1438 308.566 35.3991 309.597 36.3589C310.628 37.3188 311.128 38.8326 311.22 40.3167C311.29 41.4483 311.063 42.7451 310.191 43.3476C309.351 43.9278 308.262 43.6433 307.31 43.3408C306.524 43.0911 305.738 42.8414 304.953 42.5918C304.128 42.3297 303.4 43.2389 303.003 44.0779C302.606 44.9169 302.149 45.921 301.298 46.0463C300.166 46.2129 299.495 44.7555 298.689 43.8634C296.341 41.2656 291.652 43.1292 289.484 40.3477C288.56 39.1631 288.427 37.3704 288.987 35.9359C289.548 34.5015 290.72 33.4232 292.037 32.8471C292.572 32.6131 293.147 32.4458 293.597 32.0507C294.047 31.6555 294.334 30.9353 294.063 30.3759C293.445 29.1004 292.814 27.7825 292.686 26.3432C292.558 24.9039 293.056 23.2965 294.214 22.6156C295.334 21.9563 296.779 22.3462 297.767 23.2264C298.755 24.1066 299.372 25.3876 299.894 26.664C300.043 27.0293 300.204 27.4196 300.514 27.6304C300.823 27.8411 301.324 27.7505 301.424 27.3652C301.929 25.4148 304.321 24.6045 305.956 25.5346C307.592 26.4647 308.416 28.6294 308.363 30.657C308.345 31.3792 308.223 32.1224 307.856 32.7205C307.597 33.141 307.232 33.466 306.867 33.7758C305.771 34.7058 304.621 35.5596 303.428 36.3304C303.375 38.8357 305.216 41.2192 307.468 41.563C308.232 41.6797 309.146 41.4975 309.509 40.7465C310.051 39.624 308.98 38.4086 308.032 37.6829ZM303.867 33.5292C305.137 33.3485 306.268 32.2864 306.632 30.9328C306.995 29.5793 306.571 28.0096 305.595 27.096C305.402 26.9157 305.177 26.7543 304.925 26.7365C304.629 26.7157 304.355 26.8935 304.103 27.065C302.281 28.3045 300.235 29.9722 300.277 32.3318C300.322 34.8235 299.565 37.3238 298.171 39.2862C297.668 39.9948 298.049 41.06 298.617 41.7066C299.185 42.3532 299.933 42.8354 300.319 43.6287C300.588 44.1822 301.395 44.1131 301.776 43.6464C302.157 43.1796 302.222 42.5037 302.249 41.8765C302.35 39.5313 302.171 37.1717 301.72 34.8772C301.62 34.3705 302.025 33.8906 302.47 33.7224C302.915 33.5542 303.4 33.5956 303.867 33.5292ZM298.401 35.0997C297.637 35.5648 296.808 34.7023 296.063 34.2022C293.993 32.8133 291.016 34.6137 290.447 37.2101C290.224 38.2243 290.882 39.2715 291.725 39.7463C292.568 40.2212 293.551 40.2594 294.497 40.2879C295.129 40.3069 295.818 40.306 296.314 39.8748C296.638 39.5927 296.828 39.1672 297.003 38.7542C297.509 37.5555 297.976 36.3362 298.401 35.0997ZM295.824 24.1112C295.082 24.0621 294.449 24.8109 294.301 25.6139C294.153 26.417 294.373 27.244 294.635 28.011C295.506 30.5581 296.867 32.8997 298.604 34.8347C299.02 31.3584 299.282 27.3362 297.042 24.847C296.708 24.4765 296.297 24.1424 295.824 24.1112V24.1112Z" fill="#E7EAEE"/>
<path fill-rule="evenodd" clip-rule="evenodd" d="M141.898 115.855C139.888 117.068 138.593 119.597 138.69 122.122C138.732 123.214 138.905 124.576 138.063 125.155C137.368 122.511 137.694 119.561 138.944 117.178C139.253 116.59 139.634 116.016 140.178 115.696C140.721 115.376 141.46 115.377 141.898 115.855V115.855Z" fill="#00160A"/>
<ellipse cx="301.297" cy="85.6418" rx="2.55886" ry="2.82049" fill="#FFB61D"/>
<path fill-rule="evenodd" clip-rule="evenodd" d="M252.926 153.003C253.131 152.039 253.531 150.995 254.368 150.634C256.211 149.838 257.655 152.93 259.629 153.096C260.707 153.187 261.672 152.373 262.738 152.173C264.505 151.841 266.345 153.57 266.328 155.545C266.314 157.22 265.194 158.682 265.095 160.353C264.097 160.163 262.977 160.613 262.463 161.575C261.949 162.536 262.216 163.962 263.112 164.483C264.007 165.004 265.324 164.277 265.356 163.161C265.373 162.56 265.066 162.005 264.985 161.41C264.905 160.814 265.246 160.044 265.786 160.134C266.832 160.876 267.396 162.359 267.144 163.701C266.892 165.043 265.84 166.156 264.613 166.379C264.236 166.447 263.835 166.444 263.502 166.649C262.934 167 262.779 167.801 262.559 168.477C262.132 169.789 261.206 170.934 260.008 171.379C258.809 171.823 257.358 171.473 256.553 170.398C255.747 169.323 255.76 167.557 256.683 166.605C256.114 166.287 255.529 166.945 254.994 167.329C253.646 168.295 251.634 167.324 251.07 165.664C250.505 164.005 251.193 162.048 252.42 160.904C252.813 160.538 253.311 160.071 253.156 159.531C252.55 157.43 252.47 155.149 252.926 153.003ZM258.837 160.944C258.353 163.157 257.868 165.375 257.615 167.633C257.54 168.306 257.53 169.105 258.013 169.525C258.534 169.978 259.319 169.698 259.834 169.236C261.217 167.998 261.518 165.534 260.482 163.936C259.753 162.81 260.416 161.202 261.342 160.269C262.268 159.335 263.461 158.683 264.133 157.516C264.806 156.348 264.524 154.362 263.285 154.145C262.321 153.975 261.263 154.269 260.592 155.051C259.984 155.758 259.754 156.751 259.547 157.698C259.31 158.78 259.074 159.862 258.837 160.944ZM257.149 159.333C258.058 158.776 258.21 157.382 257.978 156.265C257.711 154.985 257.08 153.801 256.195 152.921C255.985 152.713 255.744 152.513 255.463 152.483C254.701 152.403 254.342 153.481 254.239 154.317C254.089 155.548 253.947 156.853 254.405 157.988C254.864 159.122 256.164 159.937 257.149 159.333ZM252.93 165.289C253.563 166.144 254.868 165.647 255.527 164.817C256.186 163.986 256.599 162.877 257.461 162.316C257.835 162.072 257.541 161.361 257.113 161.284C256.684 161.207 256.281 161.491 255.892 161.702C255.12 162.122 254.236 162.295 253.533 162.843C252.83 163.39 252.386 164.554 252.93 165.289Z" fill="#964B00"/>
<path fill-rule="evenodd" clip-rule="evenodd" d="M315.532 72.2245C316.398 69.7619 315.664 66.9284 314.137 64.977C312.411 62.7705 308.69 62.1362 307.374 64.6631C306.863 65.645 305.614 65.8731 304.637 65.5221C303.661 65.1711 302.871 64.3917 302.044 63.7196C296.925 59.5569 290.094 59.3199 283.733 59.2474C281.72 59.2244 279.682 59.2044 277.726 59.7283C273.681 60.8115 270.41 64.0867 266.508 65.6832C261.519 67.7244 255.601 66.724 251.397 63.1286C253.097 66.0947 257.769 75.6827 257.769 75.6827C257.769 75.6827 256.927 71.2039 258.185 70.7927C260.495 70.037 263.434 71.5629 265.703 71.2116C274.162 69.9026 278.638 65.3583 281.925 64.977C304.637 62.3421 313.283 78.6223 315.532 72.2245Z" fill="#E7EAEE"/>
<path fill-rule="evenodd" clip-rule="evenodd" d="M321.064 216.963C309.618 228.63 297.298 239.421 283.521 247.465C256.669 263.145 225.255 267.68 194.989 264.687C164.723 261.693 135.391 251.52 107.148 239.16C99.1611 235.664 170.978 260.684 228.54 254.603C284.586 248.682 326.389 211.534 321.064 216.963Z" fill="#E7EAEE"/>
<ellipse cx="273.515" cy="101.356" rx="3.65551" ry="4.02925" fill="#FFB61D"/>
<path d="M158.676 123.549C160.599 127.429 163.806 130.43 165.509 134.433C167.547 139.221 192.347 182.878 193.207 183.035C194.996 183.362 198.057 180.115 197.737 181.21C197.613 180.996 225.95 198.317 220.195 202.546C213.586 207.402 199.933 212.616 182.724 212.616C176.076 210.978 171.937 203.868 168.527 197.368C158.196 177.675 147.84 157.836 140.835 136.438C140.022 133.955 139.161 131.305 137.257 129.702C135.67 128.366 133.602 127.977 131.616 127.74C126.644 127.146 121.621 127.737 116.655 128.032C110.859 128.376 110.859 125.231 112.441 124.271C114.857 122.806 117.485 122.238 119.374 120.356C116.717 121.663 115.717 122.275 112.832 122.688C109.947 123.101 111.284 120.506 111.424 119.282C110.985 121.189 108.487 122.448 107.098 120.965C105.293 119.036 107.843 114.646 109.735 113.479C110.057 113.28 120.602 107.268 121.333 106.782C120.404 106.542 111.133 113.721 108.086 112.638C106.105 111.934 108.184 108.105 110.102 105.715C116.041 98.3166 114.469 100.843 116.653 98.4068C117.87 97.0489 119.84 97.1075 121.566 97.2596C124.171 97.489 134.639 96.6246 143.288 102.893C151.412 108.78 157.794 121.77 158.676 123.549Z" fill="white"/>
<path fill-rule="evenodd" clip-rule="evenodd" d="M254.785 32.2401C246.925 35.9877 238.101 37.2403 229.637 35.8102C236.736 44.3419 244.728 53.4023 255.143 54.9014C262.305 55.9324 269.149 53.1868 276.051 50.418C281.083 48.3995 286.145 46.3687 291.384 45.7798C301.414 44.6523 311.834 49.2659 318.37 57.728C324.905 66.1902 327.374 78.2649 324.764 88.9992C321.592 102.04 311.564 112.058 300.284 117.319C289.004 122.581 276.52 123.716 264.275 124.047C263.883 124.057 263.49 124.067 263.096 124.077C256.4 124.248 249.53 124.423 243.47 127.506C241.14 128.691 238.972 130.287 236.812 131.877C233.355 134.422 229.92 136.951 225.878 137.753C223.429 138.24 220.923 138.046 218.421 137.852C215.677 137.64 212.938 137.428 210.281 138.113C206.402 139.113 206.747 141.795 207.141 144.868C207.51 147.741 207.923 150.956 204.966 153.453C202.353 155.659 199.014 157.387 195.837 156.439C192.66 155.491 192.587 150.035 194.761 147.311C189.904 150.953 191.018 159.946 195.773 162.524C200.528 165.101 209.044 167.3 204.966 162.478C200.888 157.655 206.753 153.851 211.411 151.066C216.068 148.28 221.924 146.863 226.605 149.6C231.759 152.615 237.413 149.816 243.034 147.033C245.021 146.05 247.004 145.068 248.96 144.346C256.564 141.537 264.65 142.799 272.71 144.058C275.383 144.475 278.052 144.892 280.701 145.16C300.156 147.127 320.216 140.514 335.497 127.097C327.04 138.224 314.012 144.183 300.96 146.115C287.908 148.047 274.66 146.351 261.6 144.485C253.539 143.334 245.902 148.259 239.001 152.994L196.55 182.121C195.665 182.983 194.415 184.093 193.207 183.927C192.115 183.776 188.635 177.437 187.11 174.658C186.823 174.136 186.606 173.739 186.486 173.533L186.485 173.532C176.099 155.668 165.713 137.804 155.108 120.097C150.565 112.513 144.622 105.951 137.749 100.932C133.026 99.8467 128.197 99.3224 123.372 99.3706C121.434 99.3899 119.42 99.5241 117.719 100.549C116.33 101.387 115.272 102.748 114.247 104.079C113.637 104.871 112.58 105.828 111.523 106.784C109.409 108.696 107.295 110.608 108.755 111.21C111.212 112.223 113.593 109.951 115.62 108.016L115.823 107.822L115.951 107.701C118.047 105.71 121.776 104.412 123.165 107.049C122.816 107.254 122.441 107.473 122.045 107.704L122.043 107.705L122.037 107.708C115.915 111.28 104.86 117.73 108.339 119.684C109.938 120.582 112.543 117.687 114.969 114.991L114.969 114.991L114.969 114.991L114.969 114.991L114.97 114.99C116.003 113.842 117.003 112.73 117.879 111.963C118.674 111.267 119.598 110.53 120.602 110.696C121.607 110.862 122.264 112.547 121.388 113.114C120.587 113.633 119.752 114.11 118.919 114.586L118.919 114.586L118.919 114.587L118.919 114.587L118.919 114.587L118.919 114.587L118.919 114.587C116.283 116.094 113.667 117.59 112.197 120.356C111.011 122.59 115.929 120.826 117.518 119.684C119.107 118.542 121.593 117.781 122.603 119.551C121.726 121.266 118.345 122.806 115.741 123.993C113.157 125.17 111.337 125.999 113.487 126.305C116.156 126.685 118.171 126.289 120.277 125.875C121.878 125.559 123.533 125.234 125.569 125.231C128.782 125.228 132.054 125.233 135.116 126.305C138.178 127.377 141.051 129.707 142.113 133.048C151.292 161.915 165.107 188.982 182.724 212.616C176.076 210.978 171.937 203.868 168.527 197.368C158.196 177.676 147.84 157.836 140.835 136.438L140.823 136.404C140.014 133.93 139.152 131.298 137.257 129.703C135.67 128.366 133.602 127.977 131.616 127.74C127.631 127.264 123.613 127.55 119.618 127.833C118.629 127.904 117.641 127.974 116.655 128.032C110.859 128.376 110.859 125.231 112.441 124.272C113.35 123.72 114.289 123.296 115.207 122.881C116.729 122.193 118.195 121.53 119.374 120.356C119.105 120.488 118.854 120.613 118.616 120.732L118.612 120.734C116.495 121.786 115.424 122.318 112.832 122.689C110.516 123.02 110.921 121.412 111.243 120.132C111.322 119.818 111.397 119.523 111.424 119.282C110.985 121.189 108.487 122.449 107.098 120.965C105.293 119.036 107.843 114.646 109.735 113.479C109.835 113.417 110.925 112.793 112.401 111.947L112.428 111.932L112.428 111.932L112.432 111.929C115.701 110.056 120.831 107.116 121.333 106.782C121.013 106.7 119.709 107.494 118.01 108.527C114.767 110.501 110.086 113.349 108.087 112.639C106.105 111.935 108.184 108.106 110.102 105.715C114.061 100.783 114.683 100.262 115.304 99.7404C115.614 99.4797 115.925 99.2191 116.653 98.407C117.87 97.0492 119.84 97.1078 121.566 97.2598L136.72 98.5945C136.701 94.5791 134.053 91.6728 131.358 88.7156C129.955 87.1763 128.54 85.6232 127.476 83.8927C126.51 82.3202 125.819 80.2589 126.571 78.5502C127.071 77.4163 128.071 76.7248 129.059 76.042L129.06 76.0415C129.317 75.864 129.573 75.6871 129.819 75.5032C131.011 74.6116 132.14 73.0893 131.687 71.5812C130.928 69.0516 132.068 66.2073 133.855 64.4133C135.642 62.6194 137.97 61.6536 140.236 60.7279C141.241 60.3173 142.296 59.9 143.359 60.0524C144.582 60.2277 145.648 61.1191 146.689 61.9893C148.008 63.0917 149.286 64.1602 150.79 63.6961C156.073 62.0666 162.207 66.285 163.201 72.2313C163.594 74.5831 165.891 75.9731 168.041 76.2937C169.051 76.4443 170.074 76.4354 171.096 76.4265C172.249 76.4165 173.402 76.4064 174.535 76.6257C177.524 77.2042 180.203 79.4665 181.489 82.4971C181.79 83.2081 182.05 83.989 182.31 84.7741C183.125 87.2261 183.953 89.7193 186.123 90.2553C187.243 90.532 187.762 92.1027 187.428 93.3128C187.093 94.523 186.173 95.4137 185.248 96.1637C181.438 99.2565 176.795 101.12 172.065 101.318C169.026 101.445 167.042 104.075 165.003 106.779C163.567 108.682 162.103 110.623 160.224 111.753C156.703 113.871 156.753 119.67 158.676 123.549C159.566 125.345 160.731 126.952 161.895 128.558C163.245 130.422 164.594 132.283 165.509 134.433C166.81 137.489 169.603 139.009 172.439 140.552C174.047 141.426 175.669 142.309 177.04 143.483C179.792 145.839 180.381 149.62 180.974 153.429V153.429C181.138 154.485 181.303 155.543 181.514 156.574C183.343 165.501 192.347 182.878 193.207 183.035C194.227 183.222 195.661 182.246 196.646 181.576C196.91 181.396 197.142 181.238 197.324 181.131L210.806 169.007C212.642 167.357 214.658 164.661 213.359 162.478C212.638 161.267 211.129 160.691 209.728 160.156C207.936 159.473 206.32 158.856 206.747 157.067C204.519 158.798 205.585 160.935 206.509 162.787C207.415 164.606 208.185 166.149 205.568 166.763C200.284 168.003 193.773 164.871 190.866 159.853C187.958 154.834 190.406 146.598 195.77 145.894C194.599 147.854 191.552 158.881 202.669 152.709C210.127 148.568 196.565 136.352 194.761 134.965C189.936 131.257 191.057 122.56 195.097 117.848C197.991 114.471 201.815 112.421 205.641 110.37L205.642 110.37C207.156 109.558 208.67 108.746 210.127 107.852C211.045 107.289 211.948 106.687 212.852 106.086L212.852 106.086C215.328 104.438 217.805 102.789 220.574 101.926C224.354 100.747 228.999 101.458 231.261 104.998C233.415 108.368 237.534 109.487 241.499 110.563C246.181 111.834 250.649 113.048 251.411 117.844C252.211 122.875 258.49 125.071 262.476 122.465C266.461 119.859 268.037 114.144 267.463 109.076C266.888 104.008 264.578 99.4084 262.312 94.9529C261.452 96.819 258.799 96.3522 257.404 94.9325C256.844 94.3619 256.368 93.6899 255.894 93.0201L255.894 93.0198C255.189 92.0233 254.487 91.0318 253.514 90.3868C252.271 89.5629 250.76 89.4271 249.31 89.3964C243.293 89.2687 237.255 90.6122 231.755 93.3021C221.036 98.5441 208.747 92.8404 198.192 87.2083C196.308 86.2027 194.355 85.1376 193.066 83.3184C189.272 77.9614 195.992 68.8582 201.522 71.8643L200.069 62.6819C201.519 58.4856 207.305 61.0534 210.151 64.2663C212.997 67.4791 218.381 70.5826 220.357 66.6558C222.967 61.4693 228.975 59.3169 234.321 59.9807C239.668 60.6444 244.536 63.567 249.247 66.4329C236.331 43.8827 213.533 28.5725 189.429 26.2627C165.326 23.9528 140.473 34.6965 124.221 54.4515C113.494 67.4903 106.637 83.7425 99.9631 99.733C96.9855 106.867 96.7261 115.018 97.3169 122.844C99.7917 155.624 117.144 186.628 142.61 203.774C143.298 195.714 141.128 187.4 136.66 180.974C127.958 177.149 120.486 170.017 115.806 161.072C117.813 151.432 123.599 142.823 131.381 137.898C124.386 145.795 116.873 157.089 121.693 166.763C123.931 171.254 128.191 173.742 132.382 176.19C133.395 176.782 134.405 177.371 135.38 177.986C140.391 181.144 145.352 186.818 143.967 192.994C142.353 200.195 148.795 206.659 155.205 208.919C157.517 209.734 159.926 210.267 162.328 210.798C166.586 211.739 170.825 212.677 174.481 215.176C145.031 213.055 117.449 192.183 104.483 162.96C91.5164 133.738 93.3658 97.3203 108.649 69.491C123.931 41.6618 151.992 23.0675 181.413 20.5076C189.022 19.8456 196.793 20.2053 204.086 22.6859C207.945 23.9982 211.613 25.8826 215.28 27.7666C219.142 29.7503 223.003 31.7335 227.083 33.0481C238.022 36.5722 249.656 33.9131 259.489 27.5635C262.078 25.8922 264.578 24.0412 267.076 22.1916L267.076 22.1913C271.635 18.8163 276.188 15.4455 281.261 13.178C290.436 9.07659 301.181 10.6059 309.946 15.6822C318.711 20.7584 325.654 29.0697 331.003 38.2533C346.932 65.5982 349.294 99.6022 351.204 132.03C352.254 149.849 353.221 168.316 347.445 184.999C342.202 200.139 331.858 212.406 321.064 223.41C309.617 235.077 297.298 245.868 283.521 253.912C256.669 269.592 225.255 274.128 194.989 271.134C164.723 268.14 135.391 257.967 107.148 245.607C98.8148 241.96 90.1369 245.439 81.3558 248.959C73.5263 252.098 65.6147 255.27 57.7919 253.452C52.0369 252.115 47.2485 248.27 42.4318 244.401L42.4316 244.401C38.6659 241.376 34.8829 238.338 30.6072 236.474C20.135 231.908 7.17224 235.584 0 245.155C6.27704 228.409 27.7656 221.441 41.2693 231.773C48.1027 237.001 57.2645 236.675 65.343 234.49C68.4326 233.654 71.4714 232.579 74.508 231.504C79.4114 229.77 84.3089 228.037 89.4044 227.318C97.202 226.217 105.001 227.539 112.816 228.864C116.837 229.546 120.862 230.229 124.894 230.582C139.413 231.855 153.928 228.852 168.238 225.861L214.474 216.199C221.911 214.646 229.474 213.044 236.168 209.151C243.707 204.766 249.838 197.506 253.265 188.903C233.307 206.749 209.635 210.186 191.575 212.808C186.881 213.49 182.565 214.116 178.793 214.926C233.36 202.639 271.207 177.648 297.486 148.568C291.951 159.399 282.651 166.797 273.344 174.201C264.234 181.449 255.116 188.703 249.514 199.187C241.659 213.888 223.989 217.009 208.649 219.281C187.81 222.367 167.123 226.697 146.709 232.245C155.774 234.579 165.018 236.928 174.296 236.099C177.116 235.847 179.907 235.302 182.697 234.758C186.116 234.092 189.532 233.426 192.996 233.298C199.206 233.069 205.287 234.57 211.38 236.073L211.381 236.073C216.253 237.276 221.133 238.48 226.092 238.803C250.743 240.41 273.197 218.977 281.431 193.316C282.323 190.537 283.086 187.696 283.85 184.857C285.518 178.648 287.185 172.446 290.187 166.914C294.454 159.048 301.358 152.965 309.259 150.108C308.185 153.553 305.199 155.461 302.242 157.35L302.241 157.35C301.301 157.95 300.363 158.549 299.491 159.195C291.145 165.374 288.39 176.493 285.648 187.559C284.698 191.394 283.749 195.223 282.57 198.837C273.551 226.479 245.766 245.047 219.36 241.08C215.835 240.55 212.335 239.667 208.84 238.786L208.84 238.786C202.23 237.119 195.641 235.457 188.947 236.199C186.364 236.486 183.801 237.129 181.244 237.771C176.9 238.863 172.576 239.949 168.208 239.268L137.045 234.413C111.698 230.464 84.7859 226.732 61.3805 238.159C54.9433 241.302 48.3465 237.91 41.615 234.449C35.7864 231.452 29.8567 228.403 23.8423 229.5C30.5699 230.769 36.0177 235.593 41.4701 240.42C46.8424 245.177 52.2191 249.938 58.8289 251.306C66.0201 252.795 72.9521 249.977 79.9614 247.128C84.6839 245.208 89.4416 243.275 94.3371 242.634C103.868 241.387 113.291 245.109 122.31 248.725C147.407 258.788 173.052 268.595 199.722 270.107C212.47 270.83 225.258 269.636 237.882 267.553C253.977 264.898 270.1 260.701 284.379 252.094C299.813 242.79 312.403 228.772 324.619 214.82C333.612 204.549 342.774 193.781 347.124 180.337C352.218 164.598 350.057 147.532 347.937 130.792L347.936 130.787C347.573 127.922 347.212 125.066 346.888 122.228C346.245 116.593 345.757 110.934 345.269 105.275L345.269 105.273C344.355 94.6869 343.443 84.1047 341.518 73.6942C338.565 57.7179 332.97 41.8284 322.595 30.2059C312.221 18.5834 296.402 11.9871 282.198 16.5409C276.475 18.3758 271.38 21.8197 266.273 25.2723C262.534 27.7993 258.789 30.3311 254.785 32.2401ZM177.676 215.176C178.049 215.093 178.421 215.01 178.793 214.926C178.415 215.008 178.043 215.091 177.676 215.176ZM269.403 85.351C270.306 84.2767 271.654 82.8477 272.686 83.7695C270.931 87.5636 267.104 90.0735 263.241 89.9645C265.379 94.4165 266.758 99.3093 267.285 104.313C267.377 105.191 267.888 105.941 268.404 106.619C271.006 110.036 274.351 112.924 278.264 114.067C285.505 116.183 293.288 111.825 298.016 105.42C302.744 99.0159 305.038 90.898 307.139 82.9728C307.746 80.685 308.647 78.0488 310.73 77.4077C312.981 76.7147 314.856 74.6911 315.532 72.2245C316.209 69.758 315.664 66.9284 314.137 64.977C312.411 62.7705 308.69 62.1362 307.374 64.6631C306.863 65.645 305.614 65.8731 304.637 65.5221C303.847 65.238 303.179 64.6733 302.514 64.112C302.358 63.9797 302.202 63.8477 302.044 63.7196C296.925 59.5569 290.095 59.3199 283.733 59.2474C281.72 59.2244 279.682 59.2044 277.726 59.7283C275.447 60.3386 273.414 61.6445 271.375 62.954C269.795 63.969 268.212 64.9861 266.508 65.6832C261.519 67.7244 255.601 66.724 251.397 63.1286C255.963 71.0958 259.776 79.5876 262.753 88.4218C265.23 88.5055 267.72 87.3557 269.403 85.351ZM201.423 63.0953C201.688 64.0336 202.081 64.93 202.474 65.8234C203.087 67.2202 203.697 68.6099 203.808 70.1412C203.99 72.652 201.601 75.525 199.671 74.1769C197.667 72.7776 194.709 74.0908 193.775 76.4941C192.84 78.8974 193.725 81.8534 195.506 83.5803C196.85 84.8835 198.585 85.5668 200.273 86.2213C202.315 87.0124 204.615 88.0791 207.003 89.1868C213.031 91.9826 219.622 95.0396 224.04 94.5851C226.253 94.3575 230.376 91.694 231.779 90.7345C234.456 88.9047 237.556 87.0001 240.585 87.9519C244.4 89.1507 248.603 88.7826 252.198 86.9347C253.952 86.0334 255.577 88.3979 256.295 90.3783C257.014 92.3586 258.444 94.7978 260.278 94.1182C261.289 93.7433 261.833 92.4617 261.801 91.2859C261.769 90.11 261.29 89.0125 260.82 87.9561L252.288 68.7631C250.011 69.4658 247.991 68.0104 245.911 66.5123C244.497 65.4934 243.055 64.4548 241.487 64.0622C240.7 63.8652 239.89 63.8372 239.08 63.8093C238.238 63.7802 237.395 63.7511 236.58 63.5316C235.706 63.2966 234.892 62.8509 234.08 62.4064C233.09 61.8645 232.103 61.3244 231.016 61.1697C228.683 60.8378 226.456 62.3633 224.756 64.1564C224.198 64.7455 223.668 65.3722 223.139 65.9985L223.139 65.9987C222.058 67.2785 220.978 68.5565 219.656 69.5086C217.686 70.9267 214.892 71.4359 213.067 69.7992C212.361 69.1662 211.89 68.3012 211.417 67.4337C211.184 67.0046 210.95 66.5749 210.687 66.1723C208.661 63.0712 204.666 61.7444 201.423 63.0953ZM193.861 128.417C194.654 131.022 196.282 133.304 198.124 135.155C198.527 135.56 198.985 135.95 199.447 136.344C200.963 137.636 202.516 138.959 202.253 140.909C205.671 136.927 210.781 134.792 215.734 135.277C216.545 135.356 217.349 135.501 218.153 135.646C219.014 135.801 219.875 135.957 220.745 136.031C226.92 136.56 232.715 133.028 238.077 129.61L249.63 122.248C250.523 120.204 249.832 117.651 248.453 115.966C247.074 114.282 245.136 113.301 243.215 112.486C241.133 111.602 238.965 110.851 236.735 110.8C236.524 110.796 236.307 110.793 236.086 110.791L236.085 110.791C234.025 110.769 231.634 110.743 230.924 108.723C229.88 105.753 227.333 103.49 224.479 102.997C221.624 102.504 218.571 103.799 216.753 106.274C215.074 108.56 212.443 109.591 209.899 110.588C209.593 110.708 209.288 110.828 208.986 110.949C205.581 112.315 202.309 114.08 199.24 116.203C196.667 117.984 194.007 120.467 193.861 123.812C193.845 124.181 193.81 124.577 193.774 124.985C193.67 126.152 193.557 127.416 193.861 128.417ZM310.17 108.393C314.976 104.264 319.183 99.1191 321.661 92.9829C324.138 86.8467 324.761 79.6524 322.608 73.3693C321.328 69.6334 319.139 66.3547 316.728 63.3744C312.541 58.2002 307.062 53.5428 300.772 53.4461C298.675 53.4139 296.603 53.8958 294.551 54.3753L282.653 57.1563C289.394 57.0175 296.156 58.2283 302.511 60.7121L302.563 60.7323C303.993 61.2916 305.556 61.9028 306.974 61.3163C310.456 59.8757 314.761 61.4745 316.742 64.9439C318.723 68.4133 318.168 73.383 315.484 76.2201C314.941 76.7936 314.331 77.2807 313.72 77.7677L313.72 77.7679C313.045 78.3063 312.37 78.8444 311.788 79.4987C310.05 81.4536 309.34 84.1854 308.649 86.8409C308.608 86.9983 308.568 87.1555 308.527 87.3121C308.488 87.4598 308.449 87.6071 308.41 87.7539C304.296 103.213 293.564 117.361 279.268 120.714C290.399 120.322 301.387 115.941 310.17 108.393ZM297.195 52.6657C300.838 52.2223 304.62 51.8187 308.087 53.1288C311.258 54.3273 313.852 56.8446 316.356 59.3023L319.979 62.8588C314.576 53.3719 304.595 47.2698 294.433 47.2417C289.547 47.2281 284.722 48.5212 280.118 50.3255C278.653 50.8994 277.207 51.5253 275.76 52.1511L275.759 52.1515C275.266 52.365 274.772 52.5785 274.278 52.7899C268.901 55.0903 263.329 57.1705 257.563 57.3256C251.797 57.4808 245.739 55.4575 241.928 50.685C241.76 50.4744 241.594 50.257 241.427 50.0387C240.616 48.9757 239.788 47.8913 238.611 47.4608C241.985 52.2542 245.43 57.1229 249.935 60.6078C254.441 64.0926 260.25 66.048 265.532 64.3401C267.923 63.5669 270.049 62.1122 272.177 60.6556C273.147 59.9923 274.117 59.3286 275.112 58.7287C281.814 54.6915 289.604 53.5898 297.195 52.6657ZM215.615 163.913C215.829 164.912 216.838 165.913 217.603 165.326C221.597 162.263 225.606 159.19 229.933 156.737C230.399 156.473 230.869 156.215 231.341 155.956C233.694 154.666 236.067 153.366 237.875 151.289C235.243 152.702 232.135 152.487 229.268 151.834C228.352 151.626 227.443 151.376 226.534 151.126C224.595 150.593 222.658 150.06 220.669 149.931C218.165 149.769 215.629 150.264 213.328 151.363C211.944 152.024 210.585 152.97 209.875 154.437C209.166 155.905 209.334 157.983 210.573 158.931C211.15 159.372 211.877 159.533 212.593 159.692C213.537 159.901 214.461 160.106 214.992 160.941C215.346 161.497 215.41 162.181 215.476 162.869C215.509 163.221 215.543 163.575 215.615 163.913ZM275.781 116.701C274.658 115.956 273.749 114.885 272.855 113.829L268.47 108.642L268.982 117.221C269.031 118.051 269.078 118.905 268.838 119.693C268.599 120.481 267.999 121.196 267.247 121.263C266.852 121.298 266.842 122.026 267.183 122.25C267.524 122.475 267.958 122.351 268.337 122.22L278.679 118.667C279.32 118.447 279.982 118.214 280.483 117.721C278.872 117.995 277.177 117.627 275.781 116.701ZM172.778 40.2009C174.596 38.4328 177.11 37.8499 179.521 37.5662C187.986 36.5698 196.718 38.5341 204.153 43.1071C204.299 43.1974 204.446 43.2889 204.594 43.3806C205.951 44.2258 207.343 45.092 208.888 45.1976C209.372 45.2307 209.857 45.1867 210.342 45.1427C210.766 45.1042 211.19 45.0658 211.615 45.0788C212.63 45.1098 213.579 45.2762 214.518 45.4407C216.277 45.7491 218 46.0512 220.058 45.4432C223.008 44.5723 223.442 45.4259 223.756 47.173C224.069 48.9202 222.927 50.6864 221.458 51.4293C219.99 52.1723 218.291 52.0956 216.695 51.8135C216.234 51.7319 215.773 51.6342 215.313 51.5366C214.182 51.2968 213.052 51.0571 211.904 51.0547C209.632 51.0501 207.377 51.9594 205.157 52.8545C202.018 54.1196 198.95 55.3564 196.007 53.945C194.965 53.4456 193.767 53.7997 192.678 54.159L181.175 57.9577C178.329 58.8978 175.385 59.8483 172.433 59.4748C170.089 59.1782 167.927 58.0719 165.764 56.9658C163.585 55.8509 161.405 54.7361 159.041 54.4511C157.05 54.2109 155.032 54.5751 153.025 54.9373C150.47 55.3985 147.931 55.8566 145.485 55.0608C145.618 54.3655 146.307 54.0129 146.911 53.764C150.598 52.2446 154.347 50.7099 158.272 50.3838C158.919 50.3301 159.578 50.3058 160.241 50.2814C162.639 50.1932 165.066 50.104 166.985 48.6099C168.388 47.5173 169.257 45.8612 170.131 44.1979C170.892 42.7482 171.656 41.2931 172.778 40.2009ZM197.937 52.4451C200.323 53.1954 202.62 52.0565 204.961 50.8958C206.588 50.0889 208.237 49.2715 209.952 49.0705C211.624 48.8746 213.286 49.2774 214.947 49.6798C216.68 50.0995 218.411 50.5189 220.149 50.2575C221.378 50.0727 222.829 48.81 222.182 47.6434C221.804 46.9624 220.952 46.8794 220.228 46.8716L208.421 46.7444C207.142 46.7306 205.754 46.6759 204.76 45.7865C202.692 43.9349 200.174 42.8007 197.635 41.912C194.162 40.6967 190.57 39.8913 186.94 39.5481C182.977 39.1735 178.971 39.3508 175.048 40.0745L170.431 46.6831C168.542 49.3873 166.008 52.3925 162.953 51.8344C158.967 51.1061 154.776 51.8065 151.165 53.8046C154.797 52.482 158.818 52.4962 162.442 53.8444C163.504 54.2397 164.53 54.7445 165.556 55.2491C166.75 55.837 167.944 56.4247 169.196 56.8387C174.978 58.7518 181.188 56.7613 186.839 54.4203L187.042 54.3362C190.557 52.8789 194.336 51.3125 197.937 52.4451ZM155.834 65.8596C158.606 65.9728 160.189 69.2965 161.244 72.1247C162.299 74.9529 164.041 78.2375 166.814 78.1278C169.534 78.0201 172.313 77.9202 174.92 78.786C177.527 79.6517 179.977 81.6732 180.762 84.5466C180.913 85.0982 181.012 85.6912 181.112 86.2839C181.369 87.8131 181.625 89.3401 182.757 90.1474C182.999 90.3195 183.28 90.4625 183.56 90.6052C184.253 90.9577 184.941 91.3076 185.01 92.0872C185.044 92.4729 184.891 92.8475 184.718 93.1852C182.945 96.6534 179.098 98.054 175.543 98.7548C175.032 98.8555 174.516 98.9495 173.999 99.0438L173.996 99.0442L173.996 99.0444L173.995 99.0445L173.994 99.0447L173.993 99.0448C170.909 99.6068 167.763 100.18 165.295 102.231C164.06 103.257 163.084 104.587 162.106 105.918L162.106 105.919C161.27 107.057 160.434 108.196 159.434 109.149C159.048 109.516 158.638 109.856 158.229 110.194L158.229 110.195L158.229 110.195L158.229 110.195L158.229 110.195L158.229 110.195L158.229 110.195C157.462 110.83 156.697 111.463 156.093 112.278C155.167 113.529 154.718 115.434 155.577 116.741C151.825 111.126 147.233 106.194 142.043 102.205C140.634 101.122 139.032 99.8408 138.909 97.9528C138.605 93.3045 135.225 89.8323 132.083 86.6037C131.816 86.3302 131.552 86.0585 131.291 85.788C129.794 84.2346 128.242 82.0306 129.005 79.9259C129.438 78.7314 130.474 78.0275 131.509 77.3248C132.56 76.6113 133.609 75.8989 134.023 74.6751C134.35 73.7093 134.187 72.6828 134.023 71.6464C133.897 70.8461 133.769 70.04 133.865 69.2512C134.029 67.9049 134.527 67.5542 135.767 66.6816C136.611 66.0878 137.798 65.2521 139.457 63.6964C141.974 61.3363 145.569 63.1186 148.682 64.6618C150.636 65.6305 152.4 66.505 153.588 66.2014C154.322 66.0138 155.077 65.8287 155.834 65.8596ZM175.325 144.347C177.094 146.567 178.941 148.972 179.293 151.902C179.472 153.395 179.233 154.945 178.616 156.289L170.618 142.555C170.532 142.406 170.442 142.225 170.507 142.063C170.611 141.8 170.965 141.881 171.2 142.005L174.487 143.74C174.791 143.901 175.103 144.068 175.325 144.347ZM259.502 76.4423C259.431 77.1795 259.669 77.946 260.136 78.4798C260.745 78.8167 261.39 78.492 262.045 78.1622C262.35 78.0086 262.657 77.854 262.963 77.7644C263.525 77.6004 264.119 77.6625 264.697 77.7258L271.802 78.503C272.239 77.7568 271.344 76.9294 270.584 76.6331C267.039 75.2506 263.084 75.1825 259.502 76.4423ZM298.218 90.5532C295.327 95.4422 290.804 99.1293 285.716 100.744L285.67 102.002C291.338 100.607 296.485 96.7888 299.791 91.5262C300.172 90.9198 300.484 89.9745 299.937 89.5496C299.341 89.0866 298.616 89.8798 298.218 90.5532ZM284.823 78.3917C285.16 77.6902 286.097 77.8872 286.79 78.0998C289.916 79.0585 293.471 78.0786 295.819 75.6109C295.91 75.5154 296 75.4174 296.09 75.319L296.091 75.3188L296.092 75.3174C296.536 74.8331 296.987 74.342 297.572 74.1253C298.278 73.8644 299.243 74.2434 299.323 75.0586C297.211 76.9898 294.751 78.3912 292.313 79.7771C291.276 80.3663 290.181 80.9707 289.016 80.9321C287.386 80.8782 286.03 79.6003 284.823 78.3917ZM280.318 94.7064C280.506 95.0488 280.74 95.4114 281.093 95.5013C281.346 95.5655 281.607 95.4749 281.853 95.3853L285.695 93.9863C285.695 93.4866 285.211 93.1403 284.76 93.0907C284.507 93.0629 284.255 93.0958 284.002 93.1289C283.803 93.1548 283.604 93.1808 283.404 93.1773C281.866 93.1504 280.797 91.4315 280.412 89.7896C280.278 89.2177 280.191 88.629 280.105 88.0414C279.943 86.942 279.781 85.8462 279.312 84.8696C278.426 84.8225 278.104 86.1444 278.161 87.12C278.315 89.7904 279.062 92.4167 280.318 94.7064ZM297.672 67.1697C294.252 66.9192 290.846 67.6911 287.49 68.4587C286.612 68.6596 285.728 68.8628 284.904 69.2531C282.983 70.1637 281.571 71.9958 280.232 73.7664C280.033 74.0294 279.822 74.3331 279.854 74.6736C279.909 75.2525 280.65 75.458 281.112 75.1764C281.496 74.9426 281.738 74.5216 281.975 74.1076C282.024 74.023 282.073 73.9386 282.122 73.8562C283.882 70.925 287.348 70.0254 290.479 69.3621C293.132 68.8002 295.864 68.2376 298.515 68.8094C298.978 68.9093 299.239 68.1183 298.953 67.7044C298.668 67.2906 298.143 67.2042 297.672 67.1697Z" fill="#00160A"/>
<path fill-rule="evenodd" clip-rule="evenodd" d="M243.528 0.126856C243.747 0.312737 243.821 0.603781 243.875 0.882335L244.207 2.6304C244.254 2.87351 244.152 3.2498 243.912 3.16475C243.569 2.46407 243.387 1.69098 243.382 0.916309C243.251 0.795198 243.057 0.975366 242.976 1.1316L242.163 2.69298C242.02 2.96791 241.593 2.90722 241.312 2.76346L241.161 2.68632C240.916 2.56394 240.65 2.4556 240.418 2.57623C240.3 2.91811 240.826 3.08863 241.099 3.33474C241.41 3.61578 241.392 4.12035 241.174 4.47416C240.956 4.82798 240.588 5.06646 240.232 5.29298C240.743 5.37441 241.289 5.23017 241.686 4.90846C241.866 4.76314 242.03 4.57663 242.259 4.53035C242.614 4.45876 242.933 4.75558 243.117 5.05678C243.301 5.35798 243.447 5.71065 243.761 5.8844C243.919 5.64501 243.835 5.34442 243.735 5.06756L243.688 4.93852C243.574 4.62908 243.523 4.21912 243.802 4.03131C243.907 3.96068 244.038 3.94002 244.166 3.92659L245.539 3.79398L244.748 3.23796C244.615 3.14428 244.465 2.98858 244.546 2.85025C244.633 2.70373 244.863 2.76452 245.017 2.84367L246.942 3.83192C246.287 4.28542 245.514 4.57926 244.715 4.67886C244.321 4.72796 244.257 5.24879 244.299 5.63009L244.413 6.66742C244.448 6.99062 243.921 7.10044 243.658 6.89768C243.395 6.69493 243.295 6.35538 243.088 6.0993C242.753 5.68561 242.16 5.53135 241.619 5.57926C241.077 5.62717 240.569 5.84638 240.073 6.06254C239.754 6.2019 239.402 5.83275 239.427 5.49511C239.449 5.1972 239.647 4.94744 239.848 4.71495L239.928 4.62279C240.154 4.36389 240.38 4.05704 240.342 3.72056C240.31 3.44034 240.103 3.2147 239.895 3.01318L239.773 2.89539C239.58 2.70522 239.397 2.49383 239.364 2.2338C239.325 1.93662 239.606 1.59452 239.901 1.68664C241.039 2.04145 242.409 1.34971 242.755 0.245586C242.845 -0.0412753 243.295 -0.0714168 243.528 0.126856Z" fill="#FFB61D"/>
<path fill-rule="evenodd" clip-rule="evenodd" d="M27.3441 32.2718C27.812 32.6702 27.9712 33.2938 28.0881 33.8907L28.7998 37.6366C28.8987 38.1575 28.6814 38.9639 28.166 38.7816C27.4323 37.2802 27.0418 35.6235 27.0305 33.9635C26.7506 33.704 26.3339 34.0901 26.1598 34.4249L24.4195 37.7707C24.1131 38.3598 23.1982 38.2298 22.5942 37.9217L22.2707 37.7564C21.7467 37.4942 21.1761 37.262 20.6794 37.5205C20.426 38.2531 21.5531 38.6185 22.1378 39.1459C22.8056 39.7481 22.7663 40.8293 22.2994 41.5875C21.8325 42.3457 21.0435 42.8567 20.2804 43.3421C21.3768 43.5166 22.5458 43.2075 23.3969 42.5181C23.7814 42.2067 24.1335 41.8071 24.6249 41.7079C25.385 41.5545 26.0679 42.1905 26.4625 42.836C26.857 43.4814 27.1695 44.2371 27.8435 44.6094C28.181 44.0964 28.0007 43.4523 27.7881 42.8591L27.687 42.5826C27.4431 41.9194 27.3335 41.041 27.9316 40.6385C28.1565 40.4872 28.4358 40.4429 28.7107 40.4141L31.6521 40.1299L29.9576 38.9385C29.6721 38.7377 29.3518 38.4041 29.5261 38.1077C29.7108 37.7937 30.2037 37.924 30.534 38.0936L34.6584 40.2113C33.2552 41.183 31.5997 41.8127 29.8867 42.0261C29.0422 42.1313 28.9056 43.2474 28.9955 44.0645L29.2398 46.2873C29.3159 46.9799 28.1867 47.2152 27.6226 46.7808C27.0586 46.3463 26.8446 45.6187 26.4001 45.0699C25.6822 44.1834 24.4131 43.8529 23.252 43.9556C22.0909 44.0582 21.0035 44.528 19.9409 44.9911C19.2559 45.2898 18.5024 44.4988 18.5559 43.7752C18.6032 43.1369 19.0262 42.6017 19.4578 42.1035L19.63 41.906C20.1142 41.3512 20.5984 40.6937 20.5166 39.9726C20.4485 39.3722 20.0042 38.8886 19.5587 38.4568L19.2977 38.2044C18.8846 37.7969 18.4924 37.3439 18.4199 36.7867C18.3372 36.1499 18.9396 35.4168 19.5725 35.6142C22.01 36.3745 24.9449 34.8922 25.6866 32.5263C25.8793 31.9116 26.845 31.847 27.3441 32.2718Z" fill="#FFB61D"/>
</svg>
